<svg xmlns="http://www.w3.org/2000/svg" width="170.744" height="217.979" viewBox="0 0 170.744 217.979">
  <g id="map_nishi_sp" transform="translate(0 1.005)">
    <g id="パス_1066" data-name="パス 1066" transform="translate(-167.876 -701.253)" fill="#ff957b" stroke-linecap="round" stroke-linejoin="round" stroke-miterlimit="10">
      <path d="M 258.8811645507812 917.072265625 C 258.8035278320312 916.6310424804688 258.66650390625 916.0087890625 258.1261596679688 915.4090576171875 C 257.6895141601562 914.92431640625 257.2012329101562 914.6866455078125 256.7828979492188 914.544677734375 C 257.1884765625 914.130126953125 257.6591186523438 913.5449829101562 257.891357421875 912.6567993164062 C 258.0200500488281 912.1646118164062 258.5879821777344 909.6741333007812 257.1253051757812 908.9754028320312 C 256.9369506835938 908.8853759765625 256.7360534667969 908.8396606445312 256.5283203125 908.8396606445312 C 256.0739440917969 908.8396606445312 255.7288360595703 909.055419921875 255.476806640625 909.212890625 C 255.4205474853516 909.2481079101562 255.3447418212891 909.2954711914062 255.2868347167969 909.326171875 C 255.2023620605469 909.212890625 255.0879516601562 908.9786987304688 255.0145263671875 908.828369140625 C 254.7394561767578 908.2652587890625 254.3627319335938 907.4940185546875 253.46728515625 907.2941284179688 C 253.3475952148438 907.2673950195312 253.2263336181641 907.2538452148438 253.1070709228516 907.2538452148438 C 252.4178619384766 907.2538452148438 251.9639892578125 907.6796875 251.5635223388672 908.0554809570312 C 251.3162841796875 908.2874755859375 251.0360565185547 908.5504760742188 250.6375122070312 908.8095092773438 C 250.0312042236328 909.2037353515625 248.6729888916016 909.4183349609375 246.2072906494141 909.8079833984375 C 245.5360717773438 909.9138793945312 244.7376098632812 910.0262451171875 243.7116088867188 910.0262451171875 C 243.6783447265625 910.0262451171875 243.6448059082031 910.026123046875 243.611083984375 910.02587890625 C 242.7815856933594 910.0198974609375 242.3616027832031 909.9649047851562 242.1602020263672 909.9228515625 C 242.1657562255859 909.827880859375 242.180419921875 909.7108764648438 242.1907958984375 909.628173828125 C 242.2463073730469 909.1854248046875 242.3496551513672 908.3612060546875 241.6209106445312 907.8897705078125 C 241.4093627929688 907.7530517578125 241.1733551025391 907.683837890625 240.9189910888672 907.683837890625 C 240.8727416992188 907.683837890625 240.8291473388672 907.6862182617188 240.7887115478516 907.6898193359375 C 240.7503051757812 907.5800170898438 240.7117767333984 907.4232177734375 240.6949310302734 907.2529296875 C 240.6294708251953 906.594482421875 241.0250244140625 905.8148193359375 241.6150054931641 905.43896484375 C 241.8963470458984 905.259765625 242.0104827880859 905.209716796875 242.9926452636719 905.1332397460938 C 245.1008453369141 904.9688720703125 247.4569549560547 904.1820068359375 248.0347137451172 903.4494018554688 C 248.2311553955078 903.2002563476562 248.3132934570312 902.8991088867188 248.2660064697266 902.6013793945312 C 248.2132110595703 902.2710571289062 248.0040435791016 901.8478393554688 247.3065032958984 901.7023315429688 C 247.1938629150391 901.6788330078125 247.1048889160156 901.6602783203125 246.9972534179688 901.586181640625 C 246.9041748046875 901.5221557617188 246.8404083251953 901.4357299804688 246.7264709472656 901.2757568359375 L 246.7148132324219 901.2593383789062 C 246.6936187744141 901.2296142578125 246.6715087890625 901.1985473632812 246.6493072509766 901.167236328125 C 246.85302734375 901.0781860351562 247.1099853515625 900.9744262695312 247.3623962402344 900.87255859375 C 247.6506958007812 900.7561645507812 247.9774475097656 900.6242065429688 248.3558502197266 900.4646606445312 C 249.0413665771484 900.1755981445312 249.4689331054688 899.9756469726562 249.7518768310547 899.8433837890625 C 250.1880645751953 899.639404296875 250.1951141357422 899.6386108398438 250.3753662109375 899.618408203125 C 250.4764099121094 899.6070556640625 250.5731506347656 899.6015625 250.6712493896484 899.6015625 C 250.9521026611328 899.6015625 251.1880950927734 899.6488647460938 251.4163055419922 899.694580078125 C 251.6356353759766 899.7384643554688 251.8624114990234 899.783935546875 252.1085662841797 899.7838745117188 C 252.5229339599609 899.7838745117188 252.8907928466797 899.6519165039062 253.2019348144531 899.3917846679688 C 254.1333160400391 898.612548828125 254.3246459960938 896.984619140625 253.6035919189453 895.9760131835938 C 253.1134490966797 895.2906494140625 252.4426422119141 895.1853637695312 251.9987640380859 895.1156616210938 C 251.6680755615234 895.063720703125 251.5404357910156 895.0343627929688 251.4069366455078 894.9093017578125 C 251.3329162597656 894.8399047851562 251.3251647949219 894.8326416015625 251.2630920410156 894.4735717773438 C 251.1956329345703 894.0834350585938 251.0936889648438 893.4937744140625 250.7074127197266 892.6828002929688 C 250.4703369140625 892.18505859375 250.2343902587891 891.8304443359375 250.0591278076172 891.579833984375 C 250.2345123291016 891.5032348632812 250.4568481445312 891.412353515625 250.6857299804688 891.3187866210938 C 250.8774261474609 891.240478515625 251.0937652587891 891.1520385742188 251.337890625 891.0502319335938 C 253.7011260986328 890.0640869140625 254.1557464599609 889.7232666015625 254.4016723632812 889.1351928710938 C 254.7782287597656 888.2344360351562 254.3862457275391 887.421142578125 254.1268768310547 886.8829956054688 C 254.0793151855469 886.7843627929688 254.0172729492188 886.6556396484375 253.9735107421875 886.5486450195312 C 254.3063812255859 886.4573974609375 254.8011932373047 886.316650390625 255.4141540527344 885.9053344726562 C 255.7794799804688 885.6600952148438 256.052978515625 885.4087524414062 256.2643432617188 885.1841430664062 C 256.4613037109375 885.5797119140625 256.7692260742188 886.0407104492188 257.3104553222656 886.380859375 C 257.8128967285156 886.6967163085938 258.41845703125 886.8636474609375 259.0615844726562 886.8635864257812 C 259.6881103515625 886.8635864257812 260.3056335449219 886.70751953125 260.8473510742188 886.4121704101562 C 262.2906799316406 885.6257934570312 262.6158752441406 884.1646728515625 262.7227783203125 883.6845092773438 C 262.9661560058594 882.5914916992188 263.000244140625 880.5076904296875 261.5837707519531 879.6314086914062 C 261.2346801757812 879.4154663085938 260.8398742675781 879.305908203125 260.4102783203125 879.305908203125 C 259.8525390625 879.305908203125 259.341064453125 879.4905395507812 258.9237670898438 879.647705078125 C 258.9745788574219 879.427490234375 259.0667114257812 879.151123046875 259.2247924804688 878.8421020507812 C 259.5574645996094 878.1917724609375 260.0289611816406 877.7036743164062 260.5184020996094 877.5029907226562 C 260.6000061035156 877.4695434570312 260.607666015625 877.4695434570312 260.6672058105469 877.4695434570312 C 260.7530517578125 877.4695434570312 260.889404296875 877.4796752929688 261.0620422363281 877.4924926757812 C 261.4998168945312 877.5250244140625 262.1614074707031 877.57421875 263.3512573242188 877.5777587890625 L 263.4828796386719 877.5779418945312 C 263.8798522949219 877.5779418945312 264.2111511230469 877.5725708007812 264.4773559570312 877.5682373046875 C 264.667236328125 877.5651245117188 264.8312377929688 877.5624389648438 264.9701232910156 877.5624389648438 C 265.4359436035156 877.5624389648438 265.4827270507812 877.5926513671875 265.5676879882812 877.6475219726562 C 265.7467041015625 877.7630615234375 265.7957763671875 877.86376953125 265.9459838867188 878.2826538085938 C 266.0819396972656 878.6618041992188 266.2681579589844 879.18115234375 266.7078857421875 879.7294921875 C 267.4288330078125 880.6286010742188 268.1859436035156 880.8416748046875 269.8448486328125 881.3085327148438 C 270.2108154296875 881.4114990234375 270.6256103515625 881.5282592773438 271.1098022460938 881.6707153320312 C 272.1875305175781 881.988037109375 273.0153198242188 882.2582397460938 273.6804809570312 882.4754028320312 C 274.8421936035156 882.8546142578125 275.4821166992188 883.0634765625 276.0654907226562 883.0634155273438 C 276.5284423828125 883.0634155273438 276.9279174804688 882.92822265625 277.2867126464844 882.650146484375 C 277.519775390625 882.4696044921875 277.7014770507812 882.2561645507812 277.8438415527344 882.02587890625 C 278.0917663574219 882.3463745117188 278.4106750488281 882.6206665039062 278.8286437988281 882.7880859375 C 279.0943603515625 882.8944702148438 279.3810424804688 882.9483642578125 279.6808471679688 882.9483642578125 C 280.8917846679688 882.9483642578125 282.0338439941406 882.0819702148438 282.7895812988281 881.5086669921875 C 283.9310913085938 880.6426391601562 284.538818359375 879.6936645507812 284.8652954101562 879.183837890625 C 285.6370239257812 877.979248046875 286.1946411132812 877.1088256835938 286.1712646484375 875.8698120117188 C 286.1516723632812 874.83447265625 285.7209167480469 874.0286865234375 285.4063720703125 873.4403076171875 C 285.3792419433594 873.3895874023438 285.3493347167969 873.3336181640625 285.3198852539062 873.27734375 C 286.2812194824219 872.9338989257812 287.3312072753906 872.0802612304688 288.1886291503906 870.931396484375 C 289.2615051269531 869.493896484375 289.85009765625 867.8279418945312 289.845947265625 866.2405395507812 C 289.8406372070312 864.2382202148438 288.9049987792969 862.751708984375 288.5029907226562 862.20556640625 C 287.4822082519531 860.818603515625 285.5338439941406 859.3444213867188 283.9336242675781 859.3444213867188 C 283.4974670410156 859.3444213867188 283.1115112304688 859.452392578125 282.7864379882812 859.6652221679688 C 282.7725524902344 859.67431640625 282.7589416503906 859.6835327148438 282.7455139160156 859.6928100585938 C 282.7745361328125 859.4541015625 282.7676696777344 859.19482421875 282.7022094726562 858.9042358398438 C 282.5559997558594 858.2557373046875 282.2192687988281 857.88916015625 280.3001403808594 856.2890014648438 C 279.9160766601562 855.9688110351562 279.5783081054688 855.7142333984375 279.3069152832031 855.5096435546875 C 279.0150451660156 855.2896118164062 278.6529846191406 855.0167236328125 278.5891723632812 854.904541015625 C 278.5891418457031 854.9044189453125 278.589111328125 854.9042358398438 278.589111328125 854.904052734375 C 278.5820617675781 854.8222045898438 278.6772766113281 854.6475830078125 278.7612609863281 854.4934692382812 C 278.9578247070312 854.1329345703125 279.3236999511719 853.4618530273438 278.9470520019531 852.70654296875 C 278.6463012695312 852.1029663085938 277.9539794921875 851.6812133789062 277.2635192871094 851.6812133789062 C 277.1539306640625 851.6812133789062 277.0449829101562 851.6917724609375 276.939697265625 851.7125854492188 C 275.9378356933594 851.9107055664062 275.5932006835938 852.8818359375 275.3651428222656 853.5244750976562 C 275.33935546875 853.5971069335938 275.3088684082031 853.6829833984375 275.2771606445312 853.7672119140625 C 275.0550537109375 853.5903930664062 274.7662048339844 853.3792724609375 274.3688659667969 853.1787719726562 C 273.5821228027344 852.7817993164062 272.9965209960938 852.7485961914062 272.5093383789062 852.7485961914062 C 272.4593200683594 852.7485961914062 272.4092712402344 852.7489624023438 272.3589172363281 852.7493286132812 C 272.3132019042969 852.7496948242188 272.2671813964844 852.7500610351562 272.2206420898438 852.7500610351562 C 271.9865417480469 852.7500610351562 271.7509765625 852.7426147460938 271.4437866210938 852.6525268554688 C 271.0392456054688 852.5340576171875 270.9149169921875 852.4118041992188 270.3225402832031 851.7825317382812 C 269.9049072265625 851.3388671875 269.3329162597656 850.7312622070312 268.3849487304688 849.8818969726562 C 267.1828308105469 848.804931640625 266.5800170898438 848.2648315429688 265.8824157714844 847.9021606445312 C 264.4243774414062 847.144287109375 263.0634460449219 847.047119140625 262.0406799316406 847.047119140625 C 261.531005859375 847.047119140625 261.0287170410156 847.0750122070312 260.54296875 847.1019897460938 C 258.8467407226562 847.1962280273438 256.5237731933594 847.3252563476562 255.9774932861328 848.92578125 C 255.9363403320312 849.0464477539062 255.9102325439453 849.1632080078125 255.8954162597656 849.2753295898438 C 255.4761047363281 847.69677734375 255.1854705810547 847.4550170898438 255.0371704101562 847.3316650390625 C 254.6592712402344 847.0172729492188 254.2019958496094 846.8644409179688 253.6392669677734 846.8644409179688 C 253.1536865234375 846.8644409179688 252.6290740966797 846.9717407226562 251.9029693603516 847.1203002929688 C 251.0247039794922 847.300048828125 250.1295928955078 847.4832153320312 249.4847717285156 847.8740234375 C 249.6328735351562 846.791015625 249.4281463623047 845.6306762695312 248.6790924072266 844.8717651367188 C 248.4451751708984 844.6348266601562 248.1909027099609 844.4713134765625 247.9480590820312 844.3524169921875 C 248.0862579345703 844.1984252929688 248.2273406982422 844.0170288085938 248.3598480224609 843.8015747070312 C 248.8634490966797 842.982666015625 248.9173736572266 842.2002563476562 248.9649658203125 841.5099487304688 C 249.0158233642578 840.7703857421875 248.9650726318359 839.6153564453125 248.4346313476562 838.30859375 C 247.9933624267578 837.221435546875 247.4822235107422 836.69970703125 247.1440124511719 836.3544921875 C 246.9022369384766 836.1077270507812 246.9000854492188 836.0912475585938 246.8921661376953 836.030029296875 C 246.8337860107422 835.5786743164062 247.6257476806641 834.9274291992188 248.2621154785156 834.4041137695312 C 249.2233428955078 833.6136474609375 250.3128356933594 832.7177734375 250.1030426025391 831.4072265625 C 249.9070129394531 830.1824340820312 248.7582244873047 829.7122192382812 247.7446746826172 829.2973022460938 C 246.6654052734375 828.8555297851562 245.9399871826172 828.5126953125 245.6996765136719 827.8006591796875 C 245.5766754150391 827.436279296875 245.5884094238281 827.0062866210938 245.5997619628906 826.5903930664062 C 245.6088104248047 826.2595825195312 245.6173553466797 825.9471435546875 245.5625762939453 825.6397705078125 C 245.4417266845703 824.9617919921875 245.0549926757812 824.6327514648438 244.7518463134766 824.4761962890625 C 244.5428924560547 824.3682861328125 244.3184967041016 824.3136596679688 244.0846252441406 824.3136596679688 C 243.7729034423828 824.3136596679688 243.5155029296875 824.4081420898438 243.2665863037109 824.49951171875 C 243.1449127197266 824.544189453125 243.0190734863281 824.5903930664062 242.8709869384766 824.6325073242188 C 242.5022277832031 824.7374267578125 242.0658111572266 824.795166015625 241.6421051025391 824.795166015625 C 241.4397888183594 824.795166015625 241.2619476318359 824.7825317382812 241.1103210449219 824.7632446289062 C 241.3760223388672 824.4199829101562 241.6648712158203 823.9481811523438 241.8203125 823.302001953125 C 241.95068359375 822.7603759765625 241.9267272949219 822.3441772460938 241.9092254638672 822.040283203125 C 241.8922271728516 821.7450561523438 241.8858642578125 821.6345825195312 241.9842224121094 821.4234008789062 C 242.0581665039062 821.2646484375 242.1082458496094 821.2211303710938 242.2420501708984 821.1047973632812 C 242.4172668457031 820.9524536132812 242.6820220947266 820.7222290039062 242.8927307128906 820.2962036132812 C 243.5859527587891 818.8945922851562 242.8164367675781 817.3912353515625 242.1981353759766 816.1832275390625 C 241.8946533203125 815.59033203125 241.2764434814453 814.83056640625 239.7828063964844 813.0166015625 C 238.7298431396484 811.738037109375 238.2013702392578 811.0963745117188 237.2251129150391 811.0460205078125 C 237.18798828125 811.0440673828125 237.1513366699219 811.0431518554688 237.11474609375 811.0431518554688 C 237.0725250244141 811.0431518554688 237.0307922363281 811.0443725585938 236.9896240234375 811.0466918945312 C 237.0038604736328 810.9466552734375 237.0150756835938 810.8441162109375 237.0226898193359 810.7389526367188 C 237.0487365722656 810.3764038085938 237.1126556396484 808.5049438476562 235.8144073486328 807.2044067382812 C 235.1089477539062 806.497802734375 234.3770294189453 806.341064453125 233.8425903320312 806.2266235351562 C 233.390869140625 806.1298828125 233.2721252441406 806.0902099609375 233.1427917480469 805.9224243164062 C 233.0126037597656 805.7535400390625 233.0011901855469 805.6132202148438 232.9997711181641 805.2230834960938 C 232.9980316162109 804.7520141601562 232.9954223632812 804.0401000976562 232.4278564453125 803.3638305664062 C 231.71728515625 802.5170288085938 230.7844848632812 802.4963989257812 230.1672515869141 802.4827270507812 C 229.7004089355469 802.4723510742188 229.478515625 802.4535522460938 229.3128509521484 802.3168334960938 C 229.0238952636719 802.0784301757812 229.0490570068359 801.49755859375 229.1248321533203 800.5692138671875 C 229.2219085693359 799.3795776367188 229.3427429199219 797.8990478515625 228.2798309326172 796.6873779296875 C 227.7631683349609 796.0983276367188 227.2678527832031 795.9471435546875 226.7434692382812 795.7870483398438 C 226.2861633300781 795.6475219726562 225.6598968505859 795.4563598632812 224.5597686767578 794.860107421875 C 223.7090301513672 794.39892578125 222.8292846679688 793.9219970703125 222.0030517578125 793.1647338867188 C 221.1589660644531 792.39111328125 220.9107513427734 791.8261108398438 220.6233520507812 791.1719360351562 C 220.3226165771484 790.4874267578125 219.9817504882812 789.7114868164062 219.0283966064453 788.8114624023438 C 218.3563079833984 788.1767578125 217.1946258544922 787.6268920898438 214.3980255126953 786.334228515625 L 214.3883666992188 786.3297729492188 C 212.1965637207031 785.3167724609375 211.1962280273438 784.8544311523438 210.5860443115234 784.6749877929688 C 210.2218475341797 784.56787109375 209.8498687744141 784.4812622070312 209.4718780517578 784.415283203125 C 212.3080291748047 783.4592895507812 215.5057678222656 782.6143188476562 217.7278900146484 782.6143188476562 C 218.1517028808594 782.6143188476562 218.5221710205078 782.6464233398438 218.8289337158203 782.7096557617188 C 218.8646240234375 782.7169799804688 218.9062652587891 782.72607421875 218.9537353515625 782.7364501953125 C 219.3788909912109 782.8291625976562 220.2635955810547 783.0220336914062 221.4093170166016 783.0220336914062 C 221.8049926757812 783.0220336914062 222.2030334472656 782.9988403320312 222.5923767089844 782.9530639648438 C 222.8909759521484 782.9179077148438 223.1825714111328 782.8675537109375 225.7023468017578 782.2413940429688 C 226.8134460449219 781.9652709960938 227.3362274169922 781.8306884765625 227.6485900878906 781.7503051757812 C 227.9703521728516 781.66748046875 228.0907440185547 781.636474609375 228.4395904541016 781.5568237304688 C 229.3323669433594 781.35302734375 229.847412109375 781.2581176757812 230.2234954833984 781.1888427734375 C 230.7507019042969 781.0916748046875 231.0411224365234 781.0381469726562 231.5791168212891 780.8194580078125 C 232.3830718994141 780.4923706054688 232.8333435058594 780.1680908203125 233.1313323974609 779.9535522460938 C 233.4137420654297 779.7501831054688 233.4239044189453 779.7496948242188 233.5482635498047 779.7435302734375 C 233.55908203125 779.7430419921875 233.5694274902344 779.7427368164062 233.5796661376953 779.7427368164062 C 233.7324829101562 779.7427368164062 233.8262329101562 779.8024291992188 234.2066497802734 780.14208984375 C 234.6343841552734 780.5239868164062 235.22021484375 781.0470581054688 236.2242736816406 781.3178100585938 C 236.9294128417969 781.5078735351562 237.6598358154297 781.604248046875 238.3953247070312 781.604248046875 C 239.6867523193359 781.604248046875 240.7558135986328 781.3084716796875 241.4252471923828 781.0603637695312 C 242.5142517089844 780.656982421875 243.3907165527344 779.974609375 245.1368560791016 778.6151733398438 C 245.9642028808594 777.9711303710938 246.5647277832031 777.4610595703125 247.0032043457031 777.088623046875 C 247.6332550048828 776.553466796875 247.9426727294922 776.2962036132812 248.0904083251953 776.2962036132812 C 248.1019439697266 776.2962036132812 248.1148834228516 776.296630859375 248.1288452148438 776.297607421875 C 248.5126495361328 776.3237915039062 248.8798065185547 776.6873168945312 249.2685546875 777.0721435546875 C 249.7566833496094 777.5553588867188 250.3641967773438 778.1567993164062 251.2319488525391 778.15673828125 C 251.3625335693359 778.15673828125 251.494384765625 778.1425170898438 251.6238708496094 778.114501953125 C 252.3046569824219 777.967041015625 252.8555603027344 777.474609375 253.2665100097656 776.64794921875 C 256.1332702636719 776.1380004882812 257.2007751464844 776.0692749023438 257.2118225097656 776.068603515625 C 257.7514953613281 776.038330078125 258.1425170898438 776.016357421875 258.4555358886719 776.016357421875 C 258.6928405761719 776.016357421875 258.8809204101562 776.0292358398438 259.0653686523438 776.0582275390625 C 259.8883361816406 776.187255859375 260.3884582519531 776.4553833007812 260.8721008300781 776.7147216796875 C 261.3678588867188 776.98046875 261.8804626464844 777.2553100585938 262.5610046386719 777.2552490234375 C 262.739501953125 777.2552490234375 262.9224853515625 777.2354125976562 263.1049194335938 777.1962280273438 C 264.2228393554688 776.9562377929688 264.8635559082031 776.1340942382812 265.7503662109375 774.9961547851562 C 266.3123779296875 774.275146484375 266.5801696777344 773.72998046875 266.7573547363281 773.3692626953125 C 266.927978515625 773.0219116210938 266.9379577636719 773.01708984375 267.0029602050781 772.98583984375 C 267.0672607421875 772.9548950195312 267.1207275390625 772.9422607421875 267.1873168945312 772.9422607421875 C 267.3236999511719 772.9422607421875 267.5072326660156 772.9945068359375 267.7197570800781 773.0549926757812 C 268.0253601074219 773.1419067382812 268.4057006835938 773.2501831054688 268.8439025878906 773.2501831054688 C 269.2371826171875 773.2501220703125 269.6217041015625 773.1614990234375 269.98681640625 772.9866333007812 C 270.5927429199219 772.6966552734375 270.8797607421875 772.305908203125 271.0892944335938 772.0206298828125 C 271.2528991699219 771.7979125976562 271.3080139160156 771.722900390625 271.52392578125 771.63916015625 C 271.6605224609375 771.5862426757812 271.7392883300781 771.5818481445312 271.8144226074219 771.5818481445312 C 271.86669921875 771.5818481445312 271.9258728027344 771.5850830078125 271.9943542480469 771.5888061523438 C 272.0823974609375 771.5935668945312 272.1821594238281 771.5989990234375 272.2948913574219 771.5989990234375 C 272.6461181640625 771.5989990234375 272.972900390625 771.5431518554688 273.3232421875 771.4234008789062 C 273.9375915527344 771.2131958007812 274.2267150878906 770.9359741210938 274.4817810058594 770.6913452148438 C 274.647216796875 770.53271484375 274.8034973144531 770.3828125 275.1324157714844 770.1798706054688 C 275.5153198242188 769.9437255859375 276.1550598144531 769.5491333007812 276.7463684082031 769.5491333007812 C 276.8618774414062 769.5491333007812 276.96728515625 769.5643310546875 277.0686950683594 769.5955810546875 C 277.277587890625 769.6599731445312 277.5203247070312 769.7969970703125 277.5950317382812 769.9588012695312 C 277.5986633300781 770.0081787109375 277.6003723144531 770.27734375 277.3330688476562 771.0797119140625 C 277.1127014160156 771.7411499023438 276.9099426269531 772.170654296875 276.7470092773438 772.5157470703125 C 276.4853210449219 773.070068359375 276.2381591796875 773.5936279296875 276.3810119628906 774.3396606445312 C 276.4967651367188 774.9442138671875 276.7824096679688 775.229736328125 276.9909362792969 775.4381713867188 C 277.121337890625 775.5684814453125 277.2339782714844 775.6810302734375 277.3940124511719 775.98974609375 C 277.600341796875 776.3878173828125 277.7320861816406 777.0742797851562 277.9871520996094 778.4656982421875 C 278.0210571289062 778.6505737304688 278.0494384765625 778.81103515625 278.07421875 778.9511108398438 C 278.2212524414062 779.7822265625 278.2950439453125 780.1994018554688 278.7457885742188 780.622314453125 C 279.2505187988281 781.0960083007812 279.7967224121094 781.1494140625 280.2355651855469 781.1922607421875 C 280.4681396484375 781.2150268554688 280.7086181640625 781.238525390625 281.0104064941406 781.3187255859375 C 281.2695007324219 781.3876342773438 281.3397216796875 781.4354858398438 281.5272827148438 781.5632934570312 C 281.76220703125 781.723388671875 282.0839538574219 781.942626953125 282.7367553710938 782.2008666992188 C 283.5521240234375 782.5233154296875 284.6687622070312 782.9649658203125 286.0752258300781 782.9649658203125 C 286.1698608398438 782.9649658203125 286.2659606933594 782.9629516601562 286.3609008789062 782.9590454101562 C 287.1076354980469 782.92822265625 287.6009521484375 782.9078369140625 288.1592407226562 782.6173095703125 C 289.2759704589844 782.03662109375 289.5548400878906 781.0044555664062 289.8245239257812 780.0062866210938 C 289.9740295410156 779.452880859375 290.1286315917969 778.880615234375 290.4310607910156 778.2698364257812 C 291.2434387207031 776.6290283203125 292.6134948730469 775.7420043945312 293.063720703125 775.4505004882812 C 293.7501831054688 775.006103515625 294.1925354003906 774.8894653320312 294.8048400878906 774.72802734375 C 295.4717102050781 774.5521850585938 296.3016967773438 774.3333740234375 297.5805053710938 773.6578979492188 C 298.8073425292969 773.0098876953125 299.6564331054688 772.3593139648438 300.4775390625 771.7301635742188 C 301.7436218261719 770.76025390625 302.5536804199219 769.9655151367188 303.1176452636719 769.3818359375 C 303.1619262695312 769.6167602539062 303.2177124023438 769.8690795898438 303.2848205566406 770.1400756835938 C 303.5479125976562 771.2021484375 303.91064453125 772.2280883789062 303.9806823730469 772.4229736328125 C 305.1206665039062 775.5919189453125 306.4126281738281 779.1834106445312 310.0350646972656 783.2034912109375 C 310.64208984375 783.877197265625 311.0609741210938 784.2785034179688 312.1865844726562 785.172119140625 C 313.8833618164062 786.6883544921875 315.898681640625 788.1654052734375 317.8262939453125 789.536865234375 C 320.5599365234375 791.6533203125 322.2713928222656 792.9970092773438 323.5216369628906 793.9786376953125 C 325.4635620117188 795.5032958984375 326.4383239746094 796.2686157226562 328.6702270507812 797.9208374023438 C 332.7386779785156 800.9326782226562 334.7808227539062 802.4445190429688 336.5679016113281 803.4915771484375 C 336.8403625488281 803.6512451171875 337.1168823242188 803.8099365234375 337.4022216796875 803.9703979492188 C 337.367919921875 804.2393188476562 337.3671569824219 804.5205078125 337.3663940429688 804.7981567382812 C 337.3650817871094 805.2763061523438 337.3634338378906 805.8713989257812 337.2369079589844 806.5889282226562 C 336.9296569824219 808.3314819335938 336.1082763671875 809.5647583007812 335.6670227050781 810.227294921875 C 335.5504760742188 810.4022827148438 335.4361877441406 810.5617065429688 335.3190307617188 810.712646484375 C 335.1825866699219 810.8409423828125 335.0413818359375 810.9690551757812 334.8928833007812 811.103759765625 C 334.5689697265625 811.3975830078125 334.2033081054688 811.7291870117188 333.8171691894531 812.1309204101562 C 333.3690185546875 812.5018310546875 332.8798522949219 812.9656982421875 332.3351135253906 813.7897338867188 C 331.9518737792969 814.369384765625 331.7037963867188 814.87255859375 331.5123291015625 815.4605102539062 C 331.1906433105469 816.1808471679688 330.9979248046875 816.8363647460938 330.794189453125 817.5293579101562 C 330.6311950683594 818.0838623046875 330.4627075195312 818.6569213867188 330.2152709960938 819.291015625 C 329.1935424804688 821.4490966796875 327.9449157714844 822.9013061523438 327.4734802246094 823.4496459960938 C 326.9786376953125 824.02490234375 326.4642028808594 824.5439453125 325.9010620117188 825.0359497070312 C 325.5543823242188 825.3297119140625 325.1747741699219 825.6354370117188 324.7410583496094 825.97021484375 C 323.9107971191406 826.5906372070312 322.9429321289062 827.2328491210938 321.8226318359375 827.9761962890625 C 320.1412963867188 829.091796875 318.2311706542969 830.2243041992188 316.9406433105469 830.9790649414062 C 316.5327453613281 831.2176513671875 316.20703125 831.4041748046875 315.919677734375 831.5687866210938 C 315.0552978515625 832.0637817382812 314.6214294433594 832.3121948242188 313.9454040527344 832.8490600585938 C 310.7713623046875 835.369140625 308.5662841796875 839.266845703125 307.3914489746094 844.4339599609375 L 307.3899230957031 844.440673828125 L 307.3884582519531 844.447509765625 C 307.0867004394531 845.86572265625 306.8378601074219 847.3068237304688 306.6488952636719 848.730712890625 C 306.6148986816406 848.9790649414062 306.5841674804688 849.2319946289062 306.5556640625 849.469482421875 L 306.5443420410156 849.5646362304688 C 306.5385437011719 849.6128540039062 306.53271484375 849.6610107421875 306.5274353027344 849.7084350585938 C 306.5075988769531 849.8817138671875 306.4842529296875 850.0894775390625 306.4633483886719 850.2969970703125 C 306.3426208496094 851.4667358398438 306.2603149414062 852.648193359375 306.2189331054688 853.8062133789062 C 306.0974731445312 857.20068359375 306.2095947265625 859.2348022460938 306.2196044921875 859.4052734375 C 306.2255859375 859.5345458984375 306.2318115234375 859.6572875976562 306.2381896972656 859.776611328125 L 306.239013671875 859.8148803710938 C 306.2727966308594 861.3966064453125 306.3047485351562 862.8921508789062 306.2556762695312 864.2022094726562 C 305.8935241699219 866.0851440429688 305.1234741210938 867.6234741210938 304.8313293457031 868.20703125 C 304.5552673339844 868.7582397460938 304.2138366699219 869.4398193359375 303.6406860351562 870.2664794921875 C 303.6056518554688 870.3170776367188 303.5707397460938 870.36669921875 303.5349731445312 870.4166259765625 C 303.0999450683594 870.8289794921875 302.7393493652344 871.2722778320312 302.4610900878906 871.7368774414062 C 302.16259765625 872.094482421875 301.943115234375 872.4344482421875 301.7838134765625 872.955078125 C 301.5650329589844 873.6699829101562 301.6361389160156 874.1867065429688 302.0962829589844 876.5054321289062 C 302.1659851074219 876.86376953125 302.2476196289062 877.267333984375 302.3340148925781 877.694580078125 C 302.4047241210938 878.0439453125 302.4725646972656 878.3558959960938 302.5381774902344 878.6575927734375 L 302.5558471679688 878.73876953125 L 302.5639953613281 878.7763061523438 C 302.5717468261719 878.8119506835938 302.5791625976562 878.8461303710938 302.5864562988281 878.87890625 C 302.63818359375 879.1180419921875 302.6977844238281 879.3958129882812 302.7538146972656 879.6820068359375 C 302.761962890625 879.7379760742188 302.7695007324219 879.8023681640625 302.7784423828125 879.8922119140625 C 302.8710021972656 880.8150024414062 302.8162841796875 881.4102783203125 302.7723388671875 881.8886108398438 C 302.728515625 882.3653564453125 302.6864013671875 882.823974609375 302.8331298828125 883.3175659179688 C 302.5385131835938 883.5511474609375 301.9057922363281 883.9723510742188 300.570556640625 884.6396484375 C 300.2101745605469 884.8198852539062 299.8501892089844 885.00048828125 299.4902038574219 885.1810913085938 C 298.7919006347656 885.531494140625 298.06982421875 885.8938598632812 297.3589477539062 886.24560546875 L 297.332275390625 886.2587890625 C 296.0686340332031 886.88427734375 295.4343566894531 887.1982421875 295.2240295410156 888.0504150390625 C 295.0390930175781 888.7998046875 295.3710021972656 889.38525390625 295.6133422851562 889.8128051757812 C 295.82421875 890.184814453125 295.9324645996094 890.3923950195312 295.8930358886719 890.6809692382812 C 295.8836975097656 890.749267578125 295.8768310546875 890.7661743164062 295.8437805175781 890.8473510742188 C 295.7600708007812 891.052978515625 295.6765747070312 891.2867431640625 295.6555786132812 891.6817626953125 C 295.6280822753906 892.1983642578125 295.7265625 892.5859985351562 295.818603515625 892.868408203125 C 295.7680358886719 892.8855590820312 295.7159729003906 892.9030151367188 295.6656494140625 892.919921875 C 295.5228271484375 892.9677734375 295.3609619140625 893.0220336914062 295.1723022460938 893.0888061523438 C 293.4991149902344 893.680908203125 292.6600952148438 893.9778442382812 292.3002624511719 894.7631225585938 C 291.9795227050781 895.4635009765625 292.2039184570312 896.0722045898438 292.3524475097656 896.4750366210938 C 292.47509765625 896.8077392578125 292.53125 896.9791259765625 292.4677429199219 897.2384033203125 C 292.3922729492188 897.5465698242188 292.1964721679688 897.754150390625 292.0237121582031 897.9373168945312 C 291.2986450195312 898.7050170898438 290.1524963378906 898.7550048828125 289.7209777832031 898.7738037109375 C 289.6632385253906 898.7763061523438 289.6063537597656 898.777587890625 289.5518188476562 898.777587890625 C 289.0130920410156 898.777587890625 288.7375793457031 898.6597900390625 288.4185791015625 898.5233764648438 C 288.1183776855469 898.39501953125 287.7448425292969 898.2352905273438 287.2535705566406 898.2352905273438 C 287.0051574707031 898.2352905273438 286.7541198730469 898.2752075195312 286.4861145019531 898.3573608398438 C 285.6046752929688 898.6275024414062 285.1032104492188 899.1339111328125 284.6607971191406 899.5806884765625 C 284.2627563476562 899.982666015625 283.8868103027344 900.3623657226562 283.1474914550781 900.700927734375 C 282.8257446289062 900.8482666015625 282.689208984375 900.874267578125 282.4413757324219 900.9215087890625 C 282.1325988769531 900.9804077148438 281.7096862792969 901.06103515625 280.9118957519531 901.3643798828125 C 280.4212646484375 901.55078125 279.9273071289062 901.762939453125 278.0316467285156 902.7996215820312 L 278.0244445800781 902.8035888671875 C 275.8271179199219 904.0053100585938 275.2976989746094 904.3008422851562 275.0148010253906 904.61279296875 C 274.3069763183594 905.3931274414062 274.1822204589844 906.0609741210938 274.0500793457031 906.76806640625 C 273.9521179199219 907.2922973632812 273.8410949707031 907.886474609375 273.4560852050781 908.800537109375 C 272.936279296875 910.0347290039062 272.3019104003906 910.9240112304688 271.498779296875 912.0499267578125 C 271.1366577148438 912.5574340820312 270.9801025390625 912.737060546875 270.7633666992188 912.9857177734375 C 270.5358581542969 913.2467651367188 270.2527160644531 913.5716552734375 269.6788024902344 914.3230590820312 C 269.2696838378906 914.8587036132812 268.9332885742188 915.3226318359375 268.6629943847656 915.6954345703125 C 268.3186340332031 916.17041015625 267.96435546875 916.6590576171875 267.76171875 916.8538818359375 C 267.7595825195312 916.8517456054688 267.7574462890625 916.8496704101562 267.75537109375 916.84765625 C 267.573486328125 916.6688842773438 267.2986450195312 916.3988037109375 266.8438720703125 916.1333618164062 C 266.0750427246094 915.6845703125 265.1572875976562 915.45703125 264.1160278320312 915.45703125 C 263.1208801269531 915.45703125 262.055419921875 915.6585083007812 260.9492797851562 916.0557861328125 C 260.1582946777344 916.33984375 259.5639953613281 916.681396484375 259.1300659179688 916.9307861328125 C 259.0505065917969 916.9765625 258.9637145996094 917.0264282226562 258.8811645507812 917.072265625 Z M 250.4330596923828 852.4608154296875 C 250.0804748535156 852.3904418945312 249.6442718505859 852.298095703125 249.1048889160156 852.1771240234375 C 248.4740447998047 852.0357666015625 247.9559936523438 851.9120483398438 247.3223876953125 851.7317504882812 C 247.1237030029297 851.67529296875 246.9233245849609 851.6182861328125 246.7311706542969 851.5626831054688 C 247.3788146972656 851.2057495117188 248.1178131103516 850.7142944335938 248.6729736328125 849.9501342773438 C 248.8109283447266 850.2901611328125 249.0598754882812 850.6179809570312 249.3527679443359 851.0037231445312 C 249.4518280029297 851.1342163085938 249.5643157958984 851.2822875976562 249.6907043457031 851.4525146484375 C 249.9464111328125 851.796875 250.2052459716797 852.1454467773438 250.4330596923828 852.4608154296875 Z" stroke="none"/>
      <path d="M 259.4629211425781 915.6093139648438 C 259.79150390625 915.44384765625 260.1715393066406 915.2725830078125 260.6112670898438 915.1146850585938 C 261.8262023925781 914.6783447265625 263.00537109375 914.45703125 264.1160583496094 914.45703125 C 265.3368225097656 914.45703125 266.4241943359375 914.73046875 267.3480529785156 915.2697143554688 C 267.4432067871094 915.3252563476562 267.5320434570312 915.3810424804688 267.614990234375 915.4363403320312 C 267.6942443847656 915.3280029296875 267.775146484375 915.2164306640625 267.8533630371094 915.1085815429688 C 268.1268920898438 914.7312622070312 268.4673461914062 914.2616577148438 268.8840942382812 913.7161254882812 C 269.4776306152344 912.93896484375 269.7725524902344 912.6005859375 270.0095520019531 912.3286743164062 C 270.2223815917969 912.0844116210938 270.3508911132812 911.93701171875 270.6846008300781 911.4692993164062 C 271.4817504882812 910.351806640625 272.0577392578125 909.5443725585938 272.5344848632812 908.4124145507812 C 272.8778381347656 907.5972290039062 272.9740295410156 907.0823364257812 273.0670776367188 906.5844116210938 C 273.2118835449219 905.8093872070312 273.3760375976562 904.9310302734375 274.2739562988281 903.9411010742188 C 274.6808471679688 903.4923706054688 275.2308044433594 903.191650390625 277.5454406738281 901.92578125 L 277.5518188476562 901.9223022460938 C 279.3398132324219 900.9444580078125 279.9454650878906 900.6618041992188 280.5564880371094 900.4296264648438 C 281.3689575195312 900.1207275390625 281.8230895996094 900.0213623046875 282.2540588378906 899.939208984375 C 282.4737854003906 899.8973388671875 282.5195007324219 899.8886108398438 282.7311401367188 899.791748046875 C 283.3045959472656 899.5291137695312 283.5754089355469 899.255615234375 283.9501953125 898.8771362304688 C 284.4232177734375 898.3993530273438 285.0710754394531 897.7451171875 286.193115234375 897.4012451171875 C 286.5574951171875 897.2896118164062 286.9043579101562 897.2353515625 287.2535705566406 897.2353515625 C 287.9495544433594 897.2353515625 288.4683532714844 897.4570922851562 288.8116455078125 897.6038208007812 C 289.0906677246094 897.7230834960938 289.2179870605469 897.7775268554688 289.5532836914062 897.777587890625 C 289.5923767089844 897.777587890625 289.6341857910156 897.776611328125 289.6775207519531 897.7747192382812 C 289.9981994628906 897.7607421875 290.8500061035156 897.7236328125 291.2962646484375 897.2511596679688 C 291.3642883300781 897.1790161132812 291.4539489746094 897.083984375 291.4859619140625 897.025146484375 C 291.4696350097656 896.9713745117188 291.4384460449219 896.8867797851562 291.4141845703125 896.8209228515625 C 291.2467956542969 896.366943359375 290.8985290527344 895.4223022460938 291.3911437988281 894.3465576171875 C 291.9100952148438 893.2139892578125 292.952880859375 892.8145141601562 294.6660766601562 892.2072143554688 C 294.6508178710938 892.0294799804688 294.6459350585938 891.83642578125 294.656982421875 891.6287231445312 C 294.6820373535156 891.15771484375 294.7765808105469 890.8333740234375 294.8817749023438 890.5604858398438 C 294.8474731445312 890.4895629882812 294.7892150878906 890.3867797851562 294.7433776855469 890.305908203125 C 294.4740905761719 889.8308715820312 293.9728393554688 888.9465942382812 294.2531433105469 887.810791015625 C 294.4238586425781 887.119140625 294.8250732421875 886.5675659179688 295.4796142578125 886.12451171875 C 295.8341674804688 885.884521484375 296.253662109375 885.6768798828125 296.888671875 885.362548828125 L 296.9154663085938 885.3493041992188 C 297.6230773925781 884.9991455078125 298.3431701660156 884.6378173828125 299.03955078125 884.2883911132812 C 299.4006958007812 884.107177734375 299.7618103027344 883.926025390625 300.1235046386719 883.7451782226562 C 300.902587890625 883.3557739257812 301.4121398925781 883.0654907226562 301.7414245605469 882.859375 C 301.7142944335938 882.4746704101562 301.7469482421875 882.119140625 301.7765197753906 881.797119140625 C 301.8186340332031 881.3387451171875 301.8663635253906 880.8191528320312 301.7833862304688 879.9913330078125 C 301.7772216796875 879.9296875 301.7721557617188 879.8843994140625 301.7672729492188 879.8477172851562 C 301.714599609375 879.5803833007812 301.658447265625 879.3186645507812 301.6094360351562 879.092041015625 C 301.6022644042969 879.0597534179688 301.594970703125 879.0262451171875 301.58740234375 878.9913940429688 L 301.5604553222656 878.8675537109375 C 301.4942626953125 878.563232421875 301.4258422851562 878.2484741210938 301.3538818359375 877.892822265625 L 301.3519287109375 877.8831787109375 C 301.2619323730469 877.4382934570312 301.1842651367188 877.0540161132812 301.1139526367188 876.6926879882812 L 301.1139526367188 876.6926879882812 C 300.6499633789062 874.3543090820312 300.5296936035156 873.6357421875 300.8275756835938 872.66259765625 C 301.0341796875 871.9871215820312 301.3360290527344 871.5328369140625 301.6441345214844 871.1556396484375 C 301.94677734375 870.6641235351562 302.3258361816406 870.1962890625 302.7742004394531 869.7607421875 C 302.7891235351562 869.7395629882812 302.8039855957031 869.71826171875 302.8189086914062 869.6967163085938 C 303.3514404296875 868.9286499023438 303.66162109375 868.3093872070312 303.9371032714844 867.7594604492188 C 304.2083435058594 867.2175903320312 304.9171142578125 865.801513671875 305.2591857910156 864.08740234375 C 305.3030700683594 862.8240356445312 305.2720031738281 861.3700561523438 305.2391967773438 859.834228515625 L 305.2387390136719 859.8135986328125 C 305.2326354980469 859.6989135742188 305.2267150878906 859.5809936523438 305.220947265625 859.4571533203125 C 305.2080688476562 859.2332763671875 305.09814453125 857.1637573242188 305.2195739746094 853.7705688476562 C 305.2616577148438 852.5921630859375 305.3453674316406 851.3897094726562 305.4684143066406 850.1966552734375 C 305.48974609375 849.9848022460938 305.5136108398438 849.7723388671875 305.5341796875 849.5923461914062 L 305.5342102050781 849.5923461914062 C 305.5397033691406 849.5432739257812 305.5456848144531 849.4934692382812 305.5516967773438 849.443603515625 L 305.5619812011719 849.3573608398438 C 305.562255859375 849.3550415039062 305.5625 849.3527221679688 305.5628051757812 849.3504028320312 C 305.5915832519531 849.1104125976562 305.6226196289062 848.8546142578125 305.657958984375 848.5963134765625 C 305.8503112792969 847.1475219726562 306.1034545898438 845.681640625 306.410400390625 844.2393188476562 C 306.4123229980469 844.2302856445312 306.414306640625 844.2212524414062 306.4163513183594 844.2122192382812 C 307.6428833007812 838.817626953125 309.9668579101562 834.7310180664062 313.323486328125 832.0659790039062 C 314.058837890625 831.4820556640625 314.5432739257812 831.20458984375 315.4227600097656 830.7009887695312 C 315.708251953125 830.5374755859375 316.0318603515625 830.3521118164062 316.435791015625 830.1159057617188 C 317.7159729003906 829.3671264648438 319.6098937988281 828.2442626953125 321.2697448730469 827.1429443359375 C 322.3752136230469 826.409423828125 323.3305969238281 825.7755126953125 324.137451171875 825.1728515625 C 324.5534362792969 824.8516845703125 324.9171447753906 824.5587158203125 325.2486572265625 824.2779541015625 C 325.780517578125 823.8129272460938 326.2469177246094 823.3421020507812 326.7152099609375 822.7976684570312 C 327.1602478027344 822.2800903320312 328.335205078125 820.91357421875 329.2964782714844 818.8945922851562 C 329.5210876464844 818.314453125 329.6736145019531 817.795654296875 329.8347778320312 817.2473754882812 C 330.0348205566406 816.56689453125 330.2413940429688 815.8642578125 330.5781555175781 815.100341796875 C 330.7945251464844 814.4511108398438 331.0819702148438 813.8718872070312 331.5009155273438 813.2381591796875 C 332.0997924804688 812.3323364257812 332.6398315429688 811.8110961914062 333.1357727050781 811.3969116210938 C 333.5300903320312 810.98974609375 333.8956909179688 810.6581420898438 334.2208557128906 810.3632202148438 C 334.3444213867188 810.2511596679688 334.4627990722656 810.1437377929688 334.5756530761719 810.0386962890625 C 334.6619262695312 809.9247436523438 334.7473754882812 809.8041381835938 334.834716796875 809.6729125976562 C 335.2635498046875 809.0291137695312 335.9812622070312 807.9515380859375 336.2520751953125 806.415283203125 C 336.3636474609375 805.7825317382812 336.3651123046875 805.2581176757812 336.3663940429688 804.79541015625 C 336.3666381835938 804.7106323242188 336.3668823242188 804.6226806640625 336.3681640625 804.5322265625 C 336.2655334472656 804.4730224609375 336.1636657714844 804.4137573242188 336.0623168945312 804.3543701171875 C 334.2290649414062 803.2802124023438 332.1724548339844 801.7577514648438 328.0752563476562 798.7245483398438 C 325.8319091796875 797.0638427734375 324.7919616699219 796.2473754882812 322.904052734375 794.76513671875 C 321.6573791503906 793.7863159179688 319.9519653320312 792.4473266601562 317.2304077148438 790.3402099609375 C 315.2925720214844 788.9612426757812 313.2658386230469 787.4747924804688 311.542236328125 785.9373779296875 C 310.3782043457031 785.0123291015625 309.9362182617188 784.5877075195312 309.2921447753906 783.8728637695312 C 305.5381469726562 779.706787109375 304.2108459472656 776.01708984375 303.0396728515625 772.76123046875 C 302.9875793457031 772.6163940429688 302.7800903320312 772.0302124023438 302.5656127929688 771.3029174804688 C 302.1518859863281 771.67236328125 301.6648864746094 772.080322265625 301.0857849121094 772.52392578125 C 300.2318115234375 773.17822265625 299.3488159179688 773.8548583984375 298.0475769042969 774.5421752929688 C 296.6674194335938 775.2711181640625 295.7760009765625 775.506103515625 295.0597839355469 775.6950073242188 C 294.4793090820312 775.8480224609375 294.1595458984375 775.9323120117188 293.6072082519531 776.2899169921875 C 293.2140502929688 776.54443359375 292.0176696777344 777.3190307617188 291.3272399902344 778.7135620117188 C 291.0683898925781 779.236328125 290.9331359863281 779.7369995117188 290.7899169921875 780.26708984375 C 290.5101013183594 781.3027954101562 290.1268615722656 782.7212524414062 288.620849609375 783.50439453125 C 287.8648376464844 783.8978271484375 287.1870422363281 783.92578125 286.4020385742188 783.9581909179688 C 286.29345703125 783.9627075195312 286.1834716796875 783.9649658203125 286.0752563476562 783.9649658203125 C 284.478271484375 783.9649658203125 283.2591552734375 783.4828491210938 282.3690490722656 783.1307983398438 C 281.671142578125 782.8547973632812 281.2922973632812 782.6133422851562 280.9641418457031 782.3896484375 C 280.9258117675781 782.363525390625 280.874267578125 782.3284301757812 280.8536071777344 782.3160400390625 C 280.8441467285156 782.3123168945312 280.8141479492188 782.30126953125 280.7534790039062 782.28515625 C 280.5303344726562 782.225830078125 280.3486633300781 782.2081298828125 280.1383361816406 782.1875610351562 C 279.6431579589844 782.13916015625 278.8143920898438 782.0581665039062 278.0616455078125 781.3516845703125 C 277.3682861328125 780.701171875 277.2452392578125 780.0056762695312 277.0894775390625 779.125244140625 C 277.0650024414062 778.9869384765625 277.0370178222656 778.8285522460938 277.0035400390625 778.64599609375 C 276.8075866699219 777.5770874023438 276.65283203125 776.7328491210938 276.5061950683594 776.4500122070312 C 276.41748046875 776.2788696289062 276.3838500976562 776.2452392578125 276.2840270996094 776.1454467773438 C 276.0353393554688 775.8969116210938 275.5724487304688 775.4342651367188 275.3988342285156 774.5277099609375 C 275.1947021484375 773.4614868164062 275.5540161132812 772.700439453125 275.8427124023438 772.0888671875 C 276.0021667480469 771.7511596679688 276.182861328125 771.3683471679688 276.3843383789062 770.7636108398438 C 276.4010009765625 770.7135620117188 276.4163513183594 770.6663208007812 276.4304809570312 770.6217651367188 C 276.146728515625 770.7291870117188 275.823486328125 770.9285888671875 275.6575317382812 771.0309448242188 C 275.4190063476562 771.1781005859375 275.3215026855469 771.2716064453125 275.1739196777344 771.4131469726562 C 274.8937377929688 771.6818237304688 274.4703063964844 772.087890625 273.6467895507812 772.36962890625 C 273.1890869140625 772.526123046875 272.759521484375 772.5989990234375 272.2951354980469 772.5989990234375 C 272.1551208496094 772.5989990234375 272.0358581542969 772.592529296875 271.9400329589844 772.5873413085938 C 271.931640625 772.5868530273438 271.9232177734375 772.58642578125 271.9148559570312 772.5859985351562 C 271.9080810546875 772.5951538085938 271.9014282226562 772.6041870117188 271.895263671875 772.6126098632812 C 271.6540832519531 772.9409790039062 271.2504272460938 773.4905395507812 270.4187316894531 773.8885498046875 C 269.9176940917969 774.1285400390625 269.3877868652344 774.2501831054688 268.843994140625 774.2501831054688 C 268.3164367675781 774.2501831054688 267.8753356933594 774.1376953125 267.5391235351562 774.0431518554688 C 267.3433837890625 774.4292602539062 267.0525207519531 774.9522094726562 266.5390625 775.6109619140625 C 265.5995178222656 776.8165283203125 264.7881164550781 777.8577270507812 263.3149108886719 778.1739501953125 C 263.0635375976562 778.2279052734375 262.8099060058594 778.2552490234375 262.5610961914062 778.2552490234375 C 261.6293334960938 778.25537109375 260.9474792480469 777.8897705078125 260.3995971679688 777.5960083007812 C 259.9520568847656 777.3560791015625 259.5655822753906 777.1488647460938 258.9103393554688 777.046142578125 C 258.7773132324219 777.0252685546875 258.6412658691406 777.016357421875 258.4554748535156 777.016357421875 C 258.1715087890625 777.016357421875 257.7942810058594 777.0374755859375 257.2727355957031 777.0667724609375 C 257.2297973632812 777.0697631835938 256.2902221679688 777.1383666992188 253.9027099609375 777.5515747070312 C 253.2548065185547 778.5712280273438 252.4567260742188 778.957275390625 251.8355407714844 779.0918579101562 C 251.6366577148438 779.1348876953125 251.4335632324219 779.15673828125 251.2319641113281 779.15673828125 C 249.9529418945312 779.1567993164062 249.1177062988281 778.3299560546875 248.5650177001953 777.7827758789062 C 248.4507598876953 777.669677734375 248.2996978759766 777.5201416015625 248.1740112304688 777.4121704101562 C 248.0200042724609 777.5369873046875 247.8285980224609 777.6995849609375 247.650634765625 777.8507080078125 C 247.2052764892578 778.2290649414062 246.5953521728516 778.7471313476562 245.7511596679688 779.4042358398438 C 243.9813995361328 780.7820434570312 243.0065155029297 781.541015625 241.7727966308594 781.9979858398438 C 241.0266418457031 782.2745361328125 239.8350219726562 782.604248046875 238.3952941894531 782.604248046875 C 237.5719604492188 782.604248046875 236.7539672851562 782.4962768554688 235.9638671875 782.2833251953125 C 234.7319793701172 781.9511108398438 234.015869140625 781.3123168945312 233.5418548583984 780.8890991210938 C 233.2077941894531 781.1235961914062 232.7255859375 781.4326171875 231.9557037353516 781.745849609375 C 231.3229217529297 782.0030517578125 230.9576416015625 782.0703735351562 230.4046783447266 782.1722412109375 C 230.0373687744141 782.2399291992188 229.5343475341797 782.3326416015625 228.6621551513672 782.53173828125 C 228.3268280029297 782.6082763671875 228.2187957763672 782.6361083984375 227.8981628417969 782.7186279296875 C 227.5843048095703 782.7994384765625 227.0589904785156 782.9346923828125 225.9435119628906 783.2119140625 C 223.360107421875 783.8538818359375 223.0579223632812 783.9051513671875 222.7090454101562 783.9462280273438 C 222.2809143066406 783.9965209960938 221.8436126708984 784.0220336914062 221.4092559814453 784.0220336914062 C 220.1558227539062 784.0220336914062 219.199951171875 783.8135986328125 218.7405700683594 783.7134399414062 C 218.6974487304688 783.7040405273438 218.6596374511719 783.6957397460938 218.6270599365234 783.6890258789062 C 218.3865356445312 783.6394653320312 218.0840148925781 783.6143188476562 217.7279205322266 783.6143188476562 C 216.4990539550781 783.6143188476562 214.7762603759766 783.91015625 212.7240905761719 784.4650268554688 C 213.2660369873047 784.7094116210938 213.9416198730469 785.0216674804688 214.8081359863281 785.422119140625 L 214.8176116943359 785.426513671875 C 217.618896484375 786.7213745117188 218.8973999023438 787.3123168945312 219.7148895263672 788.0843505859375 C 220.8157348632812 789.1236572265625 221.2167053222656 790.0363159179688 221.5388946533203 790.7697143554688 C 221.8104400634766 791.3878173828125 221.9898529052734 791.7962036132812 222.6787261962891 792.4276123046875 C 223.4141387939453 793.1016235351562 224.2021331787109 793.5287475585938 225.0363006591797 793.9808959960938 C 226.0479888916016 794.529296875 226.5954895019531 794.6963500976562 227.035400390625 794.8306274414062 C 227.6109619140625 795.00634765625 228.3272705078125 795.2249145507812 229.0315856933594 796.0278930664062 C 230.3739166259766 797.55810546875 230.2220458984375 799.4191284179688 230.1215209960938 800.6505737304688 C 230.1011810302734 800.8998413085938 230.0737915039062 801.2352905273438 230.073486328125 801.4801635742188 C 230.1135101318359 801.4812622070312 230.1531677246094 801.482177734375 230.1893768310547 801.4829711914062 C 230.8893280029297 801.4984130859375 232.1921997070312 801.5272827148438 233.1938171386719 802.7210083007812 C 233.9940795898438 803.6744995117188 233.9977722167969 804.6795043945312 233.999755859375 805.2194213867188 C 233.9997711181641 805.225341796875 233.9998016357422 805.2313842773438 233.9998168945312 805.237548828125 C 234.017822265625 805.241455078125 234.0353851318359 805.2452392578125 234.0519866943359 805.248779296875 C 234.6338195800781 805.3733520507812 235.6076049804688 805.5819091796875 236.5221557617188 806.4979248046875 C 237.7259216308594 807.703857421875 237.984375 809.2801513671875 238.0250701904297 810.1781616210938 C 238.9913940429688 810.482666015625 239.6488494873047 811.2809448242188 240.5547943115234 812.3809204101562 C 242.0437774658203 814.1892700195312 242.7233734130859 815.0146484375 243.0882720947266 815.7275390625 C 243.7322235107422 816.9856567382812 244.7053680419922 818.8869018554688 243.7891082763672 820.7394409179688 C 243.4908294677734 821.3425903320312 243.1082153320312 821.6767578125 242.9009399414062 821.8570556640625 C 242.902587890625 821.8963012695312 242.9053192138672 821.9436645507812 242.9075622558594 821.9827880859375 C 242.9274749755859 822.328369140625 242.9575347900391 822.8505859375 242.7925872802734 823.5358276367188 C 242.7862243652344 823.5623168945312 242.7796630859375 823.5885620117188 242.77294921875 823.6146240234375 C 242.8223114013672 823.597412109375 242.8714752197266 823.579345703125 242.9219512939453 823.560791015625 C 243.2060699462891 823.4564819335938 243.5951538085938 823.3136596679688 244.0846405029297 823.3136596679688 C 244.4797973632812 823.3136596679688 244.8586273193359 823.4058227539062 245.2108001708984 823.5877075195312 C 245.6228790283203 823.8005981445312 246.3444213867188 824.3274536132812 246.5470428466797 825.4642944335938 C 246.6197509765625 825.8722534179688 246.6089477539062 826.2682495117188 246.5993957519531 826.61767578125 C 246.5904235839844 826.9459228515625 246.5811614990234 827.2853393554688 246.6471557617188 827.4808959960938 C 246.7594146728516 827.8134765625 247.4841156005859 828.110107421875 248.1234893798828 828.371826171875 C 248.6283721923828 828.5784912109375 249.1504211425781 828.7921752929688 249.6273651123047 829.1060180664062 C 250.662109375 829.7868041992188 250.9941558837891 830.6472778320312 251.0904846191406 831.2492065429688 C 251.192626953125 831.88720703125 251.1310882568359 832.8663940429688 250.2579650878906 833.9080810546875 C 249.8547821044922 834.3890991210938 249.3680114746094 834.7894287109375 248.8972473144531 835.176513671875 C 248.6599273681641 835.3717041015625 248.31396484375 835.6561889648438 248.0823364257812 835.8878173828125 C 248.4490356445312 836.2822265625 248.9394836425781 836.8934326171875 249.3612365722656 837.9324951171875 C 249.9634399414062 839.4161376953125 250.0206756591797 840.7337036132812 249.9625854492188 841.5789184570312 C 249.9134368896484 842.2915649414062 249.8531494140625 843.1663208007812 249.3346405029297 844.1137084960938 C 249.3534240722656 844.1318969726562 249.3721923828125 844.1504516601562 249.3908233642578 844.1693115234375 C 249.9641723632812 844.750244140625 250.3308868408203 845.5199584960938 250.4669799804688 846.4185180664062 C 250.8719024658203 846.3106079101562 251.2909393310547 846.224853515625 251.7019653320312 846.1406860351562 C 252.4564208984375 845.986328125 253.0523223876953 845.8644409179688 253.6392517089844 845.8644409179688 C 254.4340667724609 845.8644409179688 255.1195831298828 846.0994262695312 255.6766052246094 846.5628051757812 C 255.8474273681641 846.7048950195312 256.0048217773438 846.8760986328125 256.1581115722656 847.1278686523438 C 256.6326599121094 846.7959594726562 257.2344970703125 846.5487060546875 257.9607543945312 846.38818359375 C 258.8330688476562 846.1954345703125 259.7892761230469 846.142333984375 260.487548828125 846.103515625 C 260.9869079589844 846.0758056640625 261.5032653808594 846.0471801757812 262.0407104492188 846.0471801757812 C 263.088623046875 846.0471801757812 264.6748046875 846.1474609375 266.3436279296875 847.014892578125 C 267.1531066894531 847.4357299804688 267.8269348144531 848.0393676757812 269.05224609375 849.1370849609375 C 270.0319519042969 850.0148315429688 270.6207580566406 850.640380859375 271.0507202148438 851.0971069335938 C 271.568359375 851.6470336914062 271.5772094726562 851.6495971679688 271.72509765625 851.6929321289062 C 271.8918762207031 851.7418212890625 272.0127563476562 851.7500610351562 272.2206726074219 851.7500610351562 C 272.3183898925781 851.7501220703125 272.413818359375 851.7486572265625 272.5093383789062 851.7485961914062 C 273.1515197753906 851.7485961914062 273.8734130859375 851.8128051757812 274.8004150390625 852.2764282226562 C 274.8340454101562 852.2118530273438 274.8698425292969 852.1473388671875 274.9080505371094 852.0833129882812 C 275.4605407714844 851.1572265625 276.2122192382812 850.8370971679688 276.7461853027344 850.7315063476562 C 276.9151000976562 850.6981201171875 277.0891418457031 850.6812133789062 277.2635498046875 850.6812133789062 C 278.3351440429688 850.6812133789062 279.3714294433594 851.3160400390625 279.8419799804688 852.2603149414062 C 280.3299560546875 853.2388916015625 280.0623474121094 854.1032104492188 279.8115234375 854.6376342773438 C 279.8445739746094 854.6626586914062 279.8772888183594 854.6873168945312 279.9088134765625 854.7110595703125 C 280.1889343261719 854.9222412109375 280.5375671386719 855.1849975585938 280.9405517578125 855.5209350585938 C 282.5913696289062 856.8973999023438 283.2890319824219 857.5131225585938 283.5860595703125 858.3619995117188 C 283.7002563476562 858.350341796875 283.8162536621094 858.3444213867188 283.9336242675781 858.3444213867188 C 285.09619140625 858.3444213867188 286.2088317871094 858.9103393554688 286.9375 859.385009765625 C 287.8434753417969 859.9752197265625 288.6854553222656 860.7664184570312 289.308349609375 861.61279296875 C 289.8800964355469 862.3895263671875 290.8400573730469 864.0232543945312 290.845947265625 866.2379150390625 C 290.8506469726562 868.0404052734375 290.1915283203125 869.9196166992188 288.9900512695312 871.5294799804688 C 288.302490234375 872.45068359375 287.4894104003906 873.2098388671875 286.6656188964844 873.720947265625 C 286.9210815429688 874.2907104492188 287.155029296875 875.00244140625 287.1710815429688 875.8508911132812 C 287.2001953125 877.3929443359375 286.5083618164062 878.472900390625 285.7074279785156 879.72314453125 C 285.373046875 880.2453002929688 284.6772155761719 881.3317260742188 283.3940734863281 882.3052368164062 C 282.5840454101562 882.9197998046875 281.2282409667969 883.9483032226562 279.6807861328125 883.9483642578125 C 279.2530822753906 883.9483642578125 278.84130859375 883.870361328125 278.4568481445312 883.7163696289062 C 278.2574462890625 883.636474609375 278.0749816894531 883.541259765625 277.9078674316406 883.4339599609375 C 277.9049682617188 883.4362182617188 277.9021301269531 883.4384155273438 277.8992309570312 883.440673828125 C 277.3660278320312 883.8538208007812 276.7490844726562 884.0633544921875 276.0655517578125 884.0634155273438 C 275.3230285644531 884.0634765625 274.6293334960938 883.8370361328125 273.3700256347656 883.4259643554688 C 272.7110900878906 883.2108764648438 271.8910217285156 882.9431762695312 270.8274536132812 882.6300659179688 C 270.3489685058594 882.4891967773438 269.9372253417969 882.3733520507812 269.5739440917969 882.2711181640625 C 267.8748168945312 881.79296875 266.8492431640625 881.5043334960938 265.9277648925781 880.3551025390625 C 265.3833312988281 879.6762084960938 265.1554565429688 879.0406494140625 265.0046691894531 878.6201782226562 C 264.9981079101562 878.6019287109375 264.9911193847656 878.5823974609375 264.9839172363281 878.5624389648438 C 264.8528747558594 878.56298828125 264.6858215332031 878.56494140625 264.4936218261719 878.5680541992188 C 264.2238159179688 878.5724487304688 263.8880004882812 878.5779418945312 263.4828796386719 878.5779418945312 L 263.3482971191406 878.5777587890625 C 262.5927124023438 878.5755004882812 262.0328674316406 878.5545654296875 261.6151733398438 878.5314331054688 C 261.7858581542969 878.599365234375 261.9508972167969 878.6826171875 262.1099243164062 878.781005859375 C 263.7670593261719 879.8062133789062 264.1019897460938 882.0917358398438 263.6988830566406 883.9017944335938 C 263.3467102050781 885.4841918945312 262.5482177734375 886.624267578125 261.3259887695312 887.2902221679688 C 260.6379089355469 887.665283203125 259.8549194335938 887.8635864257812 259.0615539550781 887.8636474609375 C 258.2298583984375 887.8636474609375 257.4402770996094 887.6436157226562 256.7783813476562 887.2275390625 C 256.5032348632812 887.0546875 256.2736511230469 886.8611450195312 256.0809020996094 886.6604614257812 C 256.0451354980469 886.6856079101562 256.0086364746094 886.710693359375 255.9713287353516 886.7357788085938 C 255.7399139404297 886.8910522460938 255.521484375 887.0148315429688 255.3190002441406 887.1148681640625 C 255.5516510009766 887.7463989257812 255.7132873535156 888.5903930664062 255.3242950439453 889.5208740234375 C 254.9097290039062 890.5123901367188 254.1025085449219 890.9801635742188 251.722900390625 891.97314453125 C 251.6513061523438 892.0029907226562 251.5820770263672 892.03173828125 251.51513671875 892.0593872070312 C 251.5466918945312 892.1215209960938 251.5784149169922 892.1859741210938 251.6102600097656 892.2528076171875 C 252.0035705566406 893.07861328125 252.1400299072266 893.6985473632812 252.2194519042969 894.1381225585938 C 252.7367401123047 894.2208862304688 253.7138824462891 894.4111328125 254.4170379638672 895.3944091796875 C 255.4381408691406 896.8225708007812 255.1702728271484 899.048828125 253.8433990478516 900.158935546875 C 253.3544158935547 900.5678100585938 252.7545166015625 900.7838745117188 252.1087493896484 900.7838745117188 C 251.7633056640625 900.783935546875 251.4619750976562 900.7235717773438 251.2198181152344 900.675048828125 C 251.0148010253906 900.6339721679688 250.8528442382812 900.6015625 250.6711883544922 900.6015625 C 250.6107482910156 900.6015625 250.5504608154297 900.6050415039062 250.4868927001953 900.6121826171875 C 250.4807586669922 900.6128540039062 250.4753570556641 900.6134643554688 250.4706420898438 900.6140747070312 C 250.40869140625 900.64013671875 250.2857818603516 900.6976318359375 250.1753997802734 900.749267578125 C 249.8855590820312 900.884765625 249.4475555419922 901.089599609375 248.7443237304688 901.3861083984375 C 248.7435760498047 901.386474609375 248.7428436279297 901.3867797851562 248.7420959472656 901.3870849609375 C 249.1128845214844 901.7918701171875 249.2225799560547 902.250244140625 249.2535552978516 902.4443359375 C 249.3452301025391 903.0208740234375 249.1912231445312 903.59765625 248.8199615478516 904.0684814453125 C 247.9394989013672 905.1851806640625 245.2004852294922 905.9641723632812 243.0703430175781 906.1301879882812 C 242.2965698242188 906.1904907226562 242.2630920410156 906.2117919921875 242.1523284912109 906.2823486328125 C 241.9702301025391 906.3983764648438 241.8139953613281 906.6160278320312 241.737548828125 906.833984375 C 241.8861083984375 906.8905639648438 242.0289764404297 906.9628295898438 242.1640319824219 907.0501098632812 C 242.7873077392578 907.4533081054688 243.1637115478516 908.1040649414062 243.2239227294922 908.8825073242188 C 243.2274932861328 908.9286499023438 243.2298736572266 908.9740600585938 243.2312469482422 909.0186767578125 C 243.3464202880859 909.0223388671875 243.4750823974609 909.02490234375 243.6184387207031 909.0259399414062 C 244.6167602539062 909.0345458984375 245.3972320556641 908.9234008789062 246.0511779785156 908.8202514648438 C 248.070068359375 908.501220703125 249.6647033691406 908.2492065429688 250.0925445556641 907.9710083007812 C 250.4166107177734 907.7604370117188 250.6413421630859 907.5494995117188 250.8793029785156 907.3262329101562 C 251.3343963623047 906.899169921875 252.0221557617188 906.2538452148438 253.1070404052734 906.2538452148438 C 253.2997131347656 906.2538452148438 253.4945220947266 906.2755737304688 253.6850891113281 906.3181762695312 C 254.7864685058594 906.5640258789062 255.3646697998047 907.3596801757812 255.7053527832031 907.982177734375 C 255.94287109375 907.8992919921875 256.2186279296875 907.8396606445312 256.5283508300781 907.8396606445312 C 256.8862915039062 907.8396606445312 257.2321472167969 907.9181518554688 257.5564575195312 908.0730590820312 C 258.0868835449219 908.3264770507812 258.9924011230469 909.0066528320312 259.0971069335938 910.7146606445312 C 259.1382446289062 911.3853759765625 259.0536193847656 912.1649780273438 258.8588562011719 912.9097900390625 C 258.7251586914062 913.4210815429688 258.5248718261719 913.8548583984375 258.3022155761719 914.220703125 C 258.4942932128906 914.3648681640625 258.6854553222656 914.5358276367188 258.8691101074219 914.7396850585938 C 259.1304626464844 915.02978515625 259.3214416503906 915.3257446289062 259.4629211425781 915.6093139648438 M 258.6018981933594 918.2269287109375 C 258.4979248046875 918.2269287109375 258.3991394042969 918.2017211914062 258.3018188476562 918.145263671875 C 257.72216796875 917.8087158203125 258.1298217773438 916.9071044921875 257.3832092285156 916.078369140625 C 256.588623046875 915.1962890625 255.4867248535156 915.5079345703125 255.3162994384766 914.9300537109375 C 255.1328277587891 914.3079833984375 256.5210876464844 913.9443359375 256.9238891601562 912.40380859375 C 257.1985778808594 911.3533935546875 257.1976318359375 910.1181640625 256.6942443847656 909.877685546875 C 256.2689208984375 909.6746215820312 255.8623962402344 910.352783203125 255.2485504150391 910.3527221679688 C 255.1961669921875 910.3527221679688 255.1421966552734 910.3477783203125 255.0866546630859 910.3369140625 C 254.12255859375 910.148681640625 254.1255340576172 908.4656982421875 253.2494201660156 908.2701416015625 C 252.6325988769531 908.1318359375 252.3466339111328 908.8912963867188 251.1825103759766 909.64794921875 C 250.3973541259766 910.158447265625 249.0513305664062 910.3709716796875 246.3597717285156 910.7962646484375 C 245.6556396484375 910.9072875976562 244.7606048583984 911.0339965820312 243.6039123535156 911.02587890625 C 241.7708282470703 911.0125732421875 241.4453887939453 910.7738037109375 241.307373046875 910.566650390625 C 240.9068756103516 909.965576171875 241.4881134033203 908.994873046875 241.0777130126953 908.7293701171875 C 240.9222869873047 908.6288452148438 240.773681640625 908.7260131835938 240.5765991210938 908.72607421875 C 240.5174102783203 908.72607421875 240.4537963867188 908.71728515625 240.3843688964844 908.6917724609375 C 239.8297576904297 908.488037109375 239.7160797119141 907.51611328125 239.6997833251953 907.3514404296875 C 239.5955200195312 906.3023681640625 240.1742553710938 905.171142578125 241.0777130126953 904.5955810546875 C 241.5792846679688 904.276123046875 241.9122467041016 904.21435546875 242.9149627685547 904.13623046875 C 245.3784484863281 903.9442138671875 247.3167572021484 902.999755859375 247.2783660888672 902.75830078125 C 247.2618560791016 902.65478515625 246.8881988525391 902.72509765625 246.4302825927734 902.409912109375 C 246.1808776855469 902.2384033203125 246.0393981933594 902.03466796875 245.9004364013672 901.8397216796875 C 245.6117706298828 901.4345703125 245.4228057861328 901.16943359375 245.441162109375 900.921142578125 C 245.4751586914062 900.4625244140625 246.2008666992188 900.2879638671875 247.9673767089844 899.543212890625 C 249.7010192871094 898.8121337890625 249.6936798095703 898.6885986328125 250.2639007568359 898.6246337890625 C 251.1582489013672 898.524169921875 251.6924133300781 898.7839965820312 252.1084747314453 898.7838745117188 C 252.2725677490234 898.7838745117188 252.4183349609375 898.7434692382812 252.5604705810547 898.6246337890625 C 253.08544921875 898.1854248046875 253.2113037109375 897.146728515625 252.7901153564453 896.5576171875 C 252.3025665283203 895.8758544921875 251.4702758789062 896.3389892578125 250.7232055664062 895.6390380859375 C 250.0987701416016 895.0538330078125 250.4898681640625 894.5516357421875 249.8045806884766 893.11279296875 C 249.257080078125 891.96337890625 248.7502593994141 891.7442626953125 248.885986328125 891.275634765625 C 249.0037994384766 890.86865234375 249.4380645751953 890.75927734375 250.9528503417969 890.1273193359375 C 253.240234375 889.1728515625 253.4023742675781 888.932861328125 253.4790802001953 888.7493896484375 C 253.8844146728516 887.77978515625 252.5558776855469 886.8262939453125 253.019775390625 885.9935302734375 C 253.3040924072266 885.4835205078125 253.8545684814453 885.74755859375 254.8569946289062 885.074951171875 C 255.8845062255859 884.38525390625 256.0009765625 883.6414794921875 256.464599609375 883.697021484375 C 257.0426025390625 883.765380859375 256.901611328125 884.94287109375 257.842529296875 885.5341796875 C 258.5686950683594 885.9906616210938 259.5950927734375 885.9559326171875 260.3687133789062 885.5341796875 C 261.4132080078125 884.965087890625 261.6554870605469 883.8768310546875 261.7466430664062 883.46728515625 C 261.9515075683594 882.54736328125 261.9163818359375 881.0130615234375 261.0576782226562 880.4818115234375 C 260.1790771484375 879.9381713867188 259.0590209960938 880.8279418945312 258.3985900878906 880.8279418945312 C 258.2709350585938 880.8279418945312 258.1604309082031 880.794677734375 258.0721740722656 880.71142578125 C 257.4420166015625 880.11669921875 258.3206481933594 877.3233642578125 260.1390380859375 876.5777587890625 C 260.7232666015625 876.338134765625 260.7697448730469 876.570068359375 263.354248046875 876.5777587890625 C 264.0938415527344 876.5806884765625 264.5977478027344 876.5625 264.9700317382812 876.5624389648438 C 265.5296020507812 876.5624389648438 265.7919311523438 876.6019897460938 266.1100769042969 876.807373046875 C 266.9722290039062 877.36376953125 266.7313232421875 878.1602783203125 267.488037109375 879.1038818359375 C 268.1294555664062 879.90380859375 268.7963562011719 879.9473876953125 271.3921508789062 880.71142578125 C 275.2040405273438 881.8336181640625 275.9859924316406 882.39306640625 276.6741943359375 881.8597412109375 C 277.6389770507812 881.1121826171875 277.2341003417969 879.124755859375 277.5928344726562 879.1038818359375 C 278.0131225585938 879.0816040039062 277.9956665039062 881.377197265625 279.200439453125 881.8597412109375 C 280.1642150878906 882.2457275390625 281.4354248046875 881.2808227539062 282.1859130859375 880.71142578125 C 283.1644897460938 879.968994140625 283.697998046875 879.15234375 284.023193359375 878.64453125 C 284.7371826171875 877.530029296875 285.1891174316406 876.8243408203125 285.1714477539062 875.888671875 C 285.1416015625 874.3118896484375 283.8006286621094 873.2998046875 284.2528381347656 872.673583984375 C 284.3961181640625 872.47509765625 284.634521484375 872.4327392578125 284.7631225585938 872.40185546875 C 286.3089599609375 872.031005859375 288.8539428710938 869.309326171875 288.845947265625 866.2431640625 C 288.8411254882812 864.4287109375 287.944091796875 863.1331787109375 287.6976318359375 862.79833984375 C 286.4816284179688 861.1461181640625 284.268310546875 859.8900146484375 283.334228515625 860.5018310546875 C 282.7166748046875 860.90625 283.0910034179688 861.843994140625 282.1859130859375 863.028076171875 C 281.7401733398438 863.611328125 281.2055358886719 863.964599609375 280.8079833984375 864.1763916015625 C 280.77099609375 863.6083984375 280.7680358886719 862.7039794921875 281.0376586914062 861.650146484375 C 281.394287109375 860.255859375 281.8986206054688 859.8876953125 281.7266235351562 859.1239013671875 C 281.6588745117188 858.8233642578125 281.4850463867188 858.5789794921875 279.6597290039062 857.0570068359375 C 278.3658447265625 855.9783935546875 277.6546020507812 855.705078125 277.5928344726562 854.9901123046875 C 277.5244140625 854.1966552734375 278.3295593261719 853.7091064453125 278.0521545410156 853.15283203125 C 277.9021606445312 852.8517456054688 277.4817810058594 852.6246948242188 277.133544921875 852.693603515625 C 276.25830078125 852.86669921875 276.3623657226562 854.8050537109375 275.5259399414062 854.9901123046875 C 275.0607604980469 855.093505859375 274.8385620117188 854.5358276367188 273.9183654785156 854.071533203125 C 273.19775390625 853.7079467773438 272.7402954101562 853.75 272.2206726074219 853.7500610351562 C 271.9124450683594 853.7500610351562 271.5823059082031 853.7352294921875 271.1624755859375 853.6121826171875 C 270.03466796875 853.28173828125 270.0146789550781 852.6846923828125 267.7176513671875 850.626708984375 C 266.5772094726562 849.60498046875 266.0069580078125 849.093994140625 265.421142578125 848.7894287109375 C 263.7581787109375 847.925048828125 262.181396484375 848.0125732421875 260.598388671875 848.1004638671875 C 259.2863464355469 848.17333984375 257.2523193359375 848.2864990234375 256.9238891601562 849.248779296875 C 256.7296142578125 849.8184814453125 257.2621765136719 850.3072509765625 256.9238891601562 850.8563232421875 C 256.6799926757812 851.2520141601562 256.0389709472656 851.5894165039062 255.5459747314453 851.315673828125 C 255.1923065185547 851.1192626953125 254.9996032714844 850.6551513671875 255.0866546630859 850.1673583984375 C 254.6542358398438 848.3138427734375 254.3976745605469 848.1004638671875 254.3976745605469 848.1004638671875 C 253.9441680908203 847.72314453125 253.2999572753906 847.8552856445312 252.1011352539062 848.1004638671875 C 250.9124450683594 848.34375 249.7345581054688 848.5848388671875 249.574951171875 849.248779296875 C 249.4876861572266 849.61181640625 249.7607574462891 849.8695068359375 250.4935455322266 850.8563232421875 C 251.7012939453125 852.4827880859375 252.3052978515625 853.2960205078125 252.1011352539062 853.6121826171875 C 252.0457763671875 853.6980590820312 251.8837432861328 853.8253784179688 248.885986328125 853.15283203125 C 248.2385559082031 853.0078125 247.7064971923828 852.8807373046875 247.0487365722656 852.693603515625 C 245.5525360107422 852.26806640625 244.8045654296875 852.05517578125 244.7521820068359 851.77490234375 C 244.6201171875 851.068603515625 247.2820587158203 850.8145751953125 248.197021484375 848.7894287109375 C 248.6519622802734 847.7822265625 248.6891632080078 846.3055419921875 247.9673767089844 845.57421875 C 247.3594512939453 844.95849609375 246.4300689697266 845.09130859375 246.3597717285156 844.6556396484375 C 246.2982330322266 844.275146484375 246.9972991943359 844.108154296875 247.508056640625 843.2777099609375 C 247.8828430175781 842.668212890625 247.9232482910156 842.080322265625 247.9673767089844 841.4405517578125 C 247.9949035644531 841.0401611328125 248.0272827148438 839.9638671875 247.508056640625 838.6846923828125 C 246.8195343017578 836.9884033203125 246.0141296386719 837.036376953125 245.9004364013672 836.158447265625 C 245.6528778076172 834.2445068359375 249.3652801513672 833.1248779296875 249.1156311035156 831.5653076171875 C 248.8816375732422 830.1033935546875 245.4987945556641 830.33251953125 244.7521820068359 828.1204833984375 C 244.3553314208984 826.9449462890625 244.9065093994141 825.681640625 244.2928771972656 825.3646240234375 C 244.0046539306641 825.2157592773438 243.7453460693359 825.4234619140625 243.1446075439453 825.5943603515625 C 241.7118530273438 826.001953125 239.8933563232422 825.7593383789062 239.6997833251953 825.135009765625 C 239.5574035644531 824.6759033203125 240.5419158935547 824.3408203125 240.8480377197266 823.068115234375 C 241.0632476806641 822.174072265625 240.7088775634766 821.793212890625 241.0777130126953 821.001220703125 C 241.3849945068359 820.3416748046875 241.7354431152344 820.3804931640625 241.9963226318359 819.8529052734375 C 242.4666595458984 818.9019775390625 241.8553314208984 817.708251953125 241.307373046875 816.6376953125 C 241.0466766357422 816.12841796875 240.3644256591797 815.296142578125 239.0108184814453 813.6522216796875 C 237.9925079345703 812.415771484375 237.6730804443359 812.0704345703125 237.1736145019531 812.044677734375 C 236.2974090576172 811.99951171875 235.6329956054688 812.9783325195312 235.3826904296875 812.978271484375 C 235.3651885986328 812.978271484375 235.3497009277344 812.9735107421875 235.3363189697266 812.9632568359375 C 235.1431884765625 812.8154296875 235.9325408935547 811.9482421875 236.0253295898438 810.666748046875 C 236.0354156494141 810.526123046875 236.1281890869141 808.9342041015625 235.106689453125 807.910888671875 C 234.1113433837891 806.9139404296875 233.0818176269531 807.481201171875 232.350830078125 806.532958984375 C 231.6593475341797 805.635986328125 232.3358917236328 804.809814453125 231.661865234375 804.0067138671875 C 230.8633422851562 803.0550537109375 229.6255187988281 803.8714599609375 228.6763458251953 803.088134765625 C 227.2226409912109 801.888671875 229.0647125244141 799.0985107421875 227.5280914306641 797.3468017578125 C 226.8673553466797 796.593505859375 226.4507598876953 797.0224609375 224.083251953125 795.7392578125 C 223.2041320800781 795.2626953125 222.2444000244141 794.742431640625 221.327392578125 793.9019775390625 C 219.4042816162109 792.1393432617188 220.0195159912109 791.1224365234375 218.3419036865234 789.53857421875 C 217.7732543945312 789.0015869140625 216.5005187988281 788.40771484375 213.9784393310547 787.241943359375 C 211.8890380859375 786.2762451171875 210.8443450927734 785.7932739257812 210.3039703369141 785.6343994140625 C 206.3941955566406 784.484619140625 202.9493408203125 786.3405151367188 202.5358276367188 786.3404541015625 C 202.5133972167969 786.3404541015625 202.4998931884766 786.3350219726562 202.4957122802734 786.3233032226562 C 202.3505706787109 785.917236328125 214.4468841552734 780.7855224609375 219.0308532714844 781.730224609375 C 219.4711303710938 781.8209838867188 220.7735443115234 782.1597900390625 222.4756622314453 781.9598999023438 C 222.7002716064453 781.9334716796875 222.9448547363281 781.896240234375 225.461181640625 781.2709350585938 C 227.7003173828125 780.7144775390625 227.5005187988281 780.7454833984375 228.217041015625 780.5819091796875 C 230.361328125 780.0923461914062 230.4304504394531 780.2069091796875 231.2025604248047 779.89306640625 C 232.6574249267578 779.3011474609375 232.6783294677734 778.78515625 233.4991149902344 778.7447509765625 C 234.6844329833984 778.6849365234375 234.8878173828125 779.9216918945312 236.4846038818359 780.352294921875 C 238.5632019042969 780.9126586914062 240.3205261230469 780.4033813476562 241.0777130126953 780.1226806640625 C 242.0213775634766 779.7731323242188 242.855224609375 779.1241455078125 244.5225372314453 777.8261108398438 C 247.0397644042969 775.86669921875 247.3333282470703 775.2410888671875 248.197021484375 775.2999267578125 C 249.6897888183594 775.4019165039062 250.3224487304688 777.3728637695312 251.4121856689453 777.1371459960938 C 252.009033203125 777.0078735351562 252.3620452880859 776.2984619140625 252.5604705810547 775.7591552734375 C 255.9636993408203 775.1370849609375 257.153564453125 775.0703125 257.153564453125 775.0703125 C 258.1684265136719 775.0133056640625 258.67578125 774.9848022460938 259.220458984375 775.0703125 C 261.260009765625 775.39013671875 261.7402038574219 776.4668579101562 262.8949584960938 776.218505859375 C 263.6575927734375 776.0548095703125 264.1391906738281 775.436767578125 264.9617919921875 774.3812255859375 C 266.0434875488281 772.9934692382812 265.8524169921875 772.4296875 266.5693969726562 772.084716796875 C 267.3980102539062 771.6861572265625 268.0460205078125 772.2501831054688 268.8438110351562 772.2501831054688 C 269.0667419433594 772.2501220703125 269.3014526367188 772.2061157226562 269.554931640625 772.084716796875 C 270.3619384765625 771.698486328125 270.2402038574219 771.0643310546875 271.1624755859375 770.706787109375 C 271.6484985351562 770.5184326171875 271.9282531738281 770.5989990234375 272.2948608398438 770.5989990234375 C 272.4903259277344 770.5989990234375 272.7105407714844 770.5760498046875 272.999755859375 770.4771728515625 C 273.7415161132812 770.223388671875 273.6834106445312 769.89892578125 274.6072998046875 769.328857421875 C 275.1605529785156 768.9876098632812 276.2697448730469 768.302978515625 277.3631591796875 768.639892578125 C 277.5755920410156 768.7053833007812 278.2420654296875 768.949462890625 278.511474609375 769.5584716796875 C 278.6207885742188 769.8056640625 278.6901245117188 770.1701049804688 278.2817993164062 771.395751953125 C 277.7039794921875 773.130126953125 277.2239990234375 773.4247436523438 277.3631591796875 774.151611328125 C 277.4766235351562 774.744140625 277.8089294433594 774.6173706054688 278.2817993164062 775.529541015625 C 278.5601501464844 776.0664672851562 278.700927734375 776.8133544921875 278.9707641601562 778.285400390625 C 279.1847839355469 779.4525146484375 279.1820678710938 779.660400390625 279.4300537109375 779.89306640625 C 279.8576965332031 780.29443359375 280.3162841796875 780.0994873046875 281.2673034667969 780.352294921875 C 282.0997924804688 780.5736694335938 281.9842834472656 780.827880859375 283.1045532226562 781.2709350585938 C 284.0040893554688 781.626708984375 285.0130310058594 782.0137329101562 286.3197021484375 781.9598999023438 C 286.9978942871094 781.931884765625 287.3370971679688 781.9178466796875 287.6976318359375 781.730224609375 C 288.88427734375 781.1131591796875 288.640625 779.6321411132812 289.534912109375 777.8261108398438 C 290.4693298339844 775.9387817382812 292.0390319824219 774.922607421875 292.5203857421875 774.6109619140625 C 294.1582946777344 773.5505981445312 294.7542724609375 774.019775390625 297.1134643554688 772.773681640625 C 298.2656860351562 772.1651000976562 299.0515747070312 771.56298828125 299.8693542480469 770.9364013671875 C 302.8327941894531 768.6661376953125 303.162841796875 767.4281005859375 304.003173828125 767.4916381835938 C 304.0656127929688 767.4964599609375 304.1253051757812 767.5104370117188 304.1836547851562 767.5286254882812 C 303.5086669921875 768.1036376953125 304.80419921875 771.7576904296875 304.9217529296875 772.084716796875 C 306.0489196777344 775.2181396484375 307.2874145507812 778.660400390625 310.7779541015625 782.5340576171875 C 311.3571472167969 783.1768798828125 311.7305603027344 783.5341796875 312.831298828125 784.4071044921875 C 314.4058227539062 785.8167114257812 316.2623291015625 787.1971435546875 318.4224853515625 788.7337646484375 C 325.2630004882812 794.0296630859375 325.5557861328125 794.37109375 329.2651977539062 797.1170654296875 C 333.3151245117188 800.115234375 335.3406982421875 801.613525390625 337.0734252929688 802.6287841796875 C 337.5892639160156 802.9310302734375 338.1004333496094 803.2181396484375 338.6080017089844 803.49462890625 C 338.6121520996094 803.52587890625 338.6160278320312 803.5579833984375 338.6199340820312 803.5908203125 C 338.1629333496094 803.9427490234375 338.5351867675781 804.98486328125 338.2217102050781 806.7625732421875 C 337.878173828125 808.7110595703125 336.9668884277344 810.07958984375 336.4993286132812 810.7816162109375 C 336.3458862304688 811.011962890625 336.2002868652344 811.2110595703125 336.0599670410156 811.3883056640625 C 335.5800170898438 811.84423828125 335.0653381347656 812.270263671875 334.4985656738281 812.865234375 C 334.0801086425781 813.2078857421875 333.6593933105469 813.599853515625 333.1692810058594 814.3411865234375 C 332.7846374511719 814.9229736328125 332.5901184082031 815.3682861328125 332.4472961425781 815.8197021484375 C 331.8763427734375 817.0784912109375 331.719482421875 818.19775390625 331.1340942382812 819.6871337890625 C 330.0763244628906 821.9327392578125 328.7994384765625 823.4412841796875 328.2317504882812 824.1015625 C 327.6800842285156 824.742919921875 327.133544921875 825.2874755859375 326.5531616210938 825.7940673828125 C 326.1715087890625 826.11767578125 325.7684326171875 826.4405517578125 325.3463439941406 826.7662353515625 C 324.4940795898438 827.403564453125 323.5352783203125 828.0399169921875 322.3755187988281 828.8094482421875 C 320.6790771484375 829.93505859375 318.74951171875 831.07958984375 317.4455261230469 831.84228515625 C 315.7952270507812 832.8074951171875 315.3891906738281 832.9794921875 314.5672607421875 833.6322021484375 C 312.3614196777344 835.383544921875 309.7589721679688 838.5316162109375 308.3665771484375 844.6556396484375 C 308.0460205078125 846.1619873046875 307.8119812011719 847.5677490234375 307.6401977539062 848.8623046875 C 307.6068725585938 849.105712890625 307.5775146484375 849.3472900390625 307.5485534667969 849.588623046875 C 307.5396118164062 849.66552734375 307.5297241210938 849.7435302734375 307.521240234375 849.8194580078125 C 307.4991760253906 850.0125732421875 307.4776000976562 850.20556640625 307.4583129882812 850.397216796875 C 307.3248596191406 851.690185546875 307.25390625 852.844970703125 307.2182922363281 853.8419189453125 C 307.0942993164062 857.30712890625 307.2182922363281 859.3536376953125 307.2182922363281 859.3536376953125 C 307.2245178222656 859.4881591796875 307.23095703125 859.6153564453125 307.2376098632812 859.739013671875 C 307.273193359375 861.4051513671875 307.3069458007812 862.942138671875 307.2520751953125 864.3150634765625 C 306.8788757324219 866.3206787109375 306.0838012695312 867.93896484375 305.7255554199219 868.6546630859375 C 305.4375610351562 869.2296142578125 305.0774536132812 869.9493408203125 304.4624633789062 870.8363037109375 C 304.4025268554688 870.9228515625 304.3448791503906 871.0037841796875 304.288818359375 871.080810546875 C 303.9427490234375 871.399658203125 303.572509765625 871.8084716796875 303.2799682617188 872.317138671875 C 303.0305480957031 872.6085205078125 302.8640441894531 872.8424072265625 302.7400512695312 873.2476806640625 C 302.5999450683594 873.7054443359375 302.6235961914062 874.025146484375 303.0771484375 876.310791015625 C 303.1465454101562 876.66748046875 303.2257690429688 877.0592041015625 303.3141784667969 877.496337890625 C 303.3897399902344 877.8697509765625 303.4627685546875 878.203125 303.5330200195312 878.5263671875 C 303.5436096191406 878.574951171875 303.553466796875 878.6207275390625 303.5631103515625 878.6640625 C 303.6239929199219 878.9454345703125 303.6830139160156 879.22216796875 303.739501953125 879.511962890625 C 303.7521362304688 879.594482421875 303.76220703125 879.6796875 303.7734985351562 879.7928466796875 C 304.0020141601562 882.0716552734375 303.4124755859375 882.5849609375 304.003173828125 883.46728515625 C 303.8912963867188 883.724853515625 303.6104431152344 884.23828125 301.0176391601562 885.5341796875 C 299.9458312988281 886.070068359375 298.8763122558594 886.6104736328125 297.8024597167969 887.141845703125 C 296.656494140625 887.7091064453125 296.2947692871094 887.8853759765625 296.1948852539062 888.2900390625 C 296.00244140625 889.06982421875 297.0464477539062 889.62548828125 296.8838500976562 890.8162841796875 C 296.8255004882812 891.2430419921875 296.679443359375 891.259521484375 296.6541748046875 891.73486328125 C 296.6089477539062 892.583984375 297.054443359375 892.9117431640625 296.8838500976562 893.342529296875 C 296.7561645507812 893.6644287109375 296.4171752929688 893.708984375 295.5059204101562 894.031494140625 C 294.0972290039062 894.530029296875 293.3928833007812 894.7791748046875 293.2093505859375 895.1796875 C 292.898193359375 895.859130859375 293.7056274414062 896.387939453125 293.4390258789062 897.476318359375 C 293.300537109375 898.041748046875 292.9588012695312 898.4033203125 292.7500610351562 898.6246337890625 C 291.7673645019531 899.6651611328125 290.3391418457031 899.747802734375 289.7645263671875 899.7728271484375 C 288.3026428222656 899.8368530273438 287.9698486328125 899.2354125976562 287.2535705566406 899.2353515625 C 287.1138000488281 899.2353515625 286.9592895507812 899.2582397460938 286.7790222167969 899.3134765625 C 285.4750671386719 899.713134765625 285.3436889648438 900.7950439453125 283.5638732910156 901.610107421875 C 282.676025390625 902.0166015625 282.6613159179688 901.76904296875 281.2673034667969 902.299072265625 C 280.81787109375 902.4698486328125 280.3344421386719 902.6800537109375 278.511474609375 903.677001953125 C 276.7947998046875 904.6158447265625 275.9363403320312 905.085205078125 275.7555847167969 905.2845458984375 C 274.806884765625 906.3304443359375 275.3167114257812 906.959228515625 274.377685546875 909.188720703125 C 273.8143310546875 910.5262451171875 273.1338500976562 911.479736328125 272.310791015625 912.633544921875 C 271.5462646484375 913.705078125 271.5999755859375 913.4552001953125 270.4735107421875 914.9300537109375 C 268.8585815429688 917.0443725585938 268.4747314453125 917.9155883789062 267.7259826660156 917.9155883789062 C 267.7232360839844 917.9155883789062 267.7204284667969 917.9155883789062 267.7176513671875 917.91552734375 C 267.1763916015625 917.9110107421875 267.1343383789062 917.4608154296875 266.3397216796875 916.9969482421875 C 264.4152526855469 915.8734741210938 261.7682495117188 916.8240966796875 261.2873229980469 916.9969482421875 C 259.859619140625 917.5096435546875 259.1565856933594 918.2269287109375 258.6018981933594 918.2269287109375 Z" stroke="none" fill="#ff957b"/>
    </g>
    <g id="グループ_687" data-name="グループ 687" transform="translate(-151.196 -25.498)">
      <path id="合体_13" data-name="合体 13" d="M235.258,120.4A50,50,0,1,0,224,128.293l12.642,6.061Z" fill="#cb6349" opacity="0.5" style="mix-blend-mode: multiply;isolation: isolate"/>
      <path id="合体_14" data-name="合体 14" d="M242.258,112.121A50,50,0,1,0,231,120.011l12.642,6.061Z" fill="#ff8060" stroke="#fff" stroke-linecap="round" stroke-linejoin="round" stroke-width="2"/>
      <g id="楕円形_134" data-name="楕円形 134">
        <circle id="楕円形_193" data-name="楕円形 193" cx="46.021" cy="46.021" r="46.021" transform="translate(162.121 29.574)" fill="none"/>
        <circle id="楕円形_194" data-name="楕円形 194" cx="45.02" cy="45.02" r="45.02" transform="translate(163.121 30.575)" fill="none" stroke="#fff" stroke-linecap="round" stroke-miterlimit="4.002" stroke-width="2.001" stroke-dasharray="4.002 5.002"/>
      </g>
      <path id="交差_5" data-name="交差 5" d="M162.52,81.564h91.225a46.006,46.006,0,0,1-91.225,0Z" fill="#fff"/>
      <path id="パス_1073" data-name="パス 1073" d="M214.952,65.891a.16.16,0,0,0-.007-.06c-.012-.062-.025-.121-.038-.181l-.006-.029c-.015-.069-.031-.14-.047-.219s-.036-.176-.05-.252c-.1-.486-.1-.555-.072-.652a.521.521,0,0,1,.115-.2,1.157,1.157,0,0,1,.215-.263l.037-.052a4.045,4.045,0,0,0,.594-1.388c.012-.292,0-.619,0-.974v-.082s-.026-.436,0-1.173c.008-.212.023-.458.051-.733,0-.041.009-.082.013-.123l.006-.049c.006-.051.012-.1.02-.155.037-.276.086-.575.155-.9a3.947,3.947,0,0,1,1.32-2.346,4.608,4.608,0,0,1,.613-.381c.278-.162.688-.406,1.049-.646.247-.164.451-.3.632-.435.09-.066.176-.135.257-.207a3.371,3.371,0,0,0,.357-.36,4.022,4.022,0,0,0,.618-.94c.125-.317.158-.555.28-.823a1.228,1.228,0,0,1,.154-.315,1.344,1.344,0,0,1,.283-.314c.121-.127.23-.217.332-.314.03-.038.061-.08.094-.129a2.165,2.165,0,0,0,.367-.855c.067-.378-.013-.6.085-.675v-.021c-.108-.059-.217-.12-.327-.184-.369-.216-.8-.535-1.662-1.173-.79-.584-.852-.657-2.308-1.784a13.737,13.737,0,0,1-1.19-.921,2.955,2.955,0,0,1-.437-.4,5.983,5.983,0,0,1-1.246-2.224c-.025-.07-.3-.847-.157-.97a.234.234,0,0,0-.038-.008c-.179-.014-.249.25-.88.733a3.792,3.792,0,0,1-.587.391c-.5.265-.629.165-.978.391a1.77,1.77,0,0,0-.635.684c-.19.384-.138.7-.391.831a.637.637,0,0,1-.293.049,1.586,1.586,0,0,1-.684-.147c-.238-.094-.214-.148-.391-.2-.2-.054-.3-.012-.391-.1-.053-.05-.052-.094-.1-.342a2.3,2.3,0,0,0-.147-.587c-.1-.194-.171-.167-.2-.293-.03-.155.073-.217.2-.587.087-.261.072-.339.049-.391a.4.4,0,0,0-.244-.2.755.755,0,0,0-.587.147c-.2.121-.184.19-.342.244-.177.061-.232-.013-.391.049-.2.076-.17.211-.342.293-.247.118-.41-.109-.635,0-.153.073-.112.193-.342.489-.175.225-.278.356-.44.391-.246.053-.348-.176-.782-.244a2.157,2.157,0,0,0-.44,0,9.533,9.533,0,0,0-.978.147c-.042.115-.117.266-.244.293-.232.05-.367-.369-.684-.391-.184-.013-.246.121-.782.538a3.007,3.007,0,0,1-.733.489,1.618,1.618,0,0,1-.978.049c-.34-.092-.383-.355-.635-.342-.175.009-.179.118-.489.245a4.174,4.174,0,0,1-.635.146c-.153.035-.11.028-.587.147a6.28,6.28,0,0,1-.635.147,2.1,2.1,0,0,1-.733-.049,8,8,0,0,0-3.519.978,2.881,2.881,0,0,1,1.662-.147c.115.034.337.137.782.342a4.455,4.455,0,0,1,.929.489c.357.337.226.553.635.929a2.766,2.766,0,0,0,.587.391c.5.273.593.182.733.342.327.373-.065.967.244,1.222.2.167.465-.007.635.2.143.171,0,.347.147.538s.375.081.587.294a.807.807,0,0,1,.2.586c-.02.273-.188.457-.147.489s.191-.206.391-.2c.106.005.174.079.391.342a5.256,5.256,0,0,1,.489.635c.117.228.247.482.147.684-.056.112-.13.1-.2.245-.079.169,0,.25-.049.44-.065.271-.275.341-.244.44.041.133.428.185.733.1.128-.036.183-.081.244-.049.131.067.013.336.1.587.159.471.879.422.929.733.053.332-.737.57-.684.978.024.187.2.177.342.538a1.315,1.315,0,0,1,.1.587.775.775,0,0,1-.1.391c-.109.177-.257.212-.244.293s.213.065.342.2a.665.665,0,0,1,.049.685c-.2.431-.761.484-.733.635.011.06.17.1.489.2.14.04.253.067.391.1.638.143.673.116.684.1.043-.067-.085-.24-.342-.586-.156-.211-.214-.266-.2-.342.034-.141.285-.193.538-.245s.392-.08.489,0c0,0,.055.045.147.44a.231.231,0,0,0,.1.244.238.238,0,0,0,.293-.1c.072-.117-.041-.221,0-.342.07-.2.5-.229.782-.245a1.83,1.83,0,0,1,1.027.147,2.674,2.674,0,0,1,.489.391c.489.438.493.565.733.635s.342-.026.587.1c.2.1.243.217.342.2.178-.039.156-.452.342-.489a.2.2,0,0,1,.2.1c.059.118-.112.222-.1.391.013.151.165.21.44.44.389.323.426.375.44.44.037.163-.071.241-.147.538a1.738,1.738,0,0,0-.049.538.909.909,0,0,0,.293-.244c.193-.252.113-.452.244-.538.2-.13.67.137.929.489a1.264,1.264,0,0,1,.244.733,1.477,1.477,0,0,1-.869,1.31.178.178,0,0,0-.109.058c-.1.133.189.349.2.684a1.048,1.048,0,0,1-.244.587,1.581,1.581,0,0,1-.391.44c-.16.121-.43.326-.635.244-.256-.1-.253-.591-.342-.586s.01.427-.2.586c-.147.114-.313,0-1.124-.244-.553-.163-.694-.172-.831-.342-.161-.2-.11-.37-.293-.489-.113-.073-.193-.048-.587-.049-.55,0-.56-.051-.684,0-.387.159-.574.753-.44.88.116.109.412-.187.635-.049.183.113.19.44.147.635a.625.625,0,0,1-.293.44.548.548,0,0,1-.538,0c-.2-.126-.17-.377-.293-.391-.1-.012-.123.146-.342.294s-.331.086-.391.2c-.1.177.184.38.1.586-.016.039-.051.091-.538.294-.322.135-.415.158-.44.245s.079.146.2.391c.146.306.063.413.2.538.159.149.336.05.44.2a.358.358,0,0,1-.049.44c-.107.089-.223-.03-.489,0-.121.014-.12.04-.489.2s-.53.2-.538.293a.4.4,0,0,0,.1.2.466.466,0,0,0,.113.121c.1.067.177.052.181.074a1.622,1.622,0,0,1-.929.293.7.7,0,0,0-.391.1.651.651,0,0,0-.293.587c0,.035.028.242.146.285.064.023.1-.021.148.007.087.058-.036.263.049.391.029.044.1.1.489.1a3.291,3.291,0,0,0,.587-.049,3.08,3.08,0,0,0,1.027-.244c.248-.161.309-.323.44-.293.186.042.186.4.391.44.15.029.244-.145.342-.1s.107.314.049.538c-.086.328-.381.4-.342.538s.271.057.44.245.072.367.2.44.275-.115.635-.245a1.392,1.392,0,0,1,1.075,0c.169.1.178.195.293.2.161,0,.242-.184.587-.635.24-.314.228-.26.391-.489a3.629,3.629,0,0,0,.44-.732c.2-.474.091-.608.293-.831a4.47,4.47,0,0,1,.587-.342,4.661,4.661,0,0,1,.587-.294c.3-.112.3-.059.489-.146.379-.173.407-.4.684-.489.235-.073.263.114.635.1a.9.9,0,0,0,.635-.244.52.52,0,0,0,.147-.244c.057-.232-.115-.344-.049-.489.039-.085.189-.138.489-.244.194-.069.266-.078.293-.147.036-.092-.059-.161-.049-.342,0-.1.036-.1.049-.2.035-.254-.188-.372-.147-.538.021-.086.1-.124.342-.244s.456-.228.684-.342c.552-.276.612-.385.635-.44C214.876,66.485,215,66.376,214.952,65.891Z" fill="#fff"/>
      <text id="西エリア" transform="translate(209.862 103.564)" fill="#434343" font-size="14" font-family="NotoSansJP-Bold, Noto Sans JP" font-weight="700"><tspan x="-28" y="0">西</tspan><tspan y="0">エリア</tspan></text>
    </g>
  </g>
</svg>
