<svg xmlns="http://www.w3.org/2000/svg" width="167.438" height="187.022" viewBox="0 0 167.438 187.022">
  <g id="map_hokuto_pc" transform="translate(0 1.005)">
    <g id="グループ_402" data-name="グループ 402" transform="translate(75.48 63.441)">
      <g id="パス_1069" data-name="パス 1069" transform="translate(-439.203 -139.52)" fill="#ff85e7" stroke-miterlimit="10">
        <path d="M 484.78564453125 261.0957946777344 C 484.1856689453125 261.0957946777344 483.6955871582031 260.8866271972656 483.4323120117188 260.7742614746094 C 483.0304260253906 260.6026000976562 482.2625427246094 260.1808471679688 481.6292114257812 259.2821655273438 C 481.2138671875 258.6927185058594 481.0372009277344 258.1427917480469 480.9446411132812 257.7160949707031 C 480.9313049316406 257.7273864746094 480.9183044433594 257.7383728027344 480.9057922363281 257.7489624023438 C 480.3483276367188 258.2207336425781 479.6545104980469 258.8078918457031 478.7444152832031 258.8078918457031 C 478.6094055175781 258.8078918457031 478.4740905761719 258.7942199707031 478.3422546386719 258.7672729492188 C 477.2749328613281 258.5491943359375 476.8842468261719 257.6323852539062 476.5395202636719 256.8235168457031 C 476.2162170410156 256.0648498535156 475.8497619628906 255.2049865722656 474.9140930175781 254.419677734375 C 474.7949523925781 254.3197174072266 474.6763916015625 254.2294158935547 474.5508728027344 254.1337890625 C 474.2654113769531 253.9163818359375 473.9418640136719 253.6699371337891 473.4816589355469 253.2221374511719 C 473.2557373046875 253.0023956298828 472.9398193359375 252.6734313964844 471.802978515625 251.3080749511719 C 471.3970336914062 250.8204498291016 471.1827697753906 250.5566101074219 471.0409851074219 250.3820190429688 C 470.8706665039062 250.1722564697266 470.8302001953125 250.1224365234375 470.6878356933594 249.9679260253906 C 470.0153198242188 249.2387084960938 469.6454162597656 248.8376007080078 469.1288452148438 248.5721130371094 C 468.5761108398438 248.2879486083984 468.0835876464844 248.2586822509766 467.4599914550781 248.2216339111328 C 467.3338012695312 248.2141265869141 467.2080993652344 248.2103271484375 467.0859985351562 248.2103271484375 C 466.5771484375 248.2103271484375 466.1912231445312 248.2735748291016 465.8180236816406 248.3347473144531 C 465.503662109375 248.3862609863281 465.2067260742188 248.4349365234375 464.8887634277344 248.4349365234375 C 464.4230041503906 248.4349365234375 463.9978332519531 248.3246459960938 463.5890197753906 248.0977783203125 C 463.1304931640625 247.8436126708984 462.8501281738281 247.5045623779297 462.3856506347656 246.9428405761719 C 461.7876281738281 246.2197265625 461.5063171386719 245.6570587158203 461.2580871582031 245.1606140136719 C 461.1483764648438 244.9412231445312 461.0447998046875 244.7340087890625 460.9163208007812 244.5161743164062 C 460.4429321289062 243.7132568359375 459.9889221191406 243.3646697998047 459.5883178710938 243.0570831298828 C 459.1147155761719 242.6934356689453 458.5252685546875 242.2408599853516 458.482177734375 241.2979888916016 C 458.4345092773438 240.2554931640625 459.1108093261719 239.6171722412109 459.5583190917969 239.1948089599609 C 459.9308166503906 238.84326171875 460.0830993652344 238.6790771484375 460.089111328125 238.4679565429688 C 460.0986938476562 238.1324920654297 459.7353820800781 237.7527923583984 459.3840026855469 237.3856201171875 C 459.1553344726562 237.1466674804688 458.9189147949219 236.8995971679688 458.7428894042969 236.6203002929688 C 458.3643493652344 236.0196838378906 458.4227905273438 235.5040588378906 458.5384826660156 235.1772766113281 C 458.8241271972656 234.3699798583984 459.5705871582031 234.1816101074219 460.2291259765625 234.0154113769531 C 460.5685119628906 233.9297637939453 460.9531555175781 233.8327026367188 461.4280700683594 233.6554565429688 C 462.4380187988281 233.2786865234375 463.4822387695312 232.8891143798828 463.9254150390625 232.2091064453125 C 464.5682373046875 231.2227020263672 464.2568969726562 229.1077117919922 463.2847290039062 227.8571624755859 C 463.1790161132812 227.7211608886719 463.0525512695312 227.5801239013672 462.9186706542969 227.4308166503906 C 462.4852905273438 226.9474487304688 461.9458923339844 226.3458557128906 461.5371704101562 225.3156585693359 C 461.4223937988281 225.0264892578125 461.3619384765625 224.8128204345703 461.3085632324219 224.6242980957031 C 461.2535095214844 224.4297637939453 461.2014770507812 224.2460327148438 461.0792236328125 223.9411926269531 C 460.8267517089844 223.3116607666016 460.6217956542969 223.0235137939453 460.423583984375 222.7448272705078 C 460.2449645996094 222.4936981201172 460.0602722167969 222.2340087890625 459.9185791015625 221.8418273925781 C 459.4557189941406 220.5602722167969 460.0947570800781 219.5446166992188 460.6082458496094 218.7285003662109 C 461.11474609375 217.9234313964844 461.4172058105469 217.392822265625 461.2594299316406 216.6601409912109 C 461.0792236328125 215.8230743408203 460.6157531738281 215.1295013427734 460.0289916992188 214.2514038085938 C 459.4760131835938 213.4239654541016 458.7895202636719 212.3966827392578 457.6901245117188 211.4743499755859 C 457.6579284667969 211.4473266601562 457.6265258789062 211.4213562011719 457.5958557128906 211.39599609375 C 457.3587036132812 211.1998138427734 457.0899353027344 210.9774475097656 456.8206481933594 210.5869750976562 C 455.8700866699219 209.208251953125 456.1414184570312 207.5986022949219 456.2054443359375 207.2899169921875 C 456.2630310058594 207.0131378173828 456.3388671875 206.7857818603516 456.4159545898438 206.5997467041016 C 456.1633605957031 206.5699005126953 455.8716735839844 206.5524139404297 455.6738586425781 206.5405426025391 C 455.3002319335938 206.5181274414062 454.9473266601562 206.4969787597656 454.6414794921875 206.4356842041016 C 453.6378173828125 206.2345428466797 453.4627990722656 205.5747833251953 453.4341125488281 205.3004608154297 C 453.3592834472656 204.5838623046875 453.8753356933594 204.1705322265625 454.216796875 203.8970336914062 C 454.5036315917969 203.6673126220703 454.8605651855469 203.3814086914062 455.1762084960938 202.8491973876953 C 455.3470153808594 202.5611114501953 455.4612426757812 202.2793121337891 455.5156860351562 202.01171875 C 455.5521545410156 201.8329162597656 455.6002807617188 201.4677581787109 455.5139770507812 201.0239105224609 C 455.4729614257812 200.8129119873047 455.4432373046875 200.7598571777344 455.3326110839844 200.5624389648438 C 455.2181091308594 200.3581085205078 455.0613098144531 200.0782928466797 454.8721008300781 199.5813293457031 C 454.7250671386719 199.1952972412109 454.6401672363281 198.8923492431641 454.5781860351562 198.671142578125 C 454.5589904785156 198.6026916503906 454.5370178222656 198.5243530273438 454.5180053710938 198.4631652832031 C 454.4249877929688 198.4452972412109 454.299560546875 198.4226379394531 454.1636352539062 198.3980865478516 L 454.0208129882812 198.3722686767578 C 452.5840454101562 198.1120452880859 452.2067260742188 198.0265655517578 451.7778930664062 197.8640899658203 C 451.4937744140625 197.7563323974609 451.3572692871094 197.6790924072266 451.2082824707031 197.5893096923828 C 451.124755859375 197.5389862060547 451.0383911132812 197.4869232177734 450.8047790527344 197.3823089599609 C 450.3316040039062 197.1704254150391 450.0650024414062 197.1071472167969 449.7827758789062 197.0401458740234 C 449.4955444335938 196.9719696044922 449.1700134277344 196.8946838378906 448.7244873046875 196.6871948242188 C 448.1420593261719 196.4158630371094 447.0588684082031 195.9112701416016 446.6087646484375 194.7695159912109 C 446.303466796875 193.9949340820312 446.4315185546875 193.2936859130859 446.5553588867188 192.6155242919922 C 446.601318359375 192.3638153076172 446.6566162109375 192.1424560546875 446.7142333984375 191.9483489990234 C 446.6454772949219 191.9526977539062 446.5750122070312 191.9552154541016 446.5031127929688 191.9552154541016 C 445.9833679199219 191.9552154541016 445.5228576660156 191.8194274902344 445.1343383789062 191.5516510009766 C 444.4768981933594 191.0985260009766 444.2496643066406 190.4365997314453 444.0670471191406 189.9047241210938 C 443.8984375 189.4138336181641 443.8839111328125 189.0854034423828 443.8655700683594 188.6696014404297 C 443.8544006347656 188.4166259765625 443.8405151367188 188.1017913818359 443.7888793945312 187.6195526123047 C 443.7168273925781 186.9459075927734 443.6876831054688 186.7002563476562 443.6046752929688 186.4508819580078 C 443.5334167480469 186.2367248535156 443.4837036132812 186.1559143066406 443.3847351074219 185.9949188232422 C 443.2760009765625 185.818115234375 443.1271362304688 185.5759735107422 442.9451599121094 185.1505126953125 C 442.8056945800781 184.8245849609375 442.5154418945312 184.1461486816406 442.4121398925781 183.2662963867188 C 442.3566589355469 182.7938690185547 442.38427734375 182.5204162597656 442.4064331054688 182.3006896972656 C 442.4214477539062 182.1520843505859 442.4304809570312 182.0623779296875 442.4108581542969 181.8770141601562 C 442.3608093261719 181.4042510986328 442.183837890625 180.9375915527344 441.8848266601562 180.4900207519531 C 441.5365905761719 179.9690399169922 441.1065673828125 179.6816864013672 440.325927734375 179.1600036621094 C 439.9508056640625 178.909423828125 439.6747436523438 178.7568969726562 439.4529113769531 178.6343231201172 C 439.0032348632812 178.3858642578125 438.5784912109375 178.1511840820312 438.3403930664062 177.5433807373047 C 437.9072570800781 176.4374389648438 438.5806884765625 175.4004058837891 439.1217956542969 174.5671539306641 C 439.8643493652344 173.4234008789062 440.7448425292969 172.6925964355469 442.0776977539062 171.5863952636719 C 442.4864501953125 171.2471466064453 442.7313232421875 171.0577392578125 442.9101257324219 170.9194641113281 C 443.1386108398438 170.7427673339844 443.2000122070312 170.6952819824219 443.3726501464844 170.5153350830078 C 443.878662109375 169.9875946044922 444.0392761230469 169.6494750976562 444.1946411132812 169.3224792480469 C 444.3676452636719 168.9582672119141 444.5637512207031 168.5454406738281 445.0729370117188 168.1335906982422 C 445.771484375 167.568603515625 446.4621276855469 167.5032653808594 446.9208374023438 167.5032653808594 C 447.146240234375 167.5032653808594 447.3686828613281 167.5207672119141 447.5837707519531 167.5376892089844 C 447.7999877929688 167.5547027587891 448.0235595703125 167.5722961425781 448.2532348632812 167.5722808837891 C 448.7590942382812 167.572265625 449.2051696777344 167.4856262207031 449.6996154785156 167.2913665771484 C 450.123779296875 167.1246948242188 450.3334655761719 166.9764404296875 450.5762634277344 166.8047790527344 C 450.9319458007812 166.5532836914062 451.3351135253906 166.2682342529297 452.1556396484375 166.0953369140625 C 452.4739685058594 166.0282287597656 452.7676696777344 165.9955902099609 453.0534362792969 165.9955902099609 C 453.3933715820312 165.9955902099609 453.6614379882812 166.0410003662109 453.8979187011719 166.0810394287109 C 454.0958862304688 166.1145782470703 454.2522277832031 166.1410675048828 454.4432678222656 166.1410675048828 C 454.5920715332031 166.1410675048828 454.7527770996094 166.1246032714844 454.9346008300781 166.0907440185547 C 455.4282836914062 165.9987640380859 455.7012329101562 165.8500061035156 456.0173034667969 165.6777801513672 C 456.4445495605469 165.4449615478516 456.9762878417969 165.1551971435547 457.8600158691406 165.1551971435547 L 457.8778381347656 165.1552429199219 C 458.533447265625 165.1580810546875 458.9124755859375 165.3156127929688 459.2170104980469 165.4421844482422 C 459.4173889160156 165.5254669189453 459.5621643066406 165.5856323242188 459.84375 165.6234130859375 C 459.9617614746094 165.6392517089844 460.0742797851562 165.6469268798828 460.1877136230469 165.6469268798828 C 460.9135131835938 165.6469268798828 461.6356506347656 165.306640625 462.728759765625 164.7915954589844 C 463.4678344726562 164.443359375 464.7037658691406 163.8609924316406 465.8995971679688 162.6860656738281 C 466.1770629882812 162.4133911132812 466.3563842773438 162.2031097412109 466.6045532226562 161.9120483398438 C 466.9175109863281 161.5450286865234 467.3461303710938 161.0423583984375 468.176513671875 160.1796722412109 C 468.7044982910156 159.6311950683594 468.9953002929688 159.3291015625 469.371337890625 158.9860992431641 C 469.60888671875 158.7695617675781 470.2391357421875 158.1950988769531 472.2376098632812 156.8318786621094 C 472.6925659179688 156.5215454101562 473.0433654785156 156.2895660400391 473.3252258300781 156.1031646728516 C 474.0265502929688 155.6393737792969 474.2382202148438 155.4994201660156 474.6167297363281 155.1171417236328 C 475.0820007324219 154.6474609375 475.4223327636719 154.1860809326172 475.6708679199219 153.8491821289062 C 476.1750183105469 153.1657257080078 476.4703063964844 152.6498260498047 476.6859130859375 152.2731170654297 C 477.0033264160156 151.7185668945312 477.3315124511719 151.1451416015625 478.0635986328125 151.1451416015625 C 478.1080932617188 151.1451416015625 478.1531372070312 151.1477355957031 478.197509765625 151.15283203125 C 478.5220642089844 151.1902313232422 479.097900390625 151.3893280029297 479.3094787597656 152.302734375 C 479.3768920898438 152.5937194824219 479.409423828125 152.9333190917969 479.4470825195312 153.3265533447266 C 479.5296630859375 154.1891174316406 479.6544799804688 155.4926452636719 480.2648315429688 155.9205474853516 C 480.4570617675781 156.0553436279297 480.7246398925781 156.1236724853516 481.0601806640625 156.1236572265625 C 481.6925354003906 156.1236572265625 482.3432312011719 155.8817138671875 482.5570678710938 155.8022003173828 C 483.848876953125 155.3216400146484 484.3677062988281 154.4308013916016 485.6211853027344 152.2785339355469 C 486.3727416992188 150.988037109375 487.4020690917969 149.2206420898438 488.977294921875 146.9783477783203 C 489.10888671875 146.7910614013672 489.2326049804688 146.6170196533203 489.3514099121094 146.4499206542969 C 489.6817932128906 145.9851989746094 489.9671325683594 145.5838623046875 490.2749328613281 145.1033020019531 C 490.27490234375 145.1033630371094 490.5354309082031 144.6917572021484 490.770263671875 144.2913818359375 C 491.3060302734375 143.3775024414062 491.647705078125 142.3943328857422 491.9491882324219 141.5269012451172 C 492.3416137695312 140.3977508544922 492.6515808105469 139.505859375 493.290771484375 138.9754028320312 C 493.6498718261719 138.6773529052734 494.0939025878906 138.5197906494141 494.5748291015625 138.5197906494141 C 495.7598571777344 138.5197906494141 497.0348205566406 139.440673828125 498.7994689941406 140.7152099609375 C 501.0643615722656 142.3510894775391 504.166259765625 144.5915222167969 507.8677368164062 145.1879730224609 C 508.6161193847656 145.3085632324219 509.4365844726562 145.3696899414062 510.3063049316406 145.3696441650391 C 513.276611328125 145.3694915771484 516.3650512695312 144.6773529052734 518.8466796875 144.1212005615234 C 520.5584716796875 143.7375793457031 521.9104614257812 143.4345855712891 522.8601684570312 143.4345855712891 C 524.0568237304688 143.4345855712891 524.5267333984375 143.9699401855469 524.7102661132812 144.4190826416016 C 524.7507934570312 144.5184936523438 524.7782592773438 144.6172637939453 524.798828125 144.7128295898438 C 524.8023071289062 144.6903839111328 524.8055419921875 144.6680603027344 524.8087158203125 144.6465911865234 C 524.8594970703125 144.3017120361328 524.9443969726562 143.7245025634766 525.4680786132812 143.3182525634766 C 525.7774658203125 143.0781707763672 526.1807861328125 142.9512176513672 526.6344604492188 142.9512176513672 C 527.381591796875 142.9512176513672 528.2409057617188 143.2963409423828 528.8236694335938 143.8304595947266 C 529.9161376953125 144.8317413330078 529.7567138671875 146.12744140625 529.5720825195312 147.6277618408203 C 529.4635620117188 148.509765625 529.3284912109375 149.6074523925781 529.376953125 150.9622497558594 C 529.4309692382812 152.4730224609375 529.6856689453125 153.6770324707031 529.8903198242188 154.6444702148438 C 530.0335083007812 155.3212585449219 530.1465454101562 155.8558502197266 530.1599731445312 156.3354644775391 C 530.1813354492188 157.099365234375 529.92529296875 157.6680450439453 529.3990478515625 158.0257263183594 C 529.0521240234375 158.261474609375 528.5989990234375 158.3860626220703 528.088623046875 158.3860626220703 C 527.3809814453125 158.3860626220703 526.3551635742188 158.1204986572266 525.767822265625 157.3750152587891 C 525.7963256835938 157.6784362792969 525.7664794921875 158.0165557861328 525.5867309570312 158.3558197021484 C 525.2673950195312 158.9582824707031 524.652587890625 159.2636871337891 523.7593383789062 159.2636871337891 C 523.26806640625 159.2636871337891 522.7304077148438 159.1797790527344 522.1612548828125 159.0909729003906 C 521.6195068359375 159.0064392089844 521.059326171875 158.9190521240234 520.5953979492188 158.9190521240234 C 520.0770874023438 158.9190521240234 519.9246215820312 159.0286560058594 519.8901977539062 159.062255859375 C 519.7975463867188 159.1528015136719 519.72314453125 159.4877014160156 519.8184814453125 160.1336517333984 C 519.9282836914062 160.8777313232422 520.2194213867188 161.7976531982422 520.5009765625 162.6872863769531 C 520.7994384765625 163.6302185058594 521.081298828125 164.5208435058594 521.2020874023438 165.3223266601562 C 521.2771606445312 165.8206939697266 521.2817993164062 166.2409362792969 521.2162475585938 166.6070861816406 C 521.0975341796875 167.2702789306641 520.7599487304688 167.6548004150391 520.4976806640625 167.8605804443359 C 520.0022583007812 168.2493286132812 519.3839111328125 168.3253936767578 518.4833374023438 168.3253936767578 C 518.1533813476562 168.3253936767578 517.7705078125 168.3150634765625 517.3271484375 168.3031158447266 C 516.4532470703125 168.2795562744141 515.6989135742188 168.2592315673828 514.97802734375 168.0248260498047 C 513.2046508789062 167.4480895996094 512.367919921875 165.8074035644531 511.7569885253906 164.6094207763672 C 511.5965270996094 164.2948303222656 511.3740844726562 163.8586120605469 511.2008972167969 163.6154632568359 C 510.955810546875 163.8545837402344 510.5654907226562 164.2164306640625 509.8802795410156 164.6844482421875 C 509.3021850585938 165.0792388916016 508.8793334960938 165.3003540039062 508.5859375 165.4410095214844 C 508.8321533203125 165.7401580810547 509.2958679199219 166.1641387939453 509.6314697265625 166.4709777832031 C 510.90234375 167.6329956054688 512.4840087890625 169.0791473388672 512.3817749023438 171.0302734375 C 512.3519287109375 171.6007995605469 512.19677734375 171.8215179443359 511.3357238769531 173.0464324951172 C 511.0498962402344 173.4530181884766 510.6584777832031 174.0098419189453 510.1389465332031 174.7616424560547 C 509.9315185546875 175.0617980957031 509.7417907714844 175.3378143310547 509.5675354003906 175.5914001464844 C 508.8616333007812 176.6184234619141 508.3952941894531 177.2969360351562 508.0122985839844 177.7406005859375 C 507.6510314941406 178.1591033935547 507.1390991210938 178.6394805908203 506.3806457519531 178.6394805908203 C 506.344482421875 178.6394805908203 506.3078918457031 178.6383819580078 506.2710876464844 178.6361846923828 C 505.340087890625 178.5804443359375 504.7596435546875 177.9025421142578 504.3328857421875 177.2828521728516 C 504.1451721191406 178.0820007324219 503.85107421875 179.0616455078125 502.8962707519531 179.2976989746094 C 502.7803955078125 179.3263092041016 502.6612548828125 179.3407897949219 502.5419006347656 179.3407897949219 C 502.168701171875 179.3407897949219 501.8509521484375 179.2071228027344 501.5781860351562 179.0222778320312 C 501.6040649414062 179.4705810546875 501.6427307128906 179.9846496582031 501.6808471679688 180.4915313720703 C 501.7230529785156 181.052490234375 501.7708435058594 181.6883087158203 501.81689453125 182.3957366943359 C 501.9972534179688 185.1642913818359 501.9786987304688 185.9522857666016 501.3882751464844 186.7366027832031 C 500.3992309570312 188.0506896972656 498.6247253417969 188.3265533447266 497.3102722167969 188.3265533447266 C 496.8453369140625 188.3265533447266 496.4913330078125 188.2917785644531 496.3580627441406 188.2787017822266 C 495.8612976074219 188.2300567626953 494.8732604980469 188.0667877197266 493.7740783691406 187.520263671875 C 493.8204650878906 187.5946807861328 493.8642272949219 187.6728515625 493.9054565429688 187.7554321289062 C 494.2407836914062 188.4270629882812 494.17822265625 188.9741821289062 494.1368103027344 189.3362121582031 C 494.1078186035156 189.5896759033203 494.0946044921875 189.7053680419922 494.1730346679688 189.9080963134766 C 494.2431335449219 190.0893096923828 494.2852783203125 190.1237487792969 494.5938720703125 190.3387451171875 C 494.9109191894531 190.5595855712891 495.3450622558594 190.8620452880859 495.8474426269531 191.4679260253906 C 496.2844543457031 191.9948577880859 497.3080139160156 193.2290649414062 497.2246704101562 194.9115600585938 C 497.1908264160156 195.5946502685547 496.9580993652344 196.6169586181641 496.0413818359375 197.6080017089844 C 495.9252014160156 197.7334594726562 495.6552124023438 198.0250244140625 495.2966003417969 198.2902679443359 C 494.7695617675781 198.6800689697266 494.2373962402344 198.8777008056641 493.7148132324219 198.8777008056641 C 493.548583984375 198.8777008056641 493.3836059570312 198.8572692871094 493.2244873046875 198.8169555664062 C 492.5957641601562 198.6577301025391 492.1982421875 198.2300872802734 492.0486145019531 198.0690765380859 C 491.892333984375 197.9011688232422 491.7767333984375 197.73486328125 491.6889953613281 197.5807342529297 C 491.7373352050781 197.8735198974609 491.83251953125 198.2233123779297 491.8851013183594 198.4165344238281 L 491.9090270996094 198.5047149658203 C 492.0318603515625 198.9584197998047 492.2611999511719 199.3979644775391 492.2869262695312 199.4465942382812 C 492.4476928710938 199.7496490478516 492.567626953125 199.8985443115234 492.6734313964844 200.0299224853516 C 492.8383483886719 200.2347106933594 493.0875854492188 200.5441741943359 493.0921020507812 201.0538787841797 C 493.0948791503906 201.3879089355469 492.9906921386719 201.8939361572266 492.4784545898438 202.4104614257812 C 491.7311401367188 203.1640625 490.3845520019531 203.6703948974609 489.1276550292969 203.6703948974609 L 489.1009216308594 203.6703186035156 C 488.7766418457031 203.6684265136719 488.1741333007812 203.6649475097656 487.512939453125 203.3360290527344 C 486.370361328125 202.767822265625 486.0118103027344 201.7122192382812 485.7745361328125 201.0137023925781 C 485.7124328613281 200.8308715820312 485.6246032714844 200.5722808837891 485.5518798828125 200.4405364990234 C 485.4616088867188 200.4891662597656 485.3392944335938 200.5652465820312 485.2415161132812 200.6260528564453 C 484.7518920898438 200.9305114746094 484.0120544433594 201.3906097412109 482.843994140625 201.5892944335938 C 482.5350952148438 201.6417999267578 482.2512512207031 201.6673278808594 481.9761657714844 201.6673278808594 C 481.5869445800781 201.6673278808594 481.2857971191406 201.6152954101562 481.0438537597656 201.573486328125 C 480.8670654296875 201.5429229736328 480.7274169921875 201.518798828125 480.5812683105469 201.518798828125 C 480.4521789550781 201.518798828125 480.316162109375 201.5369567871094 480.1532287597656 201.5759582519531 C 479.5769958496094 201.7138671875 478.9761352539062 202.04541015625 478.5045776367188 202.4856262207031 C 478.1934204101562 202.776123046875 478.0250244140625 203.0377349853516 477.9512634277344 203.2029724121094 C 478.1473999023438 203.3284301757812 478.4568786621094 203.5159912109375 478.8344116210938 203.7447967529297 L 479.0610656738281 203.8822174072266 C 479.1097412109375 203.9117279052734 480.2676391601562 204.6149597167969 481.6208190917969 205.5110321044922 C 482.7571716308594 206.2636108398438 483.1002197265625 206.5414123535156 483.3489379882812 207.0619964599609 C 483.6115417480469 207.6118927001953 483.5746154785156 208.0214996337891 483.5186462402344 208.6414794921875 C 483.496337890625 208.8886871337891 483.4685668945312 209.1963348388672 483.445068359375 209.6159362792969 C 483.415771484375 210.1379699707031 483.4115295410156 210.5000305175781 483.4081115722656 210.7909393310547 C 483.4045104980469 211.0992431640625 483.4015197753906 211.3557281494141 483.36083984375 211.6016082763672 C 483.6148071289062 211.2815551757812 483.8599853515625 211.0946960449219 483.9303894042969 211.0441589355469 C 484.2400512695312 210.8220977783203 484.5992126464844 210.7096252441406 484.9983215332031 210.7096252441406 C 485.7916564941406 210.7096252441406 486.5896911621094 211.1598205566406 487.5137329101562 211.6810760498047 C 488.58251953125 212.2840118408203 489.7939147949219 212.9673919677734 491.0254821777344 212.9673156738281 C 491.1816101074219 212.9673004150391 491.3370971679688 212.9561004638672 491.4877014160156 212.9339904785156 C 492.2742004394531 212.8186645507812 492.8952026367188 212.4156036376953 492.9212646484375 212.3984985351562 C 493.6199645996094 211.9398345947266 493.9661254882812 211.3297576904297 494.1951904296875 210.9260864257812 L 494.2080688476562 210.9034271240234 C 496.2273254394531 207.3466186523438 496.9825134277344 206.0164184570312 498.1219787597656 205.8188323974609 C 498.2276611328125 205.8004913330078 498.3342590332031 205.7911834716797 498.4386596679688 205.7911834716797 C 499.2085876464844 205.7911834716797 499.718994140625 206.2696228027344 500.0359497070312 206.6295166015625 C 500.37451171875 207.0139312744141 500.7080078125 207.5213623046875 501.1695861816406 208.2236633300781 C 501.8291625976562 209.2272491455078 502.7324829101562 210.6017150878906 504.1437072753906 212.3365783691406 C 504.3315124511719 212.5674591064453 504.5330505371094 212.81005859375 504.7463989257812 213.06689453125 C 505.4662780761719 213.9335632324219 506.2822265625 214.9158630371094 506.8517150878906 215.7964172363281 C 507.2018432617188 216.3378143310547 508.1319274902344 217.7759857177734 507.3820190429688 218.8569030761719 C 506.98193359375 219.4333953857422 506.5049743652344 219.7571411132812 506.4134216308594 219.8161926269531 C 506.0242614746094 220.0648193359375 505.692138671875 220.1560821533203 505.4656066894531 220.2061462402344 C 505.4675903320312 220.3199310302734 505.4897155761719 220.4919586181641 505.5573120117188 220.7044525146484 C 505.6411743164062 220.9680786132812 505.7514038085938 221.1578979492188 505.8223266601562 221.2531280517578 C 505.8766174316406 221.2521209716797 505.9766235351562 221.2451934814453 506.1145935058594 221.2146453857422 C 506.2949523925781 221.1747283935547 506.4217834472656 221.0960693359375 506.5686340332031 221.0049743652344 C 506.7666015625 220.8822021484375 507.0377197265625 220.7140502929688 507.4065246582031 220.7140502929688 C 507.5923767089844 220.7140502929688 507.7775268554688 220.7594146728516 507.94189453125 220.8452453613281 C 508.1744995117188 220.9666900634766 508.5679931640625 221.275634765625 508.5894165039062 221.9798736572266 C 508.5959777832031 222.1953277587891 508.5710144042969 222.4335021972656 508.5394287109375 222.7350311279297 C 508.5187683105469 222.9321136474609 508.495361328125 223.155517578125 508.476318359375 223.4130859375 C 508.4311828613281 224.0196990966797 508.3886108398438 224.5923461914062 508.471923828125 225.2870941162109 C 508.5616455078125 226.0355682373047 508.7572937011719 226.6000671386719 508.865966796875 226.8699493408203 C 509.1589965820312 227.5987396240234 509.5311889648438 228.0928039550781 509.6382751464844 228.2268829345703 C 510.1046447753906 228.8115539550781 510.5325317382812 229.0387725830078 510.9100646972656 229.2392578125 C 511.266845703125 229.4287109375 511.6712036132812 229.6434478759766 511.9171447753906 230.0955963134766 C 511.938232421875 230.1343078613281 511.9565734863281 230.173828125 511.9724426269531 230.2147979736328 C 512.4761962890625 231.3586730957031 511.3694458007812 232.4514007568359 510.8916320800781 232.9231567382812 C 510.1465454101562 233.6587829589844 509.0321044921875 234.5484008789062 507.7416687011719 235.5784759521484 C 505.2909851074219 237.5346984863281 501.9346923828125 240.2138366699219 499.045654296875 243.5181579589844 C 495.4087524414062 247.6761322021484 488.9339294433594 255.4889831542969 487.734619140625 258.3982849121094 L 487.7188110351562 258.4368591308594 C 487.6463623046875 258.6143493652344 487.4766540527344 259.030029296875 487.2159423828125 259.4629211425781 C 486.6351623535156 260.427734375 485.9231872558594 260.9704895019531 485.099853515625 261.0759582519531 C 484.9971618652344 261.089111328125 484.8914184570312 261.0957946777344 484.78564453125 261.0957946777344 Z M 487.5250854492188 179.9081268310547 C 487.4945983886719 179.9081268310547 487.4827270507812 179.9123992919922 487.4826049804688 179.9124450683594 C 487.3179626464844 179.9969940185547 487.0765380859375 180.6680145263672 487.2781982421875 181.1680603027344 C 487.3396606445312 181.3204345703125 487.4121398925781 181.3752746582031 487.7229309082031 181.5638732910156 C 488.1222839355469 181.8061981201172 488.6692199707031 182.1380767822266 489.0749816894531 182.9175872802734 C 489.4622802734375 183.6615753173828 489.4301147460938 184.2724151611328 489.4088439941406 184.6766204833984 C 489.3918151855469 185.0001373291016 489.4012451171875 185.0130004882812 489.4536437988281 185.0844116210938 C 489.4909057617188 185.1352081298828 489.4986877441406 185.1457977294922 489.8802490234375 185.2569274902344 C 490.2573852539062 185.3667602539062 490.8270874023438 185.53271484375 491.6187133789062 185.9287109375 C 491.6093444824219 185.9188079833984 491.5999755859375 185.9088439941406 491.5906677246094 185.8988494873047 C 490.5257263183594 184.7577972412109 490.2471008300781 183.67578125 490.0232238769531 182.8063812255859 C 489.8319396972656 182.0635528564453 489.6808471679688 181.4767913818359 489.0807800292969 180.863525390625 C 488.5565490722656 180.3278198242188 487.8731994628906 179.9081268310547 487.5250854492188 179.9081268310547 Z" stroke="none"/>
        <path d="M 484.7857055664062 260.0957946777344 C 484.8471984863281 260.0957946777344 484.90966796875 260.0921630859375 484.9728088378906 260.0840454101562 C 485.5857543945312 260.0055236816406 486.048095703125 259.4639892578125 486.3592834472656 258.947021484375 C 486.6006164550781 258.5462951660156 486.7510070800781 258.1602478027344 486.8100891113281 258.0171813964844 C 488.3887329101562 254.1876831054688 497.7386169433594 243.4935607910156 498.2928161621094 242.8599395751953 C 504.2378845214844 236.0603179931641 511.79833984375 232.1134490966797 511.0450744628906 230.5917816162109 C 511.0423278808594 230.5858154296875 511.0418701171875 230.5791625976562 511.0386657714844 230.5734100341797 C 510.7855834960938 230.1081237792969 509.85546875 230.1028289794922 508.85693359375 228.8509826660156 C 508.7641296386719 228.7348022460938 508.3009338378906 228.145263671875 507.9383239746094 227.2434234619141 C 507.8604736328125 227.0500640869141 507.5933532714844 226.3599090576172 507.4790344238281 225.4061737060547 C 507.3843688964844 224.6168365478516 507.432373046875 223.9666900634766 507.4790344238281 223.3392639160156 C 507.5531921386719 222.3375091552734 507.6875610351562 221.8405609130859 507.4790344238281 221.7316741943359 C 507.2720031738281 221.6235656738281 507.0029602050781 222.0421905517578 506.3307189941406 222.1910095214844 C 506.2425231933594 222.2105255126953 505.7437438964844 222.3207702636719 505.412109375 222.1910095214844 C 504.7741394042969 221.9413604736328 504.0775756835938 220.0471496582031 504.72314453125 219.4351501464844 C 504.9932556152344 219.1790771484375 505.3163757324219 219.3304138183594 505.8713989257812 218.975830078125 C 505.8713989257812 218.975830078125 506.2531127929688 218.7296295166016 506.5603942871094 218.2868499755859 C 507.1993103027344 217.3659515380859 504.842529296875 214.7802581787109 503.3679504394531 212.9675903320312 C 499.9160766601562 208.7240753173828 499.4459533691406 206.6040344238281 498.2928161621094 206.8041229248047 C 497.6187438964844 206.9210205078125 496.7717895507812 208.4130706787109 495.07763671875 211.397216796875 C 494.8280334472656 211.8367767333984 494.3858947753906 212.6332092285156 493.4700622558594 213.2344512939453 C 493.3804931640625 213.2932434082031 492.6272277832031 213.7776031494141 491.6328430175781 213.9234161376953 C 488.8229675292969 214.3355407714844 486.37890625 211.7096099853516 484.9983215332031 211.7096252441406 C 484.8179626464844 211.7096252441406 484.656005859375 211.7543487548828 484.5135192871094 211.8565368652344 C 484.3775634765625 211.9541320800781 484.0186157226562 212.2765502929688 483.8245544433594 212.7751617431641 C 483.58984375 213.3782196044922 483.8070983886719 213.6979217529297 483.5949096679688 213.9234161376953 C 483.1064758300781 214.4426879882812 481.0753784179688 213.6852722167969 481.0686950683594 213.0048217773438 C 481.0647888183594 212.6040496826172 481.76708984375 212.6212768554688 482.2169799804688 211.8565368652344 C 482.4927978515625 211.3875732421875 482.3565979003906 211.1636505126953 482.4466247558594 209.5599822998047 C 482.5263061523438 208.13818359375 482.6549072265625 207.92919921875 482.4466247558594 207.4931030273438 C 482.3233032226562 207.2349700927734 482.1648254394531 207.0707397460938 481.0686950683594 206.3448028564453 C 479.7164916992188 205.4494018554688 478.54248046875 204.7372436523438 478.54248046875 204.7372436523438 C 477.1195678710938 203.8741912841797 476.9962158203125 203.8103332519531 476.9349060058594 203.5889434814453 C 476.66943359375 202.6315155029297 478.1959533691406 201.0161437988281 479.92041015625 200.6034393310547 C 480.8495788574219 200.3809967041016 481.1696472167969 200.6673278808594 481.9761352539062 200.6673278808594 C 482.1746215820312 200.6673278808594 482.4025573730469 200.6499786376953 482.6763000488281 200.6034393310547 C 484.60302734375 200.2757263183594 485.0675354003906 199.1358947753906 485.8914184570312 199.4551696777344 C 486.9118041992188 199.8506317138672 486.5188598632812 201.724853515625 487.9583435058594 202.4406890869141 C 488.4121398925781 202.6664428710938 488.830322265625 202.6687316894531 489.1066284179688 202.6703338623047 C 489.1136474609375 202.6703796386719 489.1206359863281 202.6703948974609 489.1276550292969 202.6703948974609 C 490.5735473632812 202.6703948974609 492.0985107421875 201.8245086669922 492.0921325683594 201.0627288818359 C 492.08935546875 200.7485809326172 491.8284912109375 200.7162017822266 491.4031372070312 199.9144744873047 C 491.3710327148438 199.8538513183594 491.0970153808594 199.3320617675781 490.94384765625 198.7661895751953 C 490.7316284179688 197.9828491210938 490.4349365234375 196.9833984375 490.94384765625 196.4696502685547 C 491.2328186035156 196.1779937744141 491.7689819335938 196.0526123046875 492.0921325683594 196.239990234375 C 492.4435119628906 196.4436950683594 492.3114624023438 196.8837432861328 492.7810974121094 197.3882751464844 C 492.886962890625 197.5021820068359 493.1281127929688 197.7609710693359 493.4700622558594 197.8475799560547 C 494.2696228027344 198.0500183105469 495.08056640625 197.1737823486328 495.3072814941406 196.9289703369141 C 495.5027465820312 196.7176818847656 496.1708068847656 195.9745178222656 496.2258911132812 194.8620758056641 C 496.2899780273438 193.5686492919922 495.4850463867188 192.5974426269531 495.07763671875 192.1062164306641 C 494.1725769042969 191.0146636962891 493.5789184570312 191.1439819335938 493.2404174804688 190.2689819335938 C 492.8977661132812 189.3834228515625 493.4071350097656 188.9960021972656 493.0107421875 188.2020721435547 C 492.7057800292969 187.5912017822266 492.151123046875 187.3135528564453 491.1735229492188 186.8241577148438 C 489.600830078125 186.0368957519531 489.0964965820312 186.2881317138672 488.6473083496094 185.6758728027344 C 488.10302734375 184.9338836669922 488.7120971679688 184.3861389160156 488.18798828125 183.3793334960938 C 487.6358947753906 182.3188018798828 486.7349548339844 182.4944610595703 486.3507690429688 181.5420989990234 C 485.9963989257812 180.6634368896484 486.3054809570312 179.3789825439453 487.0397033691406 179.0158996582031 C 487.9055480957031 178.5875091552734 489.1770629882812 179.5321807861328 489.7955627441406 180.1641540527344 C 491.3981323242188 181.8020629882812 490.5706481933594 183.3403015136719 492.3217468261719 185.2165832519531 C 493.0631103515625 186.0109558105469 493.881103515625 186.4527893066406 494.1590270996094 186.5944976806641 C 495.240478515625 187.1458892822266 496.1905517578125 187.2575225830078 496.4555969238281 187.2834625244141 C 496.8602905273438 187.3231658935547 499.4998474121094 187.5827331542969 500.58935546875 186.1351776123047 C 500.9306030273438 185.6818542480469 500.9988708496094 185.2218627929688 500.8190307617188 182.4607238769531 C 500.5992431640625 179.0854797363281 500.3397521972656 177.3563995361328 500.8190307617188 177.1786499023438 C 501.2621765136719 177.0142211914062 501.8852844238281 178.3408050537109 502.5419311523438 178.3408050537109 C 502.5799560546875 178.3408050537109 502.6180419921875 178.3363647460938 502.6562805175781 178.3269195556641 C 503.5034484863281 178.1174774169922 503.3031921386719 175.7219543457031 504.0341796875 175.5710754394531 C 504.7362365722656 175.426025390625 505.2185363769531 177.5713806152344 506.3307189941406 177.6379547119141 C 506.9950866699219 177.6778717041016 507.413818359375 176.9459991455078 509.3162536621094 174.1931610107422 C 511.2651062011719 171.3729705810547 511.3629455566406 171.3647155761719 511.3831481933594 170.9779815673828 C 511.5241394042969 168.2870941162109 506.913818359375 166.3805236816406 507.4790344238281 165.0069427490234 C 507.6349487304688 164.6280212402344 507.9892883300781 164.764892578125 509.3162536621094 163.8586730957031 C 510.7217407226562 162.8987121582031 510.6950988769531 162.4915313720703 511.1534729003906 162.4807434082031 C 512.554931640625 162.4453125 512.7725219726562 166.2560272216797 515.2872314453125 167.0738372802734 C 515.87060546875 167.2635345458984 516.5452880859375 167.2816772460938 517.3541259765625 167.3034820556641 C 518.7940673828125 167.3422546386719 519.513671875 167.3615875244141 519.88037109375 167.0738372802734 C 521.4573974609375 165.8364562988281 517.5319213867188 159.9680786132812 519.19140625 158.3469543457031 C 520.12451171875 157.4354248046875 522.4163208007812 158.263671875 523.7593383789062 158.263671875 C 524.2096557617188 158.263671875 524.5531005859375 158.1706237792969 524.703125 157.8876495361328 C 525.001953125 157.3236236572266 524.266357421875 156.5067291259766 524.703125 156.0504150390625 C 525.0012817382812 155.7392425537109 525.68603515625 155.7617645263672 526.0810546875 156.0504150390625 C 526.360107421875 156.2543334960938 526.3453979492188 156.4817199707031 526.5403442382812 156.7393798828125 C 527.0164184570312 157.3681793212891 528.2850952148438 157.5736999511719 528.8369140625 157.1986694335938 C 529.73095703125 156.5910186767578 528.507080078125 154.6196594238281 528.3775634765625 150.9980010986328 C 528.24853515625 147.3903503417969 529.3309326171875 145.65185546875 528.14794921875 144.5676574707031 C 527.5621337890625 144.0307312011719 526.533203125 143.7575073242188 526.0810546875 144.1083526611328 C 525.6405639648438 144.4500732421875 525.9737548828125 145.2081604003906 525.39208984375 145.7159423828125 C 525.07568359375 145.9919738769531 524.5686645507812 146.12451171875 524.2437744140625 145.9456024169922 C 523.8269653320312 145.7161712646484 523.8992919921875 145.0786437988281 523.7845458984375 144.7973175048828 C 523.2258911132812 143.4296569824219 516.5652465820312 146.3693389892578 510.3063354492188 146.3696594238281 C 509.4261474609375 146.3697052001953 508.554931640625 146.3116149902344 507.7086486816406 146.1752624511719 C 500.4630126953125 145.0076599121094 495.7818298339844 138.2074127197266 493.9293823242188 139.7449035644531 C 493.1122436523438 140.4230804443359 492.85205078125 142.7175598144531 491.6328430175781 144.7973175048828 C 491.3859252929688 145.2182769775391 491.1170043945312 145.6426696777344 491.1170043945312 145.6426696777344 C 490.6831970214844 146.3199310302734 490.2964477539062 146.84033203125 489.7955627441406 147.5531768798828 C 485.6275634765625 153.4863128662109 485.4969177246094 155.7755126953125 482.9059448242188 156.7393798828125 C 482.490234375 156.8939056396484 480.8052673339844 157.5208587646484 479.6907653808594 156.7393798828125 C 478.066650390625 155.6007385253906 478.7188720703125 152.2195434570312 478.0831909179688 152.1462707519531 C 477.7781677246094 152.111328125 477.6205749511719 152.8906707763672 476.4755859375 154.4428100585938 C 476.2011413574219 154.8148803710938 475.8337097167969 155.3095397949219 475.3273010253906 155.8207550048828 C 474.6999206542969 156.4543609619141 474.4006652832031 156.56689453125 472.8011169433594 157.6579895019531 C 470.92919921875 158.9348754882812 470.3125915527344 159.4812164306641 470.0452575683594 159.7248840332031 C 469.694580078125 160.0447692871094 469.4286499023438 160.3208618164062 468.89697265625 160.8731689453125 C 467.4274291992188 162.39990234375 467.2882690429688 162.7234954833984 466.6004333496094 163.3993835449219 C 465.3102416992188 164.6670532226562 463.9959106445312 165.2999725341797 463.1556091308594 165.6959228515625 C 461.7763366699219 166.3458251953125 460.8748168945312 166.7707672119141 459.7107849121094 166.6145324707031 C 458.8153686523438 166.4944152832031 458.721435546875 166.1588897705078 457.8735656738281 166.1552429199219 C 457.8690490722656 166.1552124023438 457.8644409179688 166.1552124023438 457.8599548339844 166.1552124023438 C 456.677978515625 166.1552124023438 456.5064086914062 166.8150787353516 455.11767578125 167.0738372802734 C 454.107666015625 167.2619018554688 453.7543029785156 166.9956207275391 453.0534362792969 166.99560546875 C 452.8573913574219 166.99560546875 452.6342468261719 167.0164184570312 452.3618469238281 167.0738372802734 C 451.2372131347656 167.3108367919922 451.2576599121094 167.7536010742188 450.0652770996094 168.2221221923828 C 448.642822265625 168.7809753417969 447.7164001464844 168.5032653808594 446.9208374023438 168.5032653808594 C 446.4956970214844 168.5032653808594 446.1080627441406 168.58251953125 445.7018432617188 168.9110717773438 C 444.9869384765625 169.4893493652344 445.2496643066406 170.0026092529297 444.0942687988281 171.2076416015625 C 443.7093505859375 171.6088409423828 443.6618041992188 171.5711822509766 442.7163391113281 172.3558959960938 C 441.3616027832031 173.4803009033203 440.607421875 174.1152801513672 439.9604797363281 175.1117553710938 C 439.48876953125 175.8381500244141 439.0257873535156 176.5512390136719 439.2715148925781 177.1786499023438 C 439.4423522949219 177.6147613525391 439.7967529296875 177.6039581298828 440.8790893554688 178.3269195556641 C 441.7014770507812 178.8764953613281 442.2570190429688 179.2473754882812 442.7163391113281 179.9345092773438 C 442.8628540039062 180.1538238525391 443.3058471679688 180.8322296142578 443.4053039550781 181.7717437744141 C 443.4693908691406 182.3770904541016 443.3237609863281 182.4549713134766 443.4053039550781 183.149658203125 C 443.4900207519531 183.8710174560547 443.7220153808594 184.4240417480469 443.8645935058594 184.7572631835938 C 444.187255859375 185.5116729736328 444.3485107421875 185.5192565917969 444.5535583496094 186.1351776123047 C 444.6745910644531 186.4989624023438 444.7108764648438 186.8369903564453 444.783203125 187.5131225585938 C 444.9198608398438 188.7897491455078 444.8091735839844 188.9870300292969 445.0128784179688 189.5800170898438 C 445.1708679199219 190.0402374267578 445.3160095214844 190.4623413085938 445.7018432617188 190.728271484375 C 446.3522033691406 191.1765594482422 447.1658325195312 190.8223724365234 447.6537780761719 190.8223724365234 C 447.8045654296875 190.8223724365234 447.9242248535156 190.8561706542969 447.9983825683594 190.9579315185547 C 448.2037048339844 191.2397155761719 447.7533569335938 191.6216430664062 447.5390930175781 192.7951812744141 C 447.42724609375 193.4076538085938 447.3385925292969 193.8941040039062 447.5390930175781 194.4027709960938 C 447.8429260253906 195.1734924316406 448.6315612792969 195.5407104492188 449.1466674804688 195.7806701660156 C 449.900634765625 196.1318206787109 450.1610412597656 195.9984130859375 451.2135620117188 196.4696502685547 C 451.8016967773438 196.7330780029297 451.6956176757812 196.7633819580078 452.1322021484375 196.9289703369141 C 452.463134765625 197.0543518066406 452.7674255371094 197.1289978027344 454.1990661621094 197.3882751464844 C 454.9215698242188 197.5191802978516 454.9906921386719 197.5265197753906 455.11767578125 197.6179351806641 C 455.5142822265625 197.9031524658203 455.439208984375 198.2607421875 455.8066711425781 199.2255096435547 C 456.1662902832031 200.1700897216797 456.364501953125 200.1585693359375 456.49560546875 200.8330841064453 C 456.6244506835938 201.4958801269531 456.5337524414062 202.0240936279297 456.49560546875 202.2110290527344 C 456.4563293457031 202.4041595458984 456.3534545898438 202.8244171142578 456.0363159179688 203.3592987060547 C 455.2993469238281 204.6019592285156 454.3880615234375 204.8072814941406 454.4287109375 205.196533203125 C 454.4905090332031 205.7879028320312 457.3118286132812 205.2539825439453 457.6438903808594 206.1151580810547 C 457.7757263183594 206.4571228027344 457.3690185546875 206.6066131591797 457.1846008300781 207.4931030273438 C 457.1625366210938 207.5994415283203 456.9025573730469 208.9440307617188 457.6438903808594 210.0193023681641 C 457.8627624511719 210.336669921875 458.0705871582031 210.4882507324219 458.3328552246094 210.708251953125 C 459.5408630371094 211.7217102050781 460.2748107910156 212.8194732666016 460.8590698242188 213.6937561035156 C 461.4839782714844 214.6289215087891 462.0165100097656 215.4253692626953 462.2369995117188 216.4496154785156 C 462.7245483398438 218.7135620117188 460.2454528808594 219.8030395507812 460.8590698242188 221.5020294189453 C 461.0834350585938 222.1230316162109 461.4915466308594 222.2828826904297 462.0073547363281 223.5689239501953 C 462.2728271484375 224.2307891845703 462.2604064941406 224.4271392822266 462.4666748046875 224.9468688964844 C 462.9317321777344 226.1190185546875 463.5896911621094 226.6201171875 464.07421875 227.2434234619141 C 465.2195129394531 228.7166290283203 465.7187805175781 231.2887725830078 464.76318359375 232.7551422119141 C 464.140380859375 233.7107238769531 462.9195251464844 234.1663818359375 461.7777099609375 234.5923614501953 C 460.3930969238281 235.1090698242188 459.6538391113281 235.02294921875 459.4811401367188 235.5110015869141 C 459.1887817382812 236.3368225097656 461.129150390625 237.0797576904297 461.0887145996094 238.4964904785156 C 461.052001953125 239.7825622558594 459.4273986816406 240.0774230957031 459.4811401367188 241.2523498535156 C 459.5259094238281 242.2320556640625 460.6599426269531 242.1123962402344 461.7777099609375 244.0082092285156 C 462.2312622070312 244.77734375 462.3818969726562 245.3691558837891 463.1556091308594 246.3047637939453 C 463.5722351074219 246.8086090087891 463.7804870605469 247.0605621337891 464.07421875 247.2233734130859 C 464.9454650878906 247.7068176269531 465.5613098144531 247.2103271484375 467.0860290527344 247.2103271484375 C 467.2228088378906 247.2103271484375 467.3667907714844 247.2143249511719 467.5190734863281 247.2233734130859 C 468.1838989257812 247.2628784179688 468.8457641601562 247.3021545410156 469.5859375 247.6826934814453 C 470.2606811523438 248.0294799804688 470.6990966796875 248.5050811767578 471.4231872558594 249.290283203125 C 471.7173767089844 249.6094970703125 471.6659545898438 249.5805511474609 472.5714721679688 250.668212890625 C 473.7206726074219 252.0484161376953 474.0028991699219 252.3341217041016 474.1790466308594 252.5054321289062 C 474.8018798828125 253.1114807128906 475.1417541503906 253.3053131103516 475.5569763183594 253.6537170410156 C 477.6707153320312 255.4277801513672 477.3668823242188 257.5473022460938 478.54248046875 257.7875061035156 C 479.6233825683594 258.0084533691406 480.5751953125 256.3588562011719 481.3164672851562 256.3588562011719 C 481.3890380859375 256.3588562011719 481.4595642089844 256.3746643066406 481.5280151367188 256.4095764160156 C 482.02978515625 256.6656494140625 481.6288146972656 257.5454406738281 482.4466247558594 258.7061157226562 C 482.9948120117188 259.4839782714844 483.6670227050781 259.787109375 483.8245544433594 259.8544006347656 C 484.0360412597656 259.9446411132812 484.3900146484375 260.0957946777344 484.7857055664062 260.0957946777344 M 484.7857055664062 262.0957946777344 L 484.7856140136719 262.0957946777344 C 483.9811096191406 262.0957641601562 483.3452453613281 261.8243713378906 483.0396423339844 261.6939392089844 C 482.5401916503906 261.4806213378906 481.5874938964844 260.9588928222656 480.8118286132812 259.8582458496094 C 480.6806640625 259.6720886230469 480.5687866210938 259.4889526367188 480.4730224609375 259.3109436035156 C 479.9912414550781 259.59130859375 479.4171447753906 259.807861328125 478.7444152832031 259.807861328125 C 478.5422668457031 259.807861328125 478.3395385742188 259.7873840332031 478.1419067382812 259.7470092773438 C 476.5606994628906 259.4238891601562 475.9943237304688 258.0949401855469 475.6195678710938 257.2155456542969 C 475.3131103515625 256.4963989257812 475.0236206054688 255.817138671875 474.2712097167969 255.1856536865234 C 474.1702880859375 255.1009521484375 474.0658569335938 255.0214233398438 473.9449462890625 254.9293365478516 C 473.6521911621094 254.7063293457031 473.287841796875 254.4288177490234 472.7842712402344 253.9388427734375 C 472.5394897460938 253.7007598876953 472.202392578125 253.3506011962891 471.0344848632812 251.9479522705078 C 470.6245422363281 251.4555358886719 470.4079895019531 251.1888427734375 470.2646789550781 251.0123596191406 C 470.0990905761719 250.8084411621094 470.0736389160156 250.777099609375 469.9524841308594 250.6456298828125 C 469.2965393066406 249.9343566894531 469.016845703125 249.6389007568359 468.6717224121094 249.4615173339844 C 468.3218688964844 249.2816619873047 468.0123596191406 249.2562103271484 467.4007263183594 249.2198791503906 C 467.2942504882812 249.2135314941406 467.1885070800781 249.2103424072266 467.0860290527344 249.2103424072266 C 466.6585693359375 249.2103424072266 466.3288269042969 249.2643737792969 465.979736328125 249.3215789794922 C 465.6397094726562 249.3773040771484 465.2881164550781 249.4349212646484 464.8887634277344 249.4349212646484 C 464.2488098144531 249.4349212646484 463.6649475097656 249.2835540771484 463.1038208007812 248.9721832275391 C 462.480224609375 248.6264953613281 462.1171875 248.1874542236328 461.61474609375 247.5797729492188 C 460.9442443847656 246.7690124511719 460.622314453125 246.1251525878906 460.3636474609375 245.6078033447266 C 460.2575073242188 245.3954925537109 460.1658020019531 245.212158203125 460.054931640625 245.0241088867188 C 459.6800537109375 244.3882751464844 459.3396911621094 244.1269378662109 458.9793090820312 243.8502502441406 C 458.4438171386719 243.4390716552734 457.5475463867188 242.7509155273438 457.4832153320312 241.3436737060547 C 457.4145812988281 239.8430328369141 458.3626098632812 238.9482574462891 458.8719482421875 238.4675598144531 C 458.8966369628906 238.4442443847656 458.9243774414062 238.4180603027344 458.9528503417969 238.3909149169922 C 458.8585205078125 238.2828674316406 458.7445678710938 238.163818359375 458.6614990234375 238.0769958496094 C 458.4108276367188 237.8150177001953 458.1266784667969 237.5180969238281 457.8968811035156 237.1535034179688 C 457.2735290527344 236.1644439697266 457.440673828125 235.2816925048828 457.5957946777344 234.8435363769531 C 457.7574462890625 234.3867492675781 458.1270141601562 233.7603607177734 458.9692687988281 233.3717041015625 C 459.3025207519531 233.2179107666016 459.6337890625 233.1343231201172 459.9844665527344 233.0458221435547 C 460.298828125 232.9664764404297 460.6551208496094 232.8765716552734 461.0784606933594 232.7185821533203 C 461.8563232421875 232.4283752441406 462.8241882324219 232.0672760009766 463.087646484375 231.6631011962891 C 463.4637756347656 231.0859222412109 463.2441101074219 229.4342193603516 462.4952392578125 228.4709320068359 C 462.4110107421875 228.3625793457031 462.3012084960938 228.2401428222656 462.1741027832031 228.0983581542969 C 461.7132873535156 227.5844116210938 461.0822143554688 226.8805389404297 460.607666015625 225.6844635009766 C 460.4740905761719 225.3479309082031 460.4032897949219 225.0977172851562 460.3463745117188 224.8966827392578 C 460.2945861816406 224.7137298583984 460.2537231445312 224.5692596435547 460.151123046875 224.3134613037109 C 459.9429016113281 223.7943420410156 459.7880249023438 223.5765991210938 459.6087036132812 223.324462890625 C 459.4115600585938 223.0472717285156 459.1661987304688 222.7023010253906 458.9780883789062 222.1816101074219 C 458.349365234375 220.4408721923828 459.1993713378906 219.0899200439453 459.7618408203125 218.1959533691406 C 460.2266845703125 217.4571228027344 460.3513488769531 217.1935119628906 460.2818298339844 216.8706817626953 C 460.1417541503906 216.2200164794922 459.7456665039062 215.6272735595703 459.1974792480469 214.8069000244141 C 458.653076171875 213.9922637939453 458.0374450683594 213.0710601806641 457.0474243164062 212.2404632568359 C 457.0170288085938 212.2149505615234 456.9873657226562 212.1904296875 456.9584045410156 212.1664733886719 C 456.6997375488281 211.9524993896484 456.3454895019531 211.6594390869141 455.9974060058594 211.1546783447266 C 455.0595092773438 209.7943115234375 455.0751953125 208.2691955566406 455.1608581542969 207.5086212158203 C 454.9174194335938 207.4892730712891 454.6753540039062 207.4623565673828 454.4450073242188 207.4161987304688 C 452.7436218261719 207.0752410888672 452.4798583984375 205.7901611328125 452.4395446777344 205.4044189453125 C 452.4006652832031 205.0322570800781 452.4266662597656 204.3056793212891 453.0373840332031 203.6199798583984 C 453.2223205566406 203.412353515625 453.4185485839844 203.2551727294922 453.5916442871094 203.1165161132812 C 453.8496704101562 202.9098968505859 454.0933227539062 202.7147216796875 454.3160705566406 202.339111328125 C 454.3941650390625 202.2073974609375 454.4957580566406 202.0089721679688 454.5356750488281 201.8125915527344 C 454.5532836914062 201.726318359375 454.5875549316406 201.4986724853516 454.5323486328125 201.2147521972656 C 454.5271301269531 201.1878967285156 454.5230102539062 201.1704711914062 454.5205078125 201.1606597900391 C 454.5077819824219 201.1361236572266 454.4817810058594 201.0897064208984 454.4602355957031 201.0512542724609 C 454.3378601074219 200.8328704833984 454.1529541015625 200.5028839111328 453.9375610351562 199.9371337890625 C 453.8506164550781 199.7088623046875 453.7838745117188 199.5090179443359 453.7303466796875 199.3358764648438 C 452.3101806640625 199.0776519775391 451.9111633300781 198.9839630126953 451.4236145019531 198.7992553710938 C 451.0621032714844 198.662109375 450.8713073730469 198.5538177490234 450.6920776367188 198.4457702636719 C 450.626220703125 198.4060974121094 450.57421875 198.3747406005859 450.3960266113281 198.2949371337891 C 450.0089721679688 198.1216430664062 449.8171997070312 198.0761108398438 449.5518188476562 198.0131225585938 C 449.2347106933594 197.9378356933594 448.8400573730469 197.8441314697266 448.3023071289062 197.5936889648438 C 447.6438903808594 197.2870025634766 446.27490234375 196.6492767333984 445.678466796875 195.1362915039062 C 445.3365478515625 194.268798828125 445.3966674804688 193.4845428466797 445.5044250488281 192.8190002441406 C 445.1687316894531 192.7221527099609 444.8553771972656 192.5738983154297 444.5667724609375 192.3749694824219 C 443.6380920410156 191.7348327636719 443.3270568847656 190.8289184570312 443.1212463378906 190.2294311523438 C 442.90576171875 189.6021575927734 442.88671875 189.1706237792969 442.8665466308594 188.7137145996094 C 442.8554382324219 188.4622192382812 442.8428649902344 188.1771545410156 442.7945556640625 187.7259979248047 C 442.7337036132812 187.1572113037109 442.7070007324219 186.9203338623047 442.6558227539062 186.7666015625 C 442.6210632324219 186.6621398925781 442.6194152832031 186.6594390869141 442.5328674316406 186.5186920166016 C 442.4149169921875 186.3268585205078 442.2366638183594 186.0369567871094 442.0257263183594 185.5437316894531 C 441.8678894042969 185.1748504638672 441.5391845703125 184.4066314697266 441.4189453125 183.3829345703125 C 441.3560485839844 182.8468933105469 441.3807678222656 182.5047912597656 441.4114990234375 182.2003173828125 C 441.4243774414062 182.072509765625 441.4251708984375 182.0648803710938 441.4164123535156 181.9823303222656 C 441.3836059570312 181.6721801757812 441.2614440917969 181.3570404052734 441.0533447265625 181.0455932617188 C 440.8247985839844 180.7036743164062 440.5138854980469 180.4883575439453 439.770263671875 179.9914093017578 C 439.4303588867188 179.7643585205078 439.1853942871094 179.6289978027344 438.9692687988281 179.5095977783203 C 438.4669799804688 179.2320556640625 437.7790222167969 178.8519439697266 437.4093017578125 177.9081726074219 C 436.7887878417969 176.3237152099609 437.6880493164062 174.9389038085938 438.2831115722656 174.0225372314453 C 439.1084899902344 172.751220703125 440.0860290527344 171.9398498535156 441.4390258789062 170.8169097900391 C 441.8610229492188 170.4666595458984 442.1242065429688 170.2631225585938 442.2983703613281 170.1284332275391 C 442.5122375488281 169.9630432128906 442.5296936035156 169.9495239257812 442.6510620117188 169.8230133056641 C 443.0448303222656 169.4123382568359 443.1536254882812 169.1833343505859 443.2913818359375 168.8933715820312 C 443.4772033691406 168.5021820068359 443.7580871582031 167.9109802246094 444.4440307617188 167.3561096191406 C 445.1536254882812 166.7822113037109 445.9637451171875 166.5032806396484 446.9208374023438 166.5032806396484 C 447.185546875 166.5032806396484 447.4278869628906 166.5223388671875 447.6622619628906 166.540771484375 C 447.8682861328125 166.5569915771484 448.0628967285156 166.5722961425781 448.2532653808594 166.5722961425781 C 448.521240234375 166.5722808837891 448.8592224121094 166.5471343994141 449.3339233398438 166.3606414794922 C 449.6453552246094 166.2382507324219 449.7784423828125 166.1441497802734 449.9989624023438 165.9882507324219 C 450.3904418945312 165.7114562988281 450.9266357421875 165.3323516845703 451.9494323730469 165.1168212890625 C 452.3363647460938 165.0352630615234 452.697509765625 164.9955902099609 453.0534057617188 164.9955902099609 C 453.4774475097656 164.9955902099609 453.8169860839844 165.0531005859375 454.0649108886719 165.0950927734375 C 454.2481994628906 165.1261291503906 454.3408508300781 165.1410522460938 454.4432678222656 165.1410522460938 C 454.5299377441406 165.1410522460938 454.6307678222656 165.1301116943359 454.7515258789062 165.1076354980469 C 455.089111328125 165.0447387695312 455.2488403320312 164.9577026367188 455.5387878417969 164.7996978759766 C 456.0097351074219 164.5430603027344 456.7214660644531 164.1552124023438 457.8599548339844 164.1552124023438 L 457.8823852539062 164.1552581787109 C 458.7350769042969 164.158935546875 459.2560729980469 164.3754730224609 459.600830078125 164.5187835693359 C 459.7730102539062 164.59033203125 459.8249816894531 164.6119384765625 459.9766845703125 164.6322937011719 C 460.0501708984375 164.6421508789062 460.119140625 164.6469421386719 460.1876831054688 164.6469421386719 C 460.6673278808594 164.6469116210938 461.2427062988281 164.3863525390625 462.3024597167969 163.8870239257812 C 463.0282287597656 163.5450439453125 464.1240234375 163.0287170410156 465.19873046875 161.9727783203125 C 465.4447326660156 161.7310333251953 465.6034240722656 161.5449371337891 465.8436279296875 161.2632293701172 C 466.1648254394531 160.8865203857422 466.6047668457031 160.3705902099609 467.4560241699219 159.4861907958984 C 467.9985961914062 158.9225769042969 468.2974243164062 158.6121368408203 468.6973876953125 158.2472991943359 C 469.126220703125 157.8564300537109 469.8514709472656 157.2490386962891 471.6741027832031 156.0057830810547 C 472.1349792480469 155.6913909912109 472.4891052246094 155.4572143554688 472.7736511230469 155.2690582275391 C 473.4693603515625 154.8089599609375 473.6097412109375 154.7128601074219 473.9061279296875 154.4135437011719 C 474.3204956054688 153.9952392578125 474.6358032226562 153.5677337646484 474.8660583496094 153.2555999755859 C 475.3358764648438 152.6187438964844 475.614501953125 152.1318969726562 475.8179931640625 151.7764129638672 C 475.9634704589844 151.5222778320312 476.0890808105469 151.3027954101562 476.2442321777344 151.0971984863281 C 476.8694458007812 150.2688140869141 477.6524963378906 150.1451416015625 478.0636291503906 150.1451416015625 C 478.1464538574219 150.1451416015625 478.230224609375 150.1499633789062 478.3126831054688 150.1594696044922 C 478.6802673339844 150.2018585205078 479.9103698730469 150.4655151367188 480.28369140625 152.0770416259766 C 480.3660583496094 152.4325103759766 480.4031982421875 152.8204956054688 480.4425048828125 153.2312316894531 C 480.4847106933594 153.6719360351562 480.5325317382812 154.1714172363281 480.6359558105469 154.5826721191406 C 480.7235412597656 154.9309844970703 480.8126831054688 155.0644683837891 480.8402099609375 155.0995330810547 C 480.8703308105469 155.1089630126953 480.9422912597656 155.1236724853516 481.0601806640625 155.1236724853516 C 481.512451171875 155.1236572265625 482.0363159179688 154.9289093017578 482.2084655761719 154.8649291992188 C 483.0882263183594 154.5376586914062 483.4257507324219 154.0611572265625 484.7570495605469 151.7752532958984 C 485.5176696777344 150.4692535400391 486.5593566894531 148.6806182861328 488.1590270996094 146.4035186767578 C 488.2916564941406 146.2147369384766 488.4162902832031 146.0394134521484 488.5359802246094 145.8710784912109 C 488.8579406738281 145.418212890625 489.1361694335938 145.02685546875 489.4300231933594 144.568359375 C 489.4565124511719 144.5264129638672 489.6939697265625 144.1498107910156 489.90771484375 143.7854156494141 C 490.3936767578125 142.9564514160156 490.7182312011719 142.0225524902344 491.0046081542969 141.1985931396484 C 491.4306030273438 139.972900390625 491.7984619140625 138.9143371582031 492.652099609375 138.2059020996094 C 493.1929626464844 137.7570343017578 493.8577880859375 137.5197906494141 494.5747985839844 137.5197906494141 C 496.0832214355469 137.5197906494141 497.4681396484375 138.5200958251953 499.3849487304688 139.9045562744141 C 501.6903686523438 141.5696716308594 504.5595092773438 143.6419982910156 508.0268249511719 144.2007293701172 C 508.7227172851562 144.3128509521484 509.4896240234375 144.3696899414062 510.3062438964844 144.3696594238281 C 513.1658935546875 144.3695220947266 516.1944580078125 143.6907806396484 518.6279907226562 143.1454010009766 C 520.4000854492188 142.7482604980469 521.7998046875 142.4345703125 522.8601684570312 142.4345703125 C 523.584716796875 142.4345703125 524.130615234375 142.5899658203125 524.5411987304688 142.8149566650391 C 524.633056640625 142.7159271240234 524.7371215820312 142.6196594238281 524.8551635742188 142.5280914306641 C 525.34130859375 142.1508026123047 525.9567260742188 141.9512329101562 526.6344604492188 141.9512329101562 C 527.6329345703125 141.9512329101562 528.730712890625 142.3888092041016 529.499267578125 143.0932312011719 C 530.203125 143.7382965087891 530.6031494140625 144.5787811279297 530.6883544921875 145.5912628173828 C 530.7459106445312 146.2761993408203 530.6619262695312 146.9591369628906 530.5645751953125 147.7498931884766 C 530.4549560546875 148.6409759521484 530.3306274414062 149.6509094238281 530.3762817382812 150.926513671875 C 530.42724609375 152.3507537841797 530.6719970703125 153.5077972412109 530.86865234375 154.4375 C 531.0162353515625 155.1350402832031 531.1436767578125 155.7374420166016 531.1596069335938 156.3075408935547 C 531.2008666992188 157.7853546142578 530.4264526367188 158.5365295410156 529.961181640625 158.852783203125 C 529.4478149414062 159.2016754150391 528.80029296875 159.3860626220703 528.088623046875 159.3860626220703 C 527.564453125 159.3860626220703 526.9414672851562 159.2805633544922 526.3518676757812 159.0246887207031 C 526.0018920898438 159.5596771240234 525.2567749023438 160.263671875 523.7593383789062 160.263671875 C 523.1904907226562 160.263671875 522.5888671875 160.1697998046875 522.007080078125 160.0790100097656 C 521.5870971679688 160.0134887695312 521.1551513671875 159.9460906982422 520.7991943359375 159.9254302978516 C 520.8167114257812 160.0573577880859 520.8451538085938 160.2227478027344 520.8905639648438 160.4275360107422 C 521.0211181640625 161.0166778564453 521.2413940429688 161.7125549316406 521.4544067382812 162.3855438232422 C 521.7513427734375 163.3238372802734 522.0584106445312 164.2940979003906 522.19091796875 165.17333984375 C 522.2825317382812 165.7813720703125 522.2857055664062 166.3079986572266 522.2006225585938 166.7833099365234 C 522.0263671875 167.7566223144531 521.5140380859375 168.3341827392578 521.1149291992188 168.6472930908203 C 520.3175659179688 169.2729949951172 519.3385009765625 169.3253936767578 518.4833374023438 169.3253936767578 C 518.1406860351562 169.3253936767578 517.7518920898438 169.3149108886719 517.3016967773438 169.3027954101562 C 516.38818359375 169.2781829833984 515.5272216796875 169.2549591064453 514.6687622070312 168.9757995605469 C 512.5609130859375 168.2902984619141 511.5720520019531 166.4453125 510.9201965332031 165.1696624755859 C 510.7777404785156 165.2767333984375 510.6198120117188 165.3903350830078 510.4442749023438 165.5102233886719 C 510.3684387207031 165.56201171875 510.2949523925781 165.6111297607422 510.2239074707031 165.6576538085938 C 510.2522277832031 165.6835784912109 510.2797546386719 165.708740234375 510.3062438964844 165.7329711914062 C 511.6571655273438 166.9681701660156 513.5073852539062 168.6598358154297 513.3804321289062 171.0826110839844 C 513.3355712890625 171.9404296875 513.0615844726562 172.3301696777344 512.1537475585938 173.62158203125 C 511.8689270019531 174.0267639160156 511.4788513183594 174.5816802978516 510.9616088867188 175.3301696777344 C 510.7547302246094 175.6295623779297 510.5654907226562 175.9048767089844 510.3916625976562 176.1577758789062 C 509.6412048339844 177.2496490478516 509.188232421875 177.90869140625 508.769287109375 178.39404296875 C 508.4752502441406 178.7346496582031 507.6941833496094 179.6394805908203 506.3806457519531 179.6394805908203 C 506.3248596191406 179.6394805908203 506.2680053710938 179.6377716064453 506.2116088867188 179.6343994140625 C 505.6128845214844 179.5985565185547 505.1169128417969 179.3910217285156 504.7062683105469 179.1080932617188 C 504.2350158691406 179.8505859375 503.6135864257812 180.1504516601562 503.1362609863281 180.2684631347656 C 502.9840087890625 180.3060760498047 502.8284606933594 180.3291320800781 502.6720886230469 180.3373718261719 C 502.674072265625 180.3638458251953 502.6760864257812 180.3903350830078 502.6780700683594 180.4166564941406 C 502.7204284667969 180.9799346923828 502.7684020996094 181.6183776855469 502.8148193359375 182.3307495117188 C 502.9927673339844 185.0631103515625 503.0313415527344 186.2166290283203 502.1872253417969 187.3379974365234 C 501.2081298828125 188.6388702392578 499.5216979980469 189.3265380859375 497.310302734375 189.3265380859375 C 496.7962036132812 189.3265380859375 496.4067687988281 189.2882690429688 496.2601623535156 189.2738800048828 C 495.9993286132812 189.2483520507812 495.6195983886719 189.1951904296875 495.1640014648438 189.0845642089844 C 495.156005859375 189.2254943847656 495.1419677734375 189.3482360839844 495.1303405761719 189.4498291015625 C 495.1288757324219 189.4626159667969 495.1272888183594 189.4764251708984 495.1257019042969 189.490478515625 C 495.1394348144531 189.5000762939453 495.1528930664062 189.5094451904297 495.1654663085938 189.5182037353516 C 495.5090026855469 189.7575225830078 496.0281677246094 190.1191711425781 496.6172485351562 190.8296508789062 C 497.1284484863281 191.4460144042969 498.3260498046875 192.8899383544922 498.2234497070312 194.9610290527344 C 498.1631774902344 196.1781311035156 497.6624450683594 197.3282928466797 496.775390625 198.2871551513672 C 495.8186950683594 199.3202972412109 494.8125915527344 199.8544769287109 493.7827453613281 199.876953125 C 493.9433898925781 200.1638488769531 494.0876770019531 200.5498657226562 494.0920715332031 201.0450439453125 C 494.096435546875 201.5696411132812 493.9432067871094 202.3535614013672 493.1885070800781 203.1146240234375 C 492.2512512207031 204.0597229003906 490.6572875976562 204.6703948974609 489.1276550292969 204.6703948974609 L 489.09521484375 204.6703033447266 C 488.7186889648438 204.6681213378906 487.9364624023438 204.6635894775391 487.0675659179688 204.2313690185547 C 485.873779296875 203.6377258300781 485.3384094238281 202.6755218505859 485.0318603515625 201.9021453857422 C 484.5279541015625 202.161865234375 483.8656921386719 202.4298553466797 483.0116577148438 202.5751190185547 C 482.646728515625 202.6371612548828 482.3080139160156 202.6673126220703 481.9761047363281 202.6673126220703 C 481.5011901855469 202.6673126220703 481.138427734375 202.6046295166016 480.8735656738281 202.5588836669922 C 480.7254333496094 202.5332794189453 480.6388244628906 202.518798828125 480.5812683105469 202.518798828125 C 480.5340270996094 202.518798828125 480.4683227539062 202.5287933349609 480.385986328125 202.5484924316406 C 480.0494995117188 202.6290283203125 479.7399291992188 202.7929229736328 479.4884643554688 202.9719085693359 L 479.5796813964844 203.0271911621094 C 479.6290893554688 203.0571746826172 480.8034057617188 203.7704010009766 482.1729125976562 204.6772613525391 C 483.2735290527344 205.4061737060547 483.8657531738281 205.8240814208984 484.2512512207031 206.6309204101562 C 484.6321716308594 207.4284820556641 484.5750732421875 208.0613098144531 484.5145874023438 208.7313232421875 C 484.4929809570312 208.9709777832031 484.466064453125 209.2692413330078 484.4434814453125 209.671875 C 484.4417419433594 209.7027893066406 484.4400939941406 209.7331390380859 484.4385375976562 209.7629241943359 C 484.6205444335938 209.7276000976562 484.8078002929688 209.7096405029297 484.9983215332031 209.7096405029297 C 486.0542907714844 209.7096405029297 487.0018615722656 210.2442016601562 488.0050659179688 210.8101196289062 C 488.9666442871094 211.3525543212891 490.0565185546875 211.9673767089844 491.0254516601562 211.9673156738281 C 491.1331481933594 211.9673004150391 491.2398681640625 211.9596557617188 491.342529296875 211.9445953369141 C 491.8156127929688 211.8752136230469 492.2465515136719 211.6452026367188 492.3726501464844 211.5624237060547 C 492.8693542480469 211.2363433837891 493.1222534179688 210.7906799316406 493.3254699707031 210.4325714111328 L 493.3384704589844 210.4096374511719 C 494.220458984375 208.8560943603516 494.8569641113281 207.7349395751953 495.4047241210938 206.9144592285156 C 496.0475769042969 205.9515380859375 496.8009948730469 205.0329742431641 497.9510803222656 204.8335418701172 C 498.1130981445312 204.805419921875 498.2771911621094 204.7911529541016 498.4386291503906 204.7911529541016 C 499.3084106445312 204.7911529541016 500.0982971191406 205.1873016357422 500.786376953125 205.9685516357422 C 501.1715087890625 206.4058227539062 501.5394287109375 206.9656372070312 502.0052185058594 207.6743927001953 C 502.6530456542969 208.6600799560547 503.5402526855469 210.0100402832031 504.9194641113281 211.7055206298828 C 505.1040344238281 211.9324035644531 505.3039245605469 212.1730804443359 505.5155944824219 212.4278717041016 C 506.2533569335938 213.3160552978516 507.0895385742188 214.3227233886719 507.69140625 215.2533416748047 C 508.0980224609375 215.8820953369141 509.3355102539062 217.7955169677734 508.2036437988281 219.4269409179688 C 508.1153564453125 219.5541381835938 508.0242004394531 219.6716613769531 507.9330444335938 219.7794799804688 C 508.096435546875 219.8205871582031 508.2550354003906 219.8806762695312 508.4044799804688 219.9586791992188 C 508.748046875 220.1380767822266 509.5506896972656 220.6909027099609 509.5889587402344 221.9494934082031 C 509.5975646972656 222.232421875 509.5680847167969 222.5136413574219 509.5339660644531 222.8392791748047 C 509.5140686035156 223.0292358398438 509.4915161132812 223.2445526123047 509.4735717773438 223.4869232177734 C 509.4303588867188 224.0682373046875 509.39306640625 224.5697174072266 509.4648132324219 225.1680297851562 C 509.5436401367188 225.8256988525391 509.7210083007812 226.3161773681641 509.7936096191406 226.4965362548828 C 510.0422058105469 227.1147155761719 510.3587036132812 227.5264892578125 510.4196166992188 227.602783203125 C 510.7569885253906 228.0257110595703 511.0315246582031 228.1714935302734 511.3790893554688 228.3560791015625 C 511.786865234375 228.5726318359375 512.4025268554688 228.8995361328125 512.7924194335938 229.6119384765625 C 512.8328857421875 229.6858367919922 512.868896484375 229.7625427246094 512.9000854492188 229.8414764404297 C 513.1064453125 230.3324890136719 513.2855224609375 231.2006378173828 512.703369140625 232.2522125244141 C 512.4638671875 232.6847839355469 512.1114501953125 233.1240997314453 511.5942077636719 233.6347808837891 C 510.8116149902344 234.4074401855469 509.6780700683594 235.3123016357422 508.3655090332031 236.3600158691406 C 505.8095397949219 238.4002990722656 502.6285705566406 240.9394989013672 499.7984619140625 244.1763763427734 C 495.1345825195312 249.5086212158203 489.6595458984375 256.3526306152344 488.6591491699219 258.7794189453125 L 488.6447448730469 258.8146057128906 C 488.5635070800781 259.0135803222656 488.373291015625 259.4795227050781 488.0725708007812 259.9788513183594 C 487.1430358886719 261.5231018066406 486.0120544433594 261.9672241210938 485.2270202636719 262.0678405761719 C 485.0824890136719 262.0863647460938 484.9339294433594 262.0957946777344 484.7857055664062 262.0957946777344 Z" stroke="none" fill="#ff85e7"/>
      </g>
      <g id="パス_1070" data-name="パス 1070" transform="translate(-637.032 -307.901)" fill="#ff85e7" stroke-miterlimit="10">
        <path d="M 710.6091918945312 382.0868225097656 C 709.8826293945312 382.0868225097656 709.2501220703125 381.7146301269531 708.3746948242188 381.1994934082031 L 708.265380859375 381.1353149414062 C 707.660400390625 380.7803955078125 706.9746704101562 380.3781433105469 706.30078125 379.6281127929688 C 706.1185913085938 379.4253540039062 705.9840698242188 379.2499694824219 705.85400390625 379.080322265625 C 705.681884765625 378.8558959960938 705.50390625 378.6238098144531 705.168212890625 378.2672424316406 C 704.895751953125 377.9778747558594 704.7161865234375 377.80517578125 704.5577392578125 377.6528015136719 C 704.4569091796875 377.5558471679688 704.3616943359375 377.4642639160156 704.260009765625 377.3594970703125 C 703.9102783203125 376.9991760253906 703.7721557617188 376.7606201171875 703.6259765625 376.5080871582031 C 703.5211791992188 376.3270874023438 703.4024658203125 376.1219787597656 703.1383666992188 375.7625122070312 C 702.89990234375 375.4378662109375 702.780517578125 375.3101806640625 702.6541748046875 375.1750183105469 C 702.50390625 375.0142517089844 702.3485107421875 374.8480529785156 702.0914306640625 374.4805908203125 C 701.7993774414062 374.0629577636719 701.6728515625 373.8081665039062 701.5504760742188 373.5617370605469 C 701.454833984375 373.369140625 701.3558959960938 373.1700134277344 701.1431274414062 372.8280639648438 C 700.9835205078125 372.5715942382812 700.9037475585938 372.4658813476562 700.7448120117188 372.2553100585938 C 700.594970703125 372.0567321777344 700.3897094726562 371.7847595214844 700.02587890625 371.2673645019531 C 699.1491088867188 370.0205078125 698.7376098632812 369.3856201171875 698.9625244140625 368.5846252441406 C 699.1871337890625 367.7840270996094 699.8917846679688 367.3789672851562 700.23046875 367.184326171875 C 700.5810546875 366.9828491210938 700.8488159179688 366.9158325195312 701.0443725585938 366.8668823242188 C 701.1865844726562 366.831298828125 701.2295532226562 366.820556640625 701.3306884765625 366.7544860839844 C 701.4933471679688 366.6482238769531 701.5903930664062 366.5282897949219 701.7772216796875 366.2886047363281 C 701.9236450195312 366.1007690429688 701.9728393554688 365.9988403320312 702.0473022460938 365.8445739746094 C 702.1312255859375 365.670654296875 702.2357177734375 365.4541931152344 702.4488525390625 365.1633911132812 C 702.7611083984375 364.7370300292969 703.0162963867188 364.5532531738281 703.1851806640625 364.4316101074219 C 703.2868041992188 364.3584289550781 703.2928466796875 364.3540649414062 703.3444213867188 364.2774658203125 C 703.4197998046875 364.1655578613281 703.4287109375 364.1254577636719 703.47607421875 363.8452453613281 C 703.5118408203125 363.6337585449219 703.5607299804688 363.3441162109375 703.6713256835938 362.9550476074219 C 703.7471923828125 362.6879577636719 703.9780883789062 361.874755859375 704.4771728515625 361.0860595703125 C 704.8143920898438 360.5530395507812 705.1390991210938 360.2446899414062 706.2738037109375 359.2584228515625 C 707.1729125976562 358.4767761230469 707.624267578125 358.0843811035156 707.913818359375 357.8534545898438 C 708.420654296875 357.44921875 708.8092651367188 357.1644897460938 709.1214599609375 356.9356994628906 C 709.7789916992188 356.4539489746094 709.8314819335938 356.3972778320312 709.895263671875 356.2236022949219 C 709.9436645507812 356.0918579101562 709.9411010742188 356.0408935546875 709.9335327148438 355.8895874023438 C 709.9207763671875 355.6358032226562 709.8995361328125 355.2110900878906 710.1957397460938 354.6936340332031 C 710.72216796875 353.7745971679688 711.862060546875 353.2038269042969 713.1707763671875 353.2038269042969 C 713.4662475585938 353.2038269042969 713.7562866210938 353.2344665527344 714.0328979492188 353.2948913574219 C 714.2391357421875 353.3399047851562 716.0648803710938 353.779541015625 716.6011352539062 355.3212280273438 C 716.7984008789062 355.8878479003906 716.7120361328125 356.3099365234375 716.6549682617188 356.5892333984375 C 716.6173706054688 356.7729797363281 716.5985107421875 356.8652038574219 716.6376953125 357.0635070800781 C 716.7423095703125 357.5929870605469 717.1389770507812 358.0023498535156 717.5226440429688 358.3982238769531 C 717.7606201171875 358.643798828125 717.9141845703125 358.7489013671875 718.1085815429688 358.8819274902344 C 718.3886108398438 359.0735473632812 718.7059936523438 359.2907409667969 719.1642456054688 359.8130798339844 C 719.278076171875 359.9429016113281 719.36328125 360.0487670898438 719.4317016601562 360.1338806152344 C 719.4658813476562 360.1764221191406 719.5066528320312 360.22705078125 719.5321655273438 360.2562561035156 C 719.5731811523438 360.2527160644531 719.6577758789062 360.2324829101562 719.72705078125 360.2159423828125 C 719.8989868164062 360.1748657226562 720.1344604492188 360.1185913085938 720.41259765625 360.1185913085938 C 720.608642578125 360.1185913085938 720.8035888671875 360.1467590332031 720.9920654296875 360.2023620605469 C 721.6492309570312 360.3960876464844 722.2339477539062 360.9164428710938 722.5960693359375 361.6299133300781 C 722.9302368164062 362.2882995605469 723.0040283203125 362.9940795898438 722.7985229492188 363.5663452148438 C 722.696044921875 363.8517456054688 722.5401611328125 364.0628967285156 722.391357421875 364.2186279296875 C 722.5686645507812 364.4236450195312 722.7606811523438 364.7085571289062 722.83837890625 365.1012268066406 C 723.0220947265625 366.0306701660156 722.4175415039062 366.7451171875 721.9317626953125 367.3191833496094 C 720.3598022460938 369.1769409179688 719.4937133789062 370.2003479003906 718.2294311523438 370.2003479003906 C 718.2293090820312 370.2003479003906 718.2293090820312 370.2003479003906 718.2291259765625 370.2003479003906 C 718.2002563476562 370.2003479003906 718.1710205078125 370.1997375488281 718.1419677734375 370.1985473632812 C 717.5721435546875 370.17529296875 717.1951293945312 369.9625549316406 716.9456787109375 369.82177734375 C 716.811767578125 369.7462158203125 716.7734985351562 369.7277526855469 716.7505493164062 369.7277526855469 C 716.7428588867188 369.7277526855469 716.7294921875 369.7283325195312 716.7095947265625 369.7310180664062 C 716.4332885742188 369.7684631347656 716.1641235351562 370.0740966796875 715.9478149414062 370.3196411132812 C 715.5064086914062 370.8206176757812 715.2393798828125 371.3794860839844 715.154052734375 371.9809265136719 C 715.0438232421875 372.7575073242188 715.294189453125 373.3519592285156 715.5592041015625 373.9813537597656 C 715.8890380859375 374.7644348144531 716.2994995117188 375.739013671875 715.753173828125 376.8688354492188 C 715.3816528320312 377.6362609863281 714.864501953125 378.1213989257812 714.2157592773438 378.3117370605469 C 714.03759765625 378.364013671875 713.855712890625 378.3905029296875 713.6751098632812 378.3905029296875 C 713.2864990234375 378.3905029296875 712.9824829101562 378.2711486816406 712.7605590820312 378.1840209960938 C 712.6666870117188 378.1471862792969 712.560302734375 378.1054077148438 712.5187377929688 378.1054077148438 C 712.5135498046875 378.1054077148438 712.507568359375 378.1060180664062 712.5003051757812 378.1072998046875 C 712.246337890625 378.1520690917969 711.946533203125 378.5320129394531 711.9481811523438 378.6959838867188 C 711.96435546875 378.7431945800781 712.0590209960938 378.8628234863281 712.1220703125 378.9424743652344 C 712.353759765625 379.235107421875 712.7849731445312 379.7798767089844 712.6141357421875 380.5532836914062 C 712.4484252929688 381.302734375 711.7968139648438 381.7831726074219 711.2890625 381.9669189453125 C 711.0704345703125 382.0463562011719 710.84130859375 382.0868225097656 710.6091918945312 382.0868225097656 Z" stroke="none"/>
        <path d="M 713.1707763671875 354.2038269042969 C 712.3178100585938 354.2038269042969 711.4367065429688 354.5390625 711.0635986328125 355.1904296875 C 710.771728515625 355.7002868652344 711.0792236328125 355.9007568359375 710.8339233398438 356.5683898925781 C 710.577392578125 357.2667846679688 710.1217651367188 357.3715209960938 708.537353515625 358.63525390625 C 708.266357421875 358.8513793945312 707.82080078125 359.2385864257812 706.9298095703125 360.01318359375 C 705.817138671875 360.9802856445312 705.576904296875 361.2182006835938 705.3222045898438 361.6207885742188 C 704.9094848632812 362.2730102539062 704.70947265625 362.9598999023438 704.6332397460938 363.2283630371094 C 704.387939453125 364.0916748046875 704.4996337890625 364.352294921875 704.1739501953125 364.8359375 C 703.8607177734375 365.3012084960938 703.6790771484375 365.1760864257812 703.25537109375 365.7545776367188 C 702.9151611328125 366.2187194824219 702.96337890625 366.3934936523438 702.5663452148438 366.9028625488281 C 702.3665771484375 367.1591491699219 702.1871337890625 367.3894958496094 701.87744140625 367.591796875 C 701.4141845703125 367.894287109375 701.2098388671875 367.7748413085938 700.7291259765625 368.0511169433594 C 700.480224609375 368.1941833496094 700.0396728515625 368.447265625 699.92529296875 368.8549194335938 C 699.8431396484375 369.1475219726562 699.9547119140625 369.4276733398438 700.8438720703125 370.692138671875 C 701.6038818359375 371.7728881835938 701.648681640625 371.7478637695312 701.9921875 372.2997436523438 C 702.5029296875 373.1205139160156 702.4442138671875 373.2401733398438 702.9108276367188 373.9073486328125 C 703.3455810546875 374.5287780761719 703.3995361328125 374.4288940429688 703.9442138671875 375.17041015625 C 704.593994140625 376.0548095703125 704.492431640625 376.1632080078125 704.977783203125 376.6631774902344 C 705.21728515625 376.9100646972656 705.433837890625 377.090576171875 705.8963623046875 377.581787109375 C 706.5235595703125 378.248046875 706.6632080078125 378.5353393554688 707.0446166992188 378.9597473144531 C 707.650634765625 379.6342163085938 708.2603759765625 379.9718017578125 708.8818359375 380.337646484375 C 709.8740234375 380.9215087890625 710.4057006835938 381.2238464355469 710.94873046875 381.026611328125 C 710.97216796875 381.0181274414062 711.5343017578125 380.8052368164062 711.6376953125 380.337646484375 C 711.7711181640625 379.7334594726562 710.9717407226562 379.458984375 710.94873046875 378.7301025390625 C 710.9269409179688 378.0358276367188 711.619140625 377.2471923828125 712.32666015625 377.1224975585938 C 712.8906860351562 377.0231628417969 713.2111206054688 377.3905029296875 713.6751098632812 377.3905029296875 C 713.7564086914062 377.3905029296875 713.842041015625 377.3792114257812 713.9342651367188 377.3521728515625 C 714.487060546875 377.1900024414062 714.7679443359375 376.6090087890625 714.8529052734375 376.4335327148438 C 715.5404663085938 375.0115356445312 713.8607177734375 373.9769287109375 714.1639404296875 371.8404235839844 C 714.3311157226562 370.6622924804688 714.9869384765625 369.8975524902344 715.1973876953125 369.6587219238281 C 715.4981689453125 369.3171997070312 715.9295654296875 368.8275756835938 716.5753173828125 368.7400817871094 C 717.3054809570312 368.6406860351562 717.4688720703125 369.1701965332031 718.182861328125 369.1994018554688 C 719.0039672851562 369.2342529296875 719.7244262695312 368.3797302246094 721.1683959960938 366.6732177734375 C 721.6890258789062 366.0579528808594 721.9356689453125 365.6914367675781 721.8573608398438 365.2952880859375 C 721.751953125 364.7624816894531 721.14404296875 364.6063232421875 721.1683959960938 364.14697265625 C 721.190185546875 363.7357177734375 721.685791015625 363.706298828125 721.8573608398438 363.2283630371094 C 722.1055908203125 362.537109375 721.50048828125 361.3948059082031 720.7091064453125 361.1614990234375 C 720.2474365234375 361.0252990722656 719.9193115234375 361.2567749023438 719.521484375 361.2568054199219 C 719.391357421875 361.2568054199219 719.2537231445312 361.2320251464844 719.1015014648438 361.1614990234375 C 718.818359375 361.0303344726562 718.759765625 360.8684692382812 718.4124755859375 360.4725341796875 C 717.7164306640625 359.6790771484375 717.4722900390625 359.7833251953125 716.804931640625 359.0945739746094 C 716.3585205078125 358.6339111328125 715.818603515625 358.0769653320312 715.6566772460938 357.2573547363281 C 715.4986572265625 356.4577026367188 715.8681640625 356.2574462890625 715.6566772460938 355.6497802734375 C 715.29638671875 354.614013671875 713.9078369140625 354.2911376953125 713.8194580078125 354.2718505859375 C 713.6113891601562 354.2264099121094 713.3919677734375 354.2038269042969 713.1707763671875 354.2038269042969 M 713.1707153320312 352.2038269042969 C 713.537841796875 352.2038269042969 713.8997192382812 352.2422180175781 714.246337890625 352.3179321289062 C 714.6738891601562 352.4112243652344 716.84521484375 352.9791564941406 717.545654296875 354.9927062988281 C 717.8331909179688 355.8188171386719 717.7040405273438 356.4503173828125 717.6347045898438 356.7895812988281 C 717.6295166015625 356.8149719238281 717.6229858398438 356.8468322753906 717.6187133789062 356.8695678710938 C 717.6187133789062 356.8695983886719 717.6187133789062 356.8695983886719 717.6187133789062 356.86962890625 C 717.6660766601562 357.1093139648438 717.9452514648438 357.3973693847656 718.2407836914062 357.7023315429688 C 718.4085693359375 357.87548828125 718.4970703125 357.93603515625 718.6732788085938 358.056640625 C 718.9692993164062 358.2592163085938 719.3746948242188 358.5365905761719 719.9159545898438 359.1536254882812 C 719.9168701171875 359.1546630859375 719.9177856445312 359.1557006835938 719.918701171875 359.15673828125 C 720.0642700195312 359.1346130371094 720.229736328125 359.1185913085938 720.41259765625 359.1185913085938 C 720.7044677734375 359.1185913085938 720.9946899414062 359.1605224609375 721.2750244140625 359.2432556152344 C 722.1948852539062 359.5144348144531 723.0015869140625 360.2194213867188 723.48779296875 361.1773071289062 C 723.9459838867188 362.0801086425781 724.0377807617188 363.0740661621094 723.7396850585938 363.904296875 C 723.6968994140625 364.0234985351562 723.6480102539062 364.13427734375 723.5952758789062 364.2369995117188 C 723.6893920898438 364.4317626953125 723.7693481445312 364.6544494628906 723.8193359375 364.9071655273438 C 724.096435546875 366.30908203125 723.21923828125 367.3457336425781 722.6951293945312 367.9651184082031 C 721.9273681640625 368.8724670410156 721.3726196289062 369.528076171875 720.8245239257812 370.0341186523438 C 720.2822875976562 370.5347595214844 719.4232788085938 371.2003479003906 718.229248046875 371.2003479003906 C 718.1868896484375 371.2003479003906 718.1439819335938 371.1994934082031 718.1013793945312 371.19775390625 C 717.5391235351562 371.1747741699219 717.1051635742188 371.0200805664062 716.79443359375 370.8724365234375 C 716.7593994140625 370.9111633300781 716.7258911132812 370.94921875 716.6983032226562 370.9805908203125 C 716.3878784179688 371.3328247070312 716.2015380859375 371.7165222167969 716.1441040039062 372.1213989257812 C 716.075927734375 372.6018371582031 716.212646484375 372.9564819335938 716.4808349609375 373.5932006835938 C 716.845458984375 374.4590148925781 717.396484375 375.7674255371094 716.6535034179688 377.3041381835938 C 716.0308837890625 378.5900573730469 715.1373291015625 379.0835266113281 714.4972534179688 379.2713012695312 C 714.2276000976562 379.3504028320312 713.9509887695312 379.3905029296875 713.6751098632812 379.3905029296875 C 713.6227416992188 379.3905029296875 713.5715942382812 379.3890686035156 713.5215454101562 379.3864135742188 C 713.6500244140625 379.7687377929688 713.7091674804688 380.2321472167969 713.5906372070312 380.7689208984375 C 713.3375854492188 381.913330078125 712.4119873046875 382.6236572265625 711.6300659179688 382.906982421875 C 711.3021240234375 383.026123046875 710.9581298828125 383.0868225097656 710.6091918945312 383.0868225097656 C 709.6102294921875 383.0868225097656 708.8026733398438 382.6116027832031 707.8675537109375 382.0613708496094 L 707.7593994140625 381.9978637695312 C 707.1246337890625 381.62548828125 706.3346557617188 381.1620483398438 705.5569458007812 380.2964477539062 C 705.3487548828125 380.0647888183594 705.195556640625 379.8650512695312 705.0604248046875 379.6888122558594 C 704.896240234375 379.4746704101562 704.7410888671875 379.2723999023438 704.4401245117188 378.9526672363281 C 704.1847534179688 378.6814880371094 704.0220336914062 378.5249938964844 703.8646850585938 378.3736572265625 C 703.7620849609375 378.2750244140625 703.656005859375 378.1730346679688 703.542236328125 378.0557556152344 C 703.1387939453125 377.6401672363281 702.9566650390625 377.347900390625 702.760498046875 377.0090637207031 C 702.6640625 376.8424377441406 702.5643310546875 376.6701354980469 702.3324584960938 376.3545837402344 C 702.1289672851562 376.0775451660156 702.038330078125 375.9806213378906 701.9236450195312 375.85791015625 C 701.72998046875 375.6507568359375 701.5473022460938 375.447265625 701.2720947265625 375.0538635253906 C 700.93701171875 374.5747680664062 700.787109375 374.2728576660156 700.65478515625 374.0065307617188 C 700.5618286132812 373.8193359375 700.4815673828125 373.6576843261719 700.2941284179688 373.3564147949219 C 700.1582641601562 373.1381225585938 700.1006469726562 373.061767578125 699.9466552734375 372.8576965332031 C 699.79248046875 372.6534423828125 699.5814208984375 372.3737182617188 699.2078857421875 371.8425903320312 C 698.3299560546875 370.5940856933594 697.6365356445312 369.6079406738281 697.999755859375 368.3142395019531 C 698.3346557617188 367.12060546875 699.3499145507812 366.5370178222656 699.7321166992188 366.3173522949219 C 700.2033081054688 366.0465087890625 700.5778198242188 365.9527893066406 700.8015747070312 365.8968200683594 C 700.8036499023438 365.8963012695312 700.8057861328125 365.895751953125 700.8079833984375 365.8952026367188 C 700.8497314453125 365.8519287109375 700.9200439453125 365.7616882324219 700.988525390625 365.673828125 C 701.0693969726562 365.5700988769531 701.0827026367188 365.5425109863281 701.1466674804688 365.409912109375 C 701.2376098632812 365.2215881347656 701.3749389648438 364.9369506835938 701.642333984375 364.5722045898438 C 701.9642944335938 364.132568359375 702.2435913085938 363.8873901367188 702.4856567382812 363.7048034667969 C 702.4871215820312 363.6959228515625 702.4886474609375 363.6871337890625 702.4900512695312 363.6786193847656 C 702.5274047851562 363.4575500488281 702.5838623046875 363.1234741210938 702.7094116210938 362.6817321777344 C 702.7949829101562 362.3803100585938 703.0556640625 361.4623413085938 703.6321411132812 360.5513305664062 C 704.0493774414062 359.891845703125 704.4590454101562 359.5108032226562 705.6177978515625 358.503662109375 C 706.5274658203125 357.7128295898438 706.9841918945312 357.3157958984375 707.2903442382812 357.0716247558594 C 707.8131103515625 356.6546630859375 708.2277221679688 356.3508605957031 708.5304565429688 356.1290588378906 C 708.6704711914062 356.0264587402344 708.8226318359375 355.9149780273438 708.9298706054688 355.8315124511719 C 708.917236328125 355.4879760742188 708.931640625 354.8889465332031 709.327880859375 354.1968078613281 C 710.0321044921875 352.9673461914062 711.5045166015625 352.2038269042969 713.1707153320312 352.2038269042969 Z" stroke="none" fill="#ff85e7"/>
      </g>
    </g>
    <g id="グループ_686" data-name="グループ 686" transform="translate(-23.022 -24.303)">
      <path id="合体_11" data-name="合体 11" d="M113.985,53.887a50.012,50.012,0,0,1-6.89,65.32l1.385,13.953L95.837,127.1a50.006,50.006,0,1,1,18.148-73.211Z" fill="#c937aa" opacity="0.5" style="mix-blend-mode: multiply;isolation: isolate"/>
      <path id="合体_12" data-name="合体 12" d="M114.1,110.926a50.008,50.008,0,1,0-11.257,7.889l12.642,6.062Z" fill="#ff6bdf" stroke="#fff" stroke-linecap="round" stroke-linejoin="round" stroke-width="2"/>
      <g id="楕円形_130" data-name="楕円形 130">
        <circle id="楕円形_191" data-name="楕円形 191" cx="46" cy="46" r="46" transform="translate(33.968 28.368)" fill="none"/>
        <circle id="楕円形_192" data-name="楕円形 192" cx="45" cy="45" r="45" transform="translate(34.968 29.368)" fill="none" stroke="#fff" stroke-linecap="round" stroke-width="2" stroke-dasharray="4 5"/>
      </g>
      <path id="交差_4" data-name="交差 4" d="M34.356,80.369h91.225a46.006,46.006,0,0,1-91.225,0Z" fill="#fff"/>
      <g id="グループ_411" data-name="グループ 411">
        <path id="パス_1069-2" data-name="パス 1069" d="M81.449,66.989c1.274-1.458,2.9-2.3,2.734-2.63h0c-.054-.1-.254-.1-.468-.369a1.4,1.4,0,0,1-.2-.345,1.583,1.583,0,0,1-.1-.394,2.186,2.186,0,0,1,0-.443c.016-.215.045-.321,0-.345s-.1.067-.246.1a.4.4,0,0,1-.2,0c-.137-.054-.286-.46-.148-.591.058-.055.127-.022.246-.1a.578.578,0,0,0,.148-.148c.137-.2-.368-.752-.684-1.14-.74-.91-.841-1.364-1.088-1.321-.144.025-.326.345-.689.985a1.065,1.065,0,0,1-.345.394,1.053,1.053,0,0,1-.394.148c-.681.1-1.262-.633-1.526-.443a.459.459,0,0,0-.148.2c-.05.129,0,.2-.049.246-.1.111-.54-.051-.542-.2,0-.086.15-.082.246-.246.059-.1.03-.149.049-.492.017-.3.045-.35,0-.443-.026-.055-.06-.091-.3-.246-.29-.192-.542-.345-.542-.345-.3-.185-.331-.2-.345-.246-.057-.205.27-.552.64-.64.248-.059.294.05.591,0,.413-.07.513-.315.689-.246.219.085.134.487.443.64a.522.522,0,0,0,.246.049c.311,0,.641-.181.64-.345,0-.067-.057-.074-.148-.246a1.282,1.282,0,0,1-.1-.246c-.046-.168-.109-.382,0-.492A.225.225,0,0,1,80.105,57c.075.044.047.138.148.246a.321.321,0,0,0,.148.1c.171.043.345-.144.394-.2A.719.719,0,0,0,81,56.7a.87.87,0,0,0-.246-.591c-.194-.234-.321-.206-.394-.394s.036-.273-.049-.443c-.065-.131-.184-.19-.394-.3-.337-.169-.445-.115-.542-.246-.117-.159.014-.276-.1-.492s-.312-.19-.394-.394a.459.459,0,0,1,.148-.542c.186-.092.458.111.591.246.343.351.166.681.542,1.083a1.445,1.445,0,0,0,.394.3,1.416,1.416,0,0,0,.492.148c.087.008.653.064.886-.246.073-.1.088-.2.049-.788-.047-.724-.1-1.094,0-1.132s.244.283.394.246c.182-.045.139-.558.3-.591s.254.429.492.443c.143.008.232-.148.64-.738s.439-.606.443-.689c.03-.577-.958-.986-.837-1.28.033-.081.109-.052.394-.246s.3-.293.394-.3c.3-.007.347.809.886.985a1.615,1.615,0,0,0,.443.049c.309.008.463.012.542-.049.338-.265-.5-1.523-.148-1.871.267-.261,1.054.143,1.182-.1.064-.121-.094-.3,0-.394a.249.249,0,0,1,.3,0c.06.044.057.092.1.148a.432.432,0,0,0,.492.1c.192-.13-.071-.553-.1-1.329s.2-1.146-.049-1.378c-.126-.115-.346-.174-.443-.1s-.023.236-.148.345a.237.237,0,0,1-.246.049c-.089-.049-.074-.186-.1-.246-.137-.334-1.975.532-3.446.3-1.553-.25-2.557-1.708-2.954-1.378-.175.145-.231.637-.492,1.083-.053.09-.111.181-.111.181-.093.145-.176.257-.283.41-.893,1.272-.921,1.763-1.477,1.969a.807.807,0,0,1-.689,0c-.348-.244-.208-.969-.345-.985-.066-.008-.1.16-.345.492a2.616,2.616,0,0,1-.246.3,3.22,3.22,0,0,1-.542.394,5.087,5.087,0,0,0-.591.443c-.075.069-.132.128-.246.246-.315.327-.345.4-.492.542a2.528,2.528,0,0,1-.738.492,1.282,1.282,0,0,1-.738.2c-.192-.026-.212-.1-.394-.1-.256,0-.292.141-.591.2-.277.052-.324-.056-.591,0-.241.051-.237.146-.492.246-.468.184-.685-.055-.935.148-.153.124-.1.234-.345.492a3.214,3.214,0,0,1-.3.246,2.63,2.63,0,0,0-.591.591c-.1.156-.2.309-.148.443.037.093.113.091.345.246a1.253,1.253,0,0,1,.394.345.889.889,0,0,1,.148.394c.014.13-.018.146,0,.3a1.188,1.188,0,0,0,.1.345c.069.162.1.163.148.3a1.382,1.382,0,0,1,.049.3,2.067,2.067,0,0,0,.049.443.45.45,0,0,0,.148.246c.182.126.425-.043.492.049.044.06-.052.142-.1.394a.6.6,0,0,0,0,.345.614.614,0,0,0,.345.3c.162.075.217.047.443.148.126.056.1.063.2.1a2.582,2.582,0,0,0,.443.1c.155.028.17.03.2.049.085.061.069.138.148.345s.12.2.148.345a.757.757,0,0,1,0,.3.787.787,0,0,1-.1.246c-.158.266-.353.31-.345.394.013.127.618.012.689.2.028.073-.059.1-.1.3a.758.758,0,0,0,.1.542.67.67,0,0,0,.148.148,2.815,2.815,0,0,1,.542.64,1.687,1.687,0,0,1,.3.591c.1.485-.427.719-.3,1.083.048.133.136.167.246.443.057.142.054.184.1.3a1.689,1.689,0,0,0,.345.492,1.141,1.141,0,0,1,.148,1.182,1.245,1.245,0,0,1-.64.394c-.3.111-.455.092-.492.2-.063.177.353.336.345.64-.008.276-.356.339-.345.591.01.21.253.184.492.591a2.72,2.72,0,0,0,.3.492.776.776,0,0,0,.2.2c.2.113.342-.024.738,0a1.028,1.028,0,0,1,.443.1,1.445,1.445,0,0,1,.394.345c.063.068.052.062.246.3a5.145,5.145,0,0,0,.345.394,3.383,3.383,0,0,0,.3.246c.453.38.388.835.64.886s.475-.379.64-.3c.108.055.022.243.2.492a.713.713,0,0,0,.3.246.475.475,0,0,0,.246.049.457.457,0,0,0,.3-.244,1.383,1.383,0,0,0,.1-.2A22.855,22.855,0,0,1,81.449,66.989Z" fill="#fff"/>
        <path id="パス_1070-2" data-name="パス 1070" d="M86.322,57.34a.4.4,0,0,0-.246-.443c-.131-.039-.212.061-.345,0-.061-.028-.073-.063-.148-.148-.149-.17-.2-.148-.345-.3a.8.8,0,0,1-.246-.394c-.034-.171.045-.214,0-.345-.077-.222-.375-.291-.394-.3a.566.566,0,0,0-.591.2c-.063.109,0,.152-.049.3s-.153.172-.492.443c-.058.046-.154.129-.345.3a1.612,1.612,0,0,0-.345.345,1.352,1.352,0,0,0-.148.345c-.053.185-.029.241-.1.345s-.106.073-.2.2c-.073.1-.063.137-.148.246a.578.578,0,0,1-.148.148c-.1.065-.143.039-.246.1-.053.031-.148.085-.172.172-.018.063.006.123.2.394.163.232.173.226.246.345.109.176.1.2.2.345s.1.112.221.271a2.722,2.722,0,0,0,.222.32c.051.053.1.092.2.2a3.814,3.814,0,0,1,.246.3,1.5,1.5,0,0,0,.394.3c.213.125.327.19.443.148a.237.237,0,0,0,.148-.148c.029-.13-.143-.188-.148-.345a.383.383,0,0,1,.3-.345c.142-.025.212.088.345.049a.357.357,0,0,0,.2-.2c.147-.3-.213-.527-.148-.985a.908.908,0,0,1,.222-.468.5.5,0,0,1,.3-.2c.157-.021.192.092.345.1.176.007.33-.176.64-.542.112-.132.164-.21.148-.3-.023-.114-.153-.148-.148-.246S86.285,57.443,86.322,57.34Z" fill="#fff"/>
      </g>
      <text id="北東エリア" transform="translate(81.698 101.369)" fill="#434343" font-size="14" font-family="NotoSansJP-Bold, Noto Sans JP" font-weight="700"><tspan x="-35" y="0">北東</tspan><tspan y="0">エリア</tspan></text>
    </g>
  </g>
</svg>
