<svg xmlns="http://www.w3.org/2000/svg" width="375" height="171.192" viewBox="0 0 375 171.192"><defs><style>.a{fill:#003fc8;}.b{fill:#25b8d8;}</style></defs><g transform="translate(0 0.574)"><path class="a" d="M0,143V20.769C69.571,5.174,136.6,1.076,166.076,0h28.813c29.733,1.085,97.693,5.247,167.92,21.185Q368.9,22.567,375,23.729V143Z" transform="translate(0 27.618)"/><path class="b" d="M749.647,105.479a1.867,1.867,0,0,0,1.941.6c.969-.324,1.292-1.489,1.744-2.405a5.7,5.7,0,0,1,4.766-3.11,7.864,7.864,0,0,1,4.612,1.507,37.992,37.992,0,0,1,3.781,3.165c.453.4,1.169.782,1.591.353.37-.376.119-1-.156-1.454a16.472,16.472,0,0,0-4.551-5.184,7.753,7.753,0,0,0-6.6-1.224c-2.222.719-4.151,2.673-5.591,4.511-2.45-1.351-4.805-2.788-7.562-2.315-2.649.454-4.721,2.563-6.135,4.849-.3.484-.562,1.159-.171,1.572a.963.963,0,0,0,1.227,0,3.984,3.984,0,0,0,.838-1.038,6.379,6.379,0,0,1,4.135-2.644,5.961,5.961,0,0,1,4.778,1.125,5.049,5.049,0,0,1,.867.905A8.144,8.144,0,0,0,749.647,105.479Z" transform="translate(-425.884 35.477) rotate(-9)"/><path class="b" d="M737.872,107.063a1.243,1.243,0,0,1-.917-.375c-.279-.3-.636-.971.109-2.178,1.253-2.026,3.393-4.551,6.476-5.079a6.908,6.908,0,0,1,1.165-.1c2.273,0,4.309,1.13,6.279,2.223l.075.042a12.645,12.645,0,0,1,5.565-4.345,6.763,6.763,0,0,1,2.088-.322,8.936,8.936,0,0,1,4.947,1.609,16.542,16.542,0,0,1,4.7,5.336c.706,1.156.357,1.791.085,2.066a1.124,1.124,0,0,1-.819.337,2.472,2.472,0,0,1-1.458-.665c-.3-.264-.6-.537-.9-.8a25.622,25.622,0,0,0-2.834-2.324,7.534,7.534,0,0,0-4.094-1.428c-.073,0-.146,0-.219,0a5.213,5.213,0,0,0-4.339,2.831c-.081.165-.158.338-.239.522a3.375,3.375,0,0,1-1.794,2.137,2.058,2.058,0,0,1-.654.1h0a2.458,2.458,0,0,1-1.828-.856,7.218,7.218,0,0,1-.527-.848,4.826,4.826,0,0,0-.764-.788,5.15,5.15,0,0,0-3.317-1.1,6.29,6.29,0,0,0-1.055.089,5.911,5.911,0,0,0-3.807,2.434c-.046.067-.091.135-.136.2a3.489,3.489,0,0,1-.82.955A1.68,1.68,0,0,1,737.872,107.063Zm6.833-6.732a5.906,5.906,0,0,0-1,.085c-2.715.465-4.65,2.769-5.794,4.619-.271.439-.364.827-.233.965a.265.265,0,0,0,.191.063.678.678,0,0,0,.378-.127,2.663,2.663,0,0,0,.574-.7c.049-.074.1-.147.147-.219a6.836,6.836,0,0,1,4.463-2.853,7.293,7.293,0,0,1,1.223-.1,6.148,6.148,0,0,1,3.959,1.338,5.548,5.548,0,0,1,.959,1.007c.009.014.018.028.026.042a7.387,7.387,0,0,0,.429.71,1.452,1.452,0,0,0,1.064.5h0a1.06,1.06,0,0,0,.337-.053c.576-.192.878-.873,1.2-1.594.082-.185.167-.376.257-.559a6.2,6.2,0,0,1,5.193-3.389c.086,0,.174-.006.262-.006a8.4,8.4,0,0,1,4.65,1.6,26.381,26.381,0,0,1,2.948,2.413c.289.261.588.531.884.791a1.5,1.5,0,0,0,.8.417.128.128,0,0,0,.107-.039c.105-.107.012-.453-.226-.843a15.616,15.616,0,0,0-4.405-5.031,7.929,7.929,0,0,0-4.384-1.435,5.766,5.766,0,0,0-1.78.273c-1.733.561-3.533,2.022-5.352,4.344a.5.5,0,0,1-.635.13l-.446-.247C748.554,101.349,746.718,100.33,744.7,100.33Z" transform="translate(-425.884 35.477) rotate(-9)"/><path class="b" d="M1823.5,299.862q1.078-1.205,2.252-2.321a7.1,7.1,0,0,1,2.414-1.679,4.8,4.8,0,0,1,3.913.476,8.482,8.482,0,0,1,2.831,2.863,17.355,17.355,0,0,1,2.454-2.964,4.926,4.926,0,0,1,1.5-1.08,2.86,2.86,0,0,1,3.933,2.392s-.057-.048.068-.669a3.868,3.868,0,0,0-1.539-3.9,3.62,3.62,0,0,0-4.163.143,6.906,6.906,0,0,0-1.895,3.3c-1.141-1.2-2.4-2.473-4.031-2.762a5.6,5.6,0,0,0-4.135,1.192,9.537,9.537,0,0,0-3.5,4.858" transform="translate(-1414.774 -574.046) rotate(9)"/><path class="b" d="M1823.5,300.362a.5.5,0,0,1-.373-.833l.013-.015a10.021,10.021,0,0,1,3.668-5.07,6.051,6.051,0,0,1,4.515-1.279,7.322,7.322,0,0,1,3.745,2.325,6.186,6.186,0,0,1,1.782-2.763,4.111,4.111,0,0,1,4.754-.167,4.38,4.38,0,0,1,1.75,4.418,3.763,3.763,0,0,0-.069.437q.005.044.009.088a.5.5,0,0,1-.819.428.562.562,0,0,1-.191-.462,2.359,2.359,0,0,0-3.231-1.85,4.494,4.494,0,0,0-1.343.977,16.864,16.864,0,0,0-2.383,2.879.5.5,0,0,1-.418.226h0a.5.5,0,0,1-.418-.23,7.977,7.977,0,0,0-2.658-2.7,4.307,4.307,0,0,0-3.5-.439,6.743,6.743,0,0,0-2.236,1.57c-.77.731-1.518,1.5-2.223,2.292A.5.5,0,0,1,1823.5,300.362Zm6.024-5.224a5.7,5.7,0,0,1,2.8.766,8.436,8.436,0,0,1,2.584,2.413,17.875,17.875,0,0,1,2.106-2.439,5.371,5.371,0,0,1,1.658-1.183,3.419,3.419,0,0,1,3.02.238,3.283,3.283,0,0,1,.686.559,3.256,3.256,0,0,0-1.333-2.1,3.13,3.13,0,0,0-3.572.119,6.608,6.608,0,0,0-1.734,3.074.5.5,0,0,1-.835.18c-1.214-1.281-2.334-2.362-3.755-2.614a5.23,5.23,0,0,0-3.756,1.105,8.954,8.954,0,0,0-1.849,1.795,7.247,7.247,0,0,1,2.454-1.658A4.569,4.569,0,0,1,1829.527,295.138Z" transform="translate(-1414.774 -574.046) rotate(9)"/></g></svg>