<svg xmlns="http://www.w3.org/2000/svg" width="1366" height="241.296" viewBox="0 0 1366 241.296"><defs><style>.a{fill:#003fc8;}.b{fill:#25b8d8;}</style></defs><g transform="translate(0 0.572)"><path class="a" d="M-728.25,1155.5V995.66c253.423-20.394,497.6-25.753,604.958-27.16H-18.337c108.306,1.419,355.862,6.861,611.677,27.7q22.182,1.807,44.41,3.327V1155.5Z" transform="translate(728.25 -914.776)"/><path class="b" d="M21.11,13.568a3.147,3.147,0,0,0,3.272,1.012c1.633-.545,2.178-2.509,2.939-4.054a9.6,9.6,0,0,1,8.033-5.241,13.253,13.253,0,0,1,7.773,2.54A64.037,64.037,0,0,1,49.5,13.159c.763.669,1.97,1.317,2.681.594.624-.634.2-1.692-.262-2.451a27.762,27.762,0,0,0-7.669-8.737C41.02.367,36.84-.7,33.126.5c-3.744,1.212-7,4.505-9.423,7.6-4.128-2.277-8.1-4.7-12.744-3.9C6.494,4.968,3,8.523.62,12.375c-.5.816-.948,1.953-.288,2.649A1.623,1.623,0,0,0,2.4,15.017a6.714,6.714,0,0,0,1.413-1.75A10.75,10.75,0,0,1,10.78,8.812a10.045,10.045,0,0,1,8.052,1.9,8.509,8.509,0,0,1,1.461,1.526A13.732,13.732,0,0,0,21.11,13.568Z" transform="translate(1193.902 27.63) rotate(-9)"/><path class="b" d="M1.265,15.894a1.757,1.757,0,0,1-1.3-.525c-.7-.736-.616-1.892.226-3.256A22.483,22.483,0,0,1,4.685,6.75a12.963,12.963,0,0,1,6.189-3.04,11.3,11.3,0,0,1,1.905-.162c3.742,0,7.134,1.883,10.416,3.7l.379.21c3.146-3.934,6.306-6.435,9.4-7.436A11.057,11.057,0,0,1,36.385-.5a14.715,14.715,0,0,1,8.144,2.652c2.814,1.915,5.224,4.657,7.814,8.889.792,1.3.86,2.384.192,3.063a1.559,1.559,0,0,1-1.137.466,3.832,3.832,0,0,1-2.231-1.036c-.506-.444-1.014-.9-1.5-1.346a43.453,43.453,0,0,0-4.816-3.948,12.856,12.856,0,0,0-7.09-2.464c-.128,0-.257,0-.383.008a9.138,9.138,0,0,0-7.605,4.962c-.14.284-.271.579-.409.892-.6,1.361-1.287,2.9-2.82,3.415a3.121,3.121,0,0,1-.993.158,3.79,3.79,0,0,1-2.819-1.322,12.5,12.5,0,0,1-.86-1.392,8.36,8.36,0,0,0-1.357-1.408A9.022,9.022,0,0,0,12.7,9.15a10.944,10.944,0,0,0-1.836.155,10.311,10.311,0,0,0-6.64,4.245c-.078.113-.153.228-.233.349a5.529,5.529,0,0,1-1.3,1.522A2.481,2.481,0,0,1,1.265,15.894ZM12.78,4.548a10.3,10.3,0,0,0-1.736.148c-4.7.806-8.032,4.764-10,7.943-.271.439-.848,1.517-.35,2.043a.774.774,0,0,0,.57.213,1.48,1.48,0,0,0,.84-.281,4.716,4.716,0,0,0,1.052-1.264c.079-.12.16-.243.244-.364a11.25,11.25,0,0,1,7.3-4.665,11.946,11.946,0,0,1,2-.17,10.019,10.019,0,0,1,6.453,2.174,8.97,8.97,0,0,1,1.553,1.627q.014.02.026.042a12.442,12.442,0,0,0,.761,1.253,2.765,2.765,0,0,0,2.054.967,2.148,2.148,0,0,0,.676-.107c1.114-.372,1.653-1.586,2.222-2.872.137-.308.278-.627.426-.929a10.1,10.1,0,0,1,8.46-5.52c.141-.006.284-.009.426-.009A13.826,13.826,0,0,1,43.4,7.41a44.2,44.2,0,0,1,4.929,4.037c.488.441.993.9,1.494,1.336a2.778,2.778,0,0,0,1.571.787.558.558,0,0,0,.424-.168c.441-.447-.086-1.435-.333-1.84-2.513-4.1-4.834-6.752-7.524-8.584A13.708,13.708,0,0,0,36.385.5,10.059,10.059,0,0,0,33.28.977C30.294,1.944,27.2,4.445,24.1,8.413a.5.5,0,0,1-.635.13l-.752-.416C19.394,6.286,16.263,4.548,12.78,4.548Z" transform="translate(1193.902 27.63) rotate(-9)"/><path class="b" d="M0,12.6q1.816-2.031,3.795-3.911a11.961,11.961,0,0,1,4.068-2.83,8.09,8.09,0,0,1,6.595.8,14.294,14.294,0,0,1,4.771,4.825,29.253,29.253,0,0,1,4.135-5,8.3,8.3,0,0,1,2.528-1.82A4.819,4.819,0,0,1,32.521,8.7s-.1-.081.115-1.127A6.518,6.518,0,0,0,30.041.992a6.1,6.1,0,0,0-7.015.241c-1.7,1.352-2.483,3.514-3.193,5.563-1.922-2.029-4.041-4.168-6.794-4.655A9.442,9.442,0,0,0,6.069,4.151,16.074,16.074,0,0,0,.175,12.337" transform="translate(1232.894) rotate(9)"/><path class="b" d="M0,13.1a.5.5,0,0,1-.333-.127.5.5,0,0,1-.039-.706l.071-.08A16.545,16.545,0,0,1,5.777,3.745a9.863,9.863,0,0,1,7.349-2.1c2.705.479,4.86,2.5,6.505,4.211A10.84,10.84,0,0,1,22.714.842,6.374,6.374,0,0,1,26.473-.5,6.56,6.56,0,0,1,30.32.578a7.031,7.031,0,0,1,2.805,7.093A6.156,6.156,0,0,0,33,8.485q.011.085.018.17a.5.5,0,0,1-.819.428.616.616,0,0,1-.2-.546,4.319,4.319,0,0,0-5.918-3.406,7.874,7.874,0,0,0-2.371,1.717,28.767,28.767,0,0,0-4.064,4.91.5.5,0,0,1-.839,0,13.778,13.778,0,0,0-4.6-4.661,7.6,7.6,0,0,0-6.18-.764A11.646,11.646,0,0,0,4.139,9.05C2.835,10.289,1.568,11.6.373,12.932A.5.5,0,0,1,0,13.1ZM10.154,4.979a9.266,9.266,0,0,1,4.551,1.246,14.216,14.216,0,0,1,4.526,4.362,29.79,29.79,0,0,1,3.785-4.457A8.752,8.752,0,0,1,25.7,4.206a5.414,5.414,0,0,1,4.782.377A5.341,5.341,0,0,1,32.26,6.377a5.958,5.958,0,0,0-2.5-4.969,5.629,5.629,0,0,0-6.424.217c-1.635,1.3-2.41,3.54-3.033,5.336a.5.5,0,0,1-.835.18c-2.088-2.2-4.02-4.065-6.518-4.507-2.739-.485-5.3,1-6.59,1.922a15.543,15.543,0,0,0-4.767,5.6q.911-.935,1.855-1.832A12.49,12.49,0,0,1,7.7,5.387,7.361,7.361,0,0,1,10.154,4.979Z" transform="translate(1232.894) rotate(9)"/></g></svg>